<mxfile host="Electron" modified="2024-02-16T21:43:30.796Z" agent="Mozilla/5.0 (Windows NT 10.0; Win64; x64) AppleWebKit/537.36 (KHTML, like Gecko) draw.io/23.0.2 Chrome/120.0.6099.109 Electron/28.1.0 Safari/537.36" version="23.0.2" etag="AuXe8bJbB38DmhhpXkgZ" type="device">
  <diagram name="Page-1" id="YCWxjwmMyk5R68wP0maj">
    <mxGraphModel dx="2936" dy="7178" grid="0" gridSize="10" guides="1" tooltips="1" connect="1" arrows="1" fold="1" page="1" pageScale="1" pageWidth="2500" pageHeight="3000" background="#000000" math="0" shadow="0">
      <root>
        <mxCell id="0" />
        <mxCell id="1" parent="0" />
        <mxCell id="233" value="" style="rounded=0;whiteSpace=wrap;html=1;labelBackgroundColor=#000000;fontSize=10;fontColor=#000000;" parent="1" vertex="1">
          <mxGeometry x="5" y="-3132" width="2387" height="1675" as="geometry" />
        </mxCell>
        <mxCell id="yw3r1Iz2F--yr3W_fxyA-348" style="edgeStyle=orthogonalEdgeStyle;rounded=0;orthogonalLoop=1;jettySize=auto;html=1;fontColor=#000000;" parent="1" source="223" target="yw3r1Iz2F--yr3W_fxyA-331" edge="1">
          <mxGeometry relative="1" as="geometry" />
        </mxCell>
        <mxCell id="223" value="&lt;font&gt;Production Pipeline&lt;/font&gt;" style="points=[[0,0],[0.25,0],[0.5,0],[0.75,0],[1,0],[1,0.25],[1,0.5],[1,0.75],[1,1],[0.75,1],[0.5,1],[0.25,1],[0,1],[0,0.75],[0,0.5],[0,0.25]];outlineConnect=0;gradientColor=none;html=1;whiteSpace=wrap;fontSize=12;fontStyle=0;shape=mxgraph.aws4.group;grIcon=mxgraph.aws4.group_aws_cloud;strokeColor=#232F3E;fillColor=none;verticalAlign=top;align=left;spacingLeft=30;fontColor=#000000;dashed=0;" parent="1" vertex="1">
          <mxGeometry x="1473" y="-1969" width="416" height="132.37" as="geometry" />
        </mxCell>
        <mxCell id="rFgJHXwTLDm--NcJodbU-54" value="Local Dev Environments" style="rounded=0;whiteSpace=wrap;html=1;dashed=1;labelPosition=center;verticalLabelPosition=top;align=center;verticalAlign=bottom;fontColor=#000000;" parent="1" vertex="1">
          <mxGeometry x="157" y="-2888" width="601" height="498" as="geometry" />
        </mxCell>
        <mxCell id="yw3r1Iz2F--yr3W_fxyA-261" style="edgeStyle=orthogonalEdgeStyle;rounded=0;orthogonalLoop=1;jettySize=auto;html=1;exitX=1;exitY=0.5;exitDx=0;exitDy=0;fontColor=#000000;" parent="1" source="rFgJHXwTLDm--NcJodbU-1" target="yw3r1Iz2F--yr3W_fxyA-250" edge="1">
          <mxGeometry relative="1" as="geometry" />
        </mxCell>
        <mxCell id="yw3r1Iz2F--yr3W_fxyA-262" style="edgeStyle=orthogonalEdgeStyle;rounded=0;orthogonalLoop=1;jettySize=auto;html=1;exitX=1;exitY=0.5;exitDx=0;exitDy=0;entryX=0.5;entryY=0;entryDx=0;entryDy=0;fontColor=#000000;" parent="1" source="rFgJHXwTLDm--NcJodbU-1" target="yw3r1Iz2F--yr3W_fxyA-254" edge="1">
          <mxGeometry relative="1" as="geometry" />
        </mxCell>
        <mxCell id="rFgJHXwTLDm--NcJodbU-1" value="Bot App" style="rounded=0;whiteSpace=wrap;html=1;fontColor=#000000;" parent="1" vertex="1">
          <mxGeometry x="175" y="-2720" width="78" height="59.62" as="geometry" />
        </mxCell>
        <mxCell id="rFgJHXwTLDm--NcJodbU-14" value="" style="pointerEvents=1;shadow=0;dashed=0;html=1;strokeColor=none;labelPosition=center;verticalLabelPosition=bottom;verticalAlign=top;align=center;fillColor=#505050;shape=mxgraph.mscae.intune.hybrid;fontColor=#000000;" parent="1" vertex="1">
          <mxGeometry x="865.25" y="-2751.9999999999995" width="50" height="39" as="geometry" />
        </mxCell>
        <mxCell id="rFgJHXwTLDm--NcJodbU-62" value="" style="endArrow=classic;startArrow=classic;html=1;rounded=0;fontColor=#000000;" parent="1" edge="1">
          <mxGeometry width="50" height="50" relative="1" as="geometry">
            <mxPoint x="122" y="-2697.44" as="sourcePoint" />
            <mxPoint x="149" y="-2697.44" as="targetPoint" />
          </mxGeometry>
        </mxCell>
        <mxCell id="RbjDmwQ8ODs942wHZW1d-19" value="" style="image;aspect=fixed;html=1;points=[];align=center;fontSize=12;image=img/lib/azure2/ai_machine_learning/Bot_Services.svg;fontColor=#000000;" parent="1" vertex="1">
          <mxGeometry x="157" y="-2748.38" width="48" height="48" as="geometry" />
        </mxCell>
        <mxCell id="Vx6OWWt55Qy7AkqzLe72-10" value="" style="endArrow=classic;startArrow=classic;html=1;rounded=0;fontColor=#000000;" parent="1" edge="1">
          <mxGeometry width="50" height="50" relative="1" as="geometry">
            <mxPoint x="1226" y="-2675.5" as="sourcePoint" />
            <mxPoint x="1270" y="-2675.5" as="targetPoint" />
          </mxGeometry>
        </mxCell>
        <mxCell id="3rU6oiF3IRkNv5Wmxhny-2" value="Teams FX" style="text;html=1;strokeColor=none;fillColor=none;align=center;verticalAlign=middle;whiteSpace=wrap;rounded=0;fontColor=#000000;" parent="1" vertex="1">
          <mxGeometry x="205" y="-2750" width="60" height="30" as="geometry" />
        </mxCell>
        <mxCell id="3rU6oiF3IRkNv5Wmxhny-75" value="Development Environment" style="text;strokeColor=none;fillColor=none;html=1;fontSize=24;fontStyle=1;verticalAlign=middle;align=center;fontColor=#000000;" parent="1" vertex="1">
          <mxGeometry x="941.82" y="-2974" width="100" height="40" as="geometry" />
        </mxCell>
        <mxCell id="1eseyANnYeriw1MnfkxF-1" value="DevTunnels&lt;br&gt;(dev.visualstudio.com)" style="image;aspect=fixed;perimeter=ellipsePerimeter;html=1;align=center;shadow=0;dashed=0;spacingTop=3;image=img/lib/active_directory/tunnel.svg;fontColor=#000000;" parent="1" vertex="1">
          <mxGeometry x="829" y="-2702.2499999999995" width="122.5" height="24.5" as="geometry" />
        </mxCell>
        <mxCell id="4" value="Developer&lt;br&gt;(Local Machine)" style="outlineConnect=0;fontColor=#000000;gradientColor=none;strokeColor=#232F3E;fillColor=#ffffff;dashed=0;verticalLabelPosition=bottom;verticalAlign=top;align=center;html=1;fontSize=12;fontStyle=0;aspect=fixed;shape=mxgraph.aws4.resourceIcon;resIcon=mxgraph.aws4.user;shadow=1;" parent="1" vertex="1">
          <mxGeometry x="52" y="-2729" width="60" height="60" as="geometry" />
        </mxCell>
        <mxCell id="16" value="&lt;font&gt;VS Code + &lt;br&gt;Teams Toolkit&lt;br&gt;&amp;nbsp;Extension&lt;/font&gt;" style="verticalLabelPosition=bottom;html=1;verticalAlign=top;align=center;strokeColor=none;fillColor=#00BEF2;shape=mxgraph.azure.visual_studio_online;labelBackgroundColor=default;fontColor=#000000;" parent="1" vertex="1">
          <mxGeometry x="186.5" y="-2614.57" width="50" height="37.5" as="geometry" />
        </mxCell>
        <mxCell id="26" style="edgeStyle=orthogonalEdgeStyle;rounded=0;orthogonalLoop=1;jettySize=auto;html=1;exitX=0;exitY=0.5;exitDx=0;exitDy=0;fontColor=#000000;" parent="1" source="30" target="223" edge="1">
          <mxGeometry relative="1" as="geometry">
            <mxPoint x="2072" y="-2015" as="sourcePoint" />
            <mxPoint x="1954" y="-2701.5" as="targetPoint" />
          </mxGeometry>
        </mxCell>
        <mxCell id="30" value="" style="rounded=1;whiteSpace=wrap;html=1;fontColor=#000000;" parent="1" vertex="1">
          <mxGeometry x="2046" y="-2142.39" width="120" height="478" as="geometry" />
        </mxCell>
        <mxCell id="34" style="edgeStyle=orthogonalEdgeStyle;rounded=0;orthogonalLoop=1;jettySize=auto;html=1;entryX=0.5;entryY=0;entryDx=0;entryDy=0;fontColor=#000000;" parent="1" source="35" target="37" edge="1">
          <mxGeometry relative="1" as="geometry" />
        </mxCell>
        <mxCell id="35" value="Build + Scan + Test" style="rounded=0;whiteSpace=wrap;html=1;fontColor=#000000;" parent="1" vertex="1">
          <mxGeometry x="2066" y="-1976.39" width="80" height="41" as="geometry" />
        </mxCell>
        <mxCell id="36" style="edgeStyle=orthogonalEdgeStyle;rounded=0;orthogonalLoop=1;jettySize=auto;html=1;fontColor=#000000;" parent="1" source="37" target="39" edge="1">
          <mxGeometry relative="1" as="geometry" />
        </mxCell>
        <mxCell id="37" value="Set Terraform Workspace" style="rounded=0;whiteSpace=wrap;html=1;fontColor=#000000;" parent="1" vertex="1">
          <mxGeometry x="2066" y="-1916.39" width="80" height="41" as="geometry" />
        </mxCell>
        <mxCell id="38" style="edgeStyle=orthogonalEdgeStyle;rounded=0;orthogonalLoop=1;jettySize=auto;html=1;fontColor=#000000;" parent="1" source="39" target="41" edge="1">
          <mxGeometry relative="1" as="geometry" />
        </mxCell>
        <mxCell id="39" value="Plan/Apply IAC" style="rounded=0;whiteSpace=wrap;html=1;fontColor=#000000;" parent="1" vertex="1">
          <mxGeometry x="2066" y="-1852.64" width="80" height="41" as="geometry" />
        </mxCell>
        <mxCell id="219" style="edgeStyle=none;html=1;entryX=0;entryY=0.5;entryDx=0;entryDy=0;fontSize=10;fontColor=#000000;" parent="1" source="41" target="203" edge="1">
          <mxGeometry relative="1" as="geometry">
            <Array as="points">
              <mxPoint x="2183" y="-1766.39" />
              <mxPoint x="2183" y="-1682.39" />
            </Array>
          </mxGeometry>
        </mxCell>
        <mxCell id="41" value="Deploy App" style="rounded=0;whiteSpace=wrap;html=1;fontColor=#000000;" parent="1" vertex="1">
          <mxGeometry x="2066" y="-1787.39" width="80" height="41" as="geometry" />
        </mxCell>
        <mxCell id="42" value="Deploy Configs" style="rounded=0;whiteSpace=wrap;html=1;fontColor=#000000;" parent="1" vertex="1">
          <mxGeometry x="2066" y="-1723.89" width="80" height="41" as="geometry" />
        </mxCell>
        <mxCell id="43" style="edgeStyle=orthogonalEdgeStyle;rounded=0;orthogonalLoop=1;jettySize=auto;html=1;exitX=0.5;exitY=1;exitDx=0;exitDy=0;entryX=0.5;entryY=0;entryDx=0;entryDy=0;fontColor=#000000;" parent="1" source="41" target="42" edge="1">
          <mxGeometry relative="1" as="geometry">
            <mxPoint x="2104" y="-1754.39" as="sourcePoint" />
          </mxGeometry>
        </mxCell>
        <mxCell id="47" value="" style="verticalLabelPosition=bottom;html=1;verticalAlign=top;align=center;strokeColor=none;fillColor=#00BEF2;shape=mxgraph.azure.github_code;pointerEvents=1;labelBackgroundColor=none;fontColor=#000000;" parent="1" vertex="1">
          <mxGeometry x="2053" y="-2121.19" width="27.62" height="27.62" as="geometry" />
        </mxCell>
        <mxCell id="48" value="" style="html=1;overflow=block;blockSpacing=1;whiteSpace=wrap;shape=image;fontSize=13;spacing=3.8;strokeColor=none;strokeOpacity=100;strokeWidth=0;image=https://images.lucid.app/images/db34e1d5-209f-4167-b860-0c018b0294ca/content;imageAspect=0;lucidId=tEo4S4enCSso;fontColor=#000000;" parent="1" vertex="1">
          <mxGeometry x="2123" y="-2119.39" width="36" height="36" as="geometry" />
        </mxCell>
        <mxCell id="51" value="Version" style="rounded=0;whiteSpace=wrap;html=1;fontColor=#000000;" parent="1" vertex="1">
          <mxGeometry x="2066" y="-2037.3899999999999" width="80" height="41" as="geometry" />
        </mxCell>
        <mxCell id="52" style="edgeStyle=orthogonalEdgeStyle;rounded=0;orthogonalLoop=1;jettySize=auto;html=1;exitX=0.5;exitY=1;exitDx=0;exitDy=0;fontColor=#000000;" parent="1" source="51" edge="1">
          <mxGeometry relative="1" as="geometry">
            <mxPoint x="2116.0000000000005" y="-1925.39" as="sourcePoint" />
            <mxPoint x="2106" y="-1977.39" as="targetPoint" />
          </mxGeometry>
        </mxCell>
        <mxCell id="203" value="" style="rounded=1;whiteSpace=wrap;html=1;fontColor=#000000;" parent="1" vertex="1">
          <mxGeometry x="2199" y="-1852.64" width="120" height="345" as="geometry" />
        </mxCell>
        <mxCell id="206" style="edgeStyle=orthogonalEdgeStyle;rounded=0;orthogonalLoop=1;jettySize=auto;html=1;fontColor=#000000;" parent="1" source="207" target="209" edge="1">
          <mxGeometry relative="1" as="geometry" />
        </mxCell>
        <mxCell id="207" value="Configure" style="rounded=0;whiteSpace=wrap;html=1;fontColor=#000000;" parent="1" vertex="1">
          <mxGeometry x="2219" y="-1759.64" width="80" height="41" as="geometry" />
        </mxCell>
        <mxCell id="208" style="edgeStyle=orthogonalEdgeStyle;rounded=0;orthogonalLoop=1;jettySize=auto;html=1;fontColor=#000000;" parent="1" source="209" target="210" edge="1">
          <mxGeometry relative="1" as="geometry" />
        </mxCell>
        <mxCell id="209" value="Provision" style="rounded=0;whiteSpace=wrap;html=1;fontColor=#000000;" parent="1" vertex="1">
          <mxGeometry x="2219" y="-1695.89" width="80" height="41" as="geometry" />
        </mxCell>
        <mxCell id="210" value="Deploy" style="rounded=0;whiteSpace=wrap;html=1;fontColor=#000000;" parent="1" vertex="1">
          <mxGeometry x="2219" y="-1630.64" width="80" height="41" as="geometry" />
        </mxCell>
        <mxCell id="211" value="Publish" style="rounded=0;whiteSpace=wrap;html=1;fontColor=#000000;" parent="1" vertex="1">
          <mxGeometry x="2219" y="-1567.14" width="80" height="41" as="geometry" />
        </mxCell>
        <mxCell id="212" style="edgeStyle=orthogonalEdgeStyle;rounded=0;orthogonalLoop=1;jettySize=auto;html=1;exitX=0.5;exitY=1;exitDx=0;exitDy=0;entryX=0.5;entryY=0;entryDx=0;entryDy=0;fontColor=#000000;" parent="1" source="210" target="211" edge="1">
          <mxGeometry relative="1" as="geometry">
            <mxPoint x="2257" y="-1597.64" as="sourcePoint" />
          </mxGeometry>
        </mxCell>
        <mxCell id="213" value="" style="verticalLabelPosition=bottom;html=1;verticalAlign=top;align=center;strokeColor=none;fillColor=#00BEF2;shape=mxgraph.azure.github_code;pointerEvents=1;labelBackgroundColor=none;fontColor=#000000;" parent="1" vertex="1">
          <mxGeometry x="2206" y="-1847.26" width="27.62" height="27.62" as="geometry" />
        </mxCell>
        <mxCell id="214" value="" style="html=1;overflow=block;blockSpacing=1;whiteSpace=wrap;shape=image;fontSize=13;spacing=3.8;strokeColor=none;strokeOpacity=100;strokeWidth=0;image=https://images.lucid.app/images/db34e1d5-209f-4167-b860-0c018b0294ca/content;imageAspect=0;lucidId=tEo4S4enCSso;fontColor=#000000;" parent="1" vertex="1">
          <mxGeometry x="2272" y="-1844.39" width="36" height="36" as="geometry" />
        </mxCell>
        <mxCell id="220" value="" style="shape=image;imageAspect=0;aspect=fixed;verticalLabelPosition=bottom;verticalAlign=top;labelBackgroundColor=none;fontSize=10;fontColor=#000000;image=https://avatars.githubusercontent.com/u/11051457?s=280&amp;v=4;" parent="1" vertex="1">
          <mxGeometry x="2080.5" y="-2094.77" width="51" height="51" as="geometry" />
        </mxCell>
        <mxCell id="221" value="" style="shape=image;imageAspect=0;aspect=fixed;verticalLabelPosition=bottom;verticalAlign=top;labelBackgroundColor=none;fontSize=10;fontColor=#000000;image=https://avatars.githubusercontent.com/u/6789362?s=48&amp;v=4;" parent="1" vertex="1">
          <mxGeometry x="2233.62" y="-1811.64" width="46.75" height="46.75" as="geometry" />
        </mxCell>
        <mxCell id="228" value="" style="shape=image;verticalLabelPosition=bottom;labelBackgroundColor=default;verticalAlign=top;aspect=fixed;imageAspect=0;image=data:image/png,iVBORw0KGgoAAAANSUhEUgAACDwAAAHeCAYAAAB9xIkKAAAMQWlDQ1BJQ0MgUHJvZmlsZQAASImVVwdYU8kWnluSkEBoAQSkhN4EkRpASggtgPQiiEpIAoQSYyCo2JFFBdeCigjY0FURxQ6IBUXsLIq9LxZUlHWxYFfepICu+8r35vvmzn//OfOfM+fO3HsHALXjHJEoB1UHIFeYL44J9qePT0qmk54CMtADNEACrhxunogZFRUOYBlq/17eXQeItL1iL9X6Z/9/LRo8fh4XACQK4jReHjcX4gMA4DVckTgfAKKUN5uWL5JiWIGWGAYI8SIpzpDjGilOk+M9Mpu4GBbE7QAoqXA44gwAVC9Bnl7AzYAaqv0QOwp5AiEAanSIfXJzp/AgToXYGtqIIJbqM9J+0Mn4m2basCaHkzGM5XORFaUAQZ4ohzPj/0zH/y65OZIhH5awqmSKQ2Kkc4Z5u5k9JUyKVSDuE6ZFREKsCfEHAU9mDzFKyZSExMvtUQNuHgvmDOhA7MjjBIRBbABxkDAnIlzBp6ULgtgQwxWCThfks+Mg1oV4ET8vMFZhs1E8JUbhC21MF7OYCv4sRyzzK/V1X5Idz1Tov87ksxX6mGphZlwixBSIzQsECREQq0LskJcdG6awGVuYyYoYshFLYqTxm0McwxcG+8v1sYJ0cVCMwr40N29ovtjGTAE7QoH35WfGhcjzg7VzObL44VywS3whM35Ih583PnxoLjx+QKB87tgzvjA+VqHzQZTvHyMfi1NEOVEKe9yUnxMs5U0hdskriFWMxRPy4YKU6+PpovyoOHmceGEWJzRKHg++HIQDFggAdCCBNQ1MAVlA0NnX1Afv5D1BgAPEIAPwgb2CGRqRKOsRwmssKAR/QsQHecPj/GW9fFAA+a/DrPxqD9JlvQWyEdngCcS5IAzkwHuJbJRw2FsCeAwZwT+8c2DlwnhzYJX2/3t+iP3OMCETrmAkQx7pakOWxEBiADGEGES0wfVxH9wLD4dXP1idcAbuMTSP7/aEJ4QuwkPCNUI34dZkQZH4pyjHgW6oH6TIRdqPucAtoaYr7o97Q3WojOvg+sAed4F+mLgv9OwKWZYibmlW6D9p/20GPzwNhR3ZkYySR5D9yNY/j1S1VXUdVpHm+sf8yGNNG843a7jnZ/+sH7LPg23Yz5bYImw/dgY7gZ3DjmBNgI61Ys1YB3ZUiodX12PZ6hryFiOLJxvqCP7hb+jJSjOZ51jv2Ov4Rd6Xz58ufUcD1hTRDLEgIzOfzoRfBD6dLeQ6jKI7OTo5AyD9vshfX2+iZd8NRKfjO7fgDwC8WwcHBw9/50JbAdjrDrf/oe+cNQN+OpQBOHuIKxEXyDlceiHAt4Qa3Gl6wAiYAWs4HyfgBryAHwgEoSASxIEkMAlGnwnXuRhMA7PAfFACysBysBpUgQ1gM9gOdoF9oAkcASfAaXABXALXwB24enrAC9AP3oHPCIKQECpCQ/QQY8QCsUOcEAbigwQi4UgMkoSkIhmIEJEgs5AFSBlSjlQhm5A6ZC9yCDmBnEO6kFvIA6QXeY18QjFUBdVCDVFLdDTKQJloGBqHTkQz0KloIVqMLkUr0Vp0J9qInkAvoNfQbvQFOoABTBnTwUwwe4yBsbBILBlLx8TYHKwUq8BqsQasBT7nK1g31od9xIk4Dafj9nAFh+DxOBefis/Bl+BV+Ha8EW/Hr+AP8H78G4FKMCDYETwJbMJ4QgZhGqGEUEHYSjhIOAX3Ug/hHZFI1CFaEd3hXkwiZhFnEpcQ1xF3E48Tu4iPiAMkEkmPZEfyJkWSOKR8UglpLWknqZV0mdRD+qCkrGSs5KQUpJSsJFQqUqpQ2qF0TOmy0lOlz2R1sgXZkxxJ5pFnkJeRt5BbyBfJPeTPFA2KFcWbEkfJosynVFIaKKcodylvlJWVTZU9lKOVBcrzlCuV9yifVX6g/FFFU8VWhaWSoiJRWaqyTeW4yi2VN1Qq1ZLqR02m5lOXUuuoJ6n3qR9UaaoOqmxVnupc1WrVRtXLqi/VyGoWaky1SWqFahVq+9UuqvWpk9Ut1VnqHPU56tXqh9RvqA9o0DTGaERq5Gos0dihcU7jmSZJ01IzUJOnWay5WfOk5iMaRjOjsWhc2gLaFtopWo8WUctKi62VpVWmtUurU6tfW1PbRTtBe7p2tfZR7W4dTMdSh62To7NMZ5/OdZ1PIwxHMEfwRywe0TDi8oj3uiN1/XT5uqW6u3Wv6X7So+sF6mXrrdBr0runj+vb6kfrT9Nfr39Kv2+k1kivkdyRpSP3jbxtgBrYGsQYzDTYbNBhMGBoZBhsKDJca3jSsM9Ix8jPKMtoldExo15jmrGPscB4lXGr8XO6Np1Jz6FX0tvp/SYGJiEmEpNNJp0mn02tTONNi0x3m94zo5gxzNLNVpm1mfWbG5uPM59lXm9+24JswbDItFhjccbivaWVZaLlQssmy2dWulZsq0Krequ71lRrX+up1rXWV22INgybbJt1NpdsUVtX20zbatuLdqidm53Abp1d1yjCKI9RwlG1o27Yq9gz7Qvs6+0fOOg4hDsUOTQ5vBxtPjp59IrRZ0Z/c3R1zHHc4nhnjOaY0DFFY1rGvHaydeI6VTtddaY6BznPdW52fuVi58J3We9y05XmOs51oWub61c3dzexW4Nbr7u5e6p7jfsNhhYjirGEcdaD4OHvMdfjiMdHTzfPfM99nn952Xtle+3wejbWaix/7Jaxj7xNvTnem7y7feg+qT4bfbp9TXw5vrW+D/3M/Hh+W/2eMm2YWcydzJf+jv5i/4P+71merNms4wFYQHBAaUBnoGZgfGBV4P0g06CMoPqg/mDX4JnBx0MIIWEhK0JusA3ZXHYduz/UPXR2aHuYSlhsWFXYw3DbcHF4yzh0XOi4lePuRlhECCOaIkEkO3Jl5L0oq6ipUYejidFR0dXRT2LGxMyKORNLi50cuyP2XZx/3LK4O/HW8ZL4tgS1hJSEuoT3iQGJ5Ynd40ePnz3+QpJ+kiCpOZmUnJC8NXlgQuCE1RN6UlxTSlKuT7SaOH3iuUn6k3ImHZ2sNpkzeX8qITUxdUfqF04kp5YzkMZOq0nr57K4a7gveH68Vbxevje/nP803Tu9PP1ZhnfGyozeTN/Misw+AUtQJXiVFZK1Iet9dmT2tuzBnMSc3blKuam5h4Sawmxh+xSjKdOndInsRCWi7qmeU1dP7ReHibfmIXkT85rzteCPfIfEWvKL5EGBT0F1wYdpCdP2T9eYLpzeMcN2xuIZTwuDCn+bic/kzmybZTJr/qwHs5mzN81B5qTNaZtrNrd4bs+84Hnb51PmZ8//vcixqLzo7YLEBS3FhsXzih/9EvxLfYlqibjkxkKvhRsW4YsEizoXOy9eu/hbKa/0fJljWUXZlyXcJed/HfNr5a+DS9OXdi5zW7Z+OXG5cPn1Fb4rtpdrlBeWP1o5bmXjKvqq0lVvV09efa7CpWLDGsoayZruyvDK5rXma5ev/VKVWXWt2r96d41BzeKa9+t46y6v91vfsMFwQ9mGTxsFG29uCt7UWGtZW7GZuLlg85MtCVvO/Mb4rW6r/tayrV+3Cbd1b4/Z3l7nXle3w2DHsnq0XlLfuzNl56VdAbuaG+wbNu3W2V22B+yR7Hm+N3Xv9X1h+9r2M/Y3HLA4UHOQdrC0EWmc0djflNnU3ZzU3HUo9FBbi1fLwcMOh7cdMTlSfVT76LJjlGPFxwZbC1sHjouO953IOPGobXLbnZPjT15tj27vPBV26uzpoNMnzzDPtJ71PnvknOe5Q+cZ55suuF1o7HDtOPi76+8HO906Gy+6X2y+5HGppWts17HLvpdPXAm4cvoq++qFaxHXuq7HX795I+VG903ezWe3cm69ul1w+/OdeXcJd0vvqd+ruG9wv/YPmz92d7t1H30Q8KDjYezDO4+4j148znv8paf4CfVJxVPjp3XPnJ4d6Q3qvfR8wvOeF6IXn/tK/tT4s+al9csDf/n91dE/vr/nlfjV4Oslb/TebHvr8rZtIGrg/rvcd5/fl37Q+7D9I+PjmU+Jn55+nvaF9KXyq83Xlm9h3+4O5g4OijhijuxXAIMVTU8H4PU2AKhJANDg+YwyQX7+kxVEfmaVIfCfsPyMKCtuADTA//foPvh3cwOAPVvg8Qvqq6UAEEUFIM4DoM7Ow3XorCY7V0oLEZ4DNkZ+TctNA/+myM+cP8T9cwukqi7g5/ZfWUt8ese7k+0AAACKZVhJZk1NACoAAAAIAAQBGgAFAAAAAQAAAD4BGwAFAAAAAQAAAEYBKAADAAAAAQACAACHaQAEAAAAAQAAAE4AAAAAAAAAkAAAAAEAAACQAAAAAQADkoYABwAAABIAAAB4oAIABAAAAAEAAAg8oAMABAAAAAEAAAHeAAAAAEFTQ0lJAAAAU2NyZWVuc2hvdFxlroEAAAAJcEhZcwAAFiUAABYlAUlSJPAAAAHXaVRYdFhNTDpjb20uYWRvYmUueG1wAAAAAAA8eDp4bXBtZXRhIHhtbG5zOng9ImFkb2JlOm5zOm1ldGEvIiB4OnhtcHRrPSJYTVAgQ29yZSA2LjAuMCI+CiAgIDxyZGY6UkRGIHhtbG5zOnJkZj0iaHR0cDovL3d3dy53My5vcmcvMTk5OS8wMi8yMi1yZGYtc3ludGF4LW5zIyI+CiAgICAgIDxyZGY6RGVzY3JpcHRpb24gcmRmOmFib3V0PSIiCiAgICAgICAgICAgIHhtbG5zOmV4aWY9Imh0dHA6Ly9ucy5hZG9iZS5jb20vZXhpZi8xLjAvIj4KICAgICAgICAgPGV4aWY6UGl4ZWxZRGltZW5zaW9uPjQ3ODwvZXhpZjpQaXhlbFlEaW1lbnNpb24+CiAgICAgICAgIDxleGlmOlBpeGVsWERpbWVuc2lvbj4yMTA4PC9leGlmOlBpeGVsWERpbWVuc2lvbj4KICAgICAgICAgPGV4aWY6VXNlckNvbW1lbnQ+U2NyZWVuc2hvdDwvZXhpZjpVc2VyQ29tbWVudD4KICAgICAgPC9yZGY6RGVzY3JpcHRpb24+CiAgIDwvcmRmOlJERj4KPC94OnhtcG1ldGE+Cu6gyUQAAAAcaURPVAAAAAIAAAAAAAAA7wAAACgAAADvAAAA7wAAmE8kFloBAABAAElEQVR4AezdB4AdVb0/8F96IyGNJIRAQghVpUpHigiIIiJNUFFERCnSq/TeQfSholhAxYKoCIr0KlIEVP4oPfRQ0nvPf86Ee3PvZjfZNpu74XPeS+7UM2c+c3k5b+e753SYPnP2glAIECBAgAABAgQIECBAgAABAgQIECBAgAABAgQIECBAgAABAu1IoIPAQzt6WppKgAABAgQIECBAgAABAgQIECBAgAABAgQIECBAgAABAgQI5AICD74IBAgQIECAAAECBAgQIECAAAECBAgQIECAAAECBAgQIECAQLsTEHhod49MgwkQIECAAAECBAgQIECAAAECBAgQIECAAAECBAgQIECAAAGBB98BAgQIECBAgAABAgQIECBAgAABAgQIECBAgAABAgQIECBAoN0JCDy0u0emwQQIECBAgAABAgQIECBAgAABAgQIECBAgAABAgQIECBAgIDAg+8AAQIECBAgQIAAAQIECBAgQIAAAQIECBAgQIAAAQIECBAg0O4EBB7a3SPTYAIECBAgQIAAAQIECBAgQIAAAQIECBAgQIAAAQIECBAgQEDgwXeAAAECBAgQIECAAAECBAgQIECAAAECBAgQIECAAAECBAgQaHcCAg/t7pFpMAECBAgQIECAAAECBAgQIECAAAECBAgQIECAAAECBAgQICDw4DtAgAABAgQIECBAgAABAgQIECBAgAABAgQIECBAgAABAgQItDsBgYd298g0mAABAgQIECBAgAABAgQIECBAgAABAgQIECBAgAABAgQIEFiuAw8zZs2PufMXPeRe3TtGxw6L1mt5acr0efGzO8bHbf+cFBuP6hmH7Dowhg/uWstNzts2P/OelrmXSudOET26diyt5p83PjAhfnv/xOi3Qqc4eNcBsfk6var2W2k7gcX+G+mW/TdS/bjarjGuRIAAAQIECBAgQIAAAQIECBAgQIAAAQIECBAgQIAAgSYILNeBh62PeT7mzV9Q5rjooKGx/Qa9y+u1vPDdP70XN9w7vtzEtYZ1i+tPGFFer9WFFGa4/KZ3y83r17tT3HbeqPL6o89Oi6N+8EZ5vVOWQLnrolHRI3vRrrS9wLbHPx+z5yz6b+SsA1aOT360T9s3xBUJECBAgAABAgQIECBAgAABAgQIECBAgAABAgQIECDQRIEPVODh/K8OjR03bB+Bh11PezEmTJlX9Tj/dv6o6JuNilDL5bf3T4gr/9Bw4OHMX4yJ2/85ueoWzv3K0Nhp4/bxXKoavhys1A08nP7FIfHpzVZcDu7MLRAgQIAAAQIECBAgQIAAAQIECBAgQIAAAQIECBAgsLwLCDzU6BM+/9dvxy2PTCq3blDfzvHns9cor9fqwtICD3c9NSVO+/lbVc3/y7lrxIA+nau2WWkbAYGHtnF2FQIECBAgQIAAAQIECBAgQIAAAQIECBAgQIAAAQIEWl9A4KH1TVulxrfHz4kUenj8+emx2qCucdK+g2OTNXu2St1FVrK0wMP8+REX/vbt+Otjk7NpLDrENz41MPbZtl+RTVL3EgQEHpaAYxcBAgQIECBAgAABAgQIECBAgAABAgQIECBAgAABAjUtIPBQ048nYs68BdGlU4cab+Wi5i0t8FA6ct78BdGxQ4fI/ldZhgICD8sQ36UJECBAgAABAgQIECBAgAABAgQIECBAgAABAgQIEGiRgMBDi/icXFegsYGHuudZXzYCAg/Lxt1VCRAgQIAAAQIECBAgQIAAAQIECBAgQIAAAQIECBBouUChgYf0W/w33DMh5i9YUG7p57buG316dopxk+fm0xq8+NaseGvcnBjUr3OMWrlb7L7lijGgT+fy8Q0tzJw9P/6STYvw31dnxpvjZseKWZ1rDuseO6y/QqwxtFt+2tbHPB+pDaVy/leHxo4b9i6tturnmGwKijuemFyus2e3juWpGp5/Y1bc+58p8eKbs2LKjHkxbGDXWG9499htsxWja5f6hzh4+pUZ8eQL08v1rbpS1/h4RdufemlG/OflRftXH9Ittv3ICvnxD/2/qfFEdu6LY2ZFZLefpsTYct1esc2HF+4vV9rAQnpc//jftLg/a/MbY+fE2OxZ9e/dOWt3l9guu8ZWH1ohG52h/pOXFnh4b1J67pPKJ3ft3DH232HRlBYNOaapMJ59fWY88uy0+Md/p+XPdc1VusWHhveIT2/eJzo11KDylSLGT5kbNz88KZ7PnkP6zqQytH+XGLVK99gj+94NXHHp37uK6vLFB56eGqPfzpzfL926dIz9tl90P6Xtpc/X3p0d9/57Smk1/9xzm37Ru0fHaOiZTp81Px7L7vuhZ6bl3/fVBnXJ73vvbftGj64dy3Wl4256aGL877WZ8crbs7Pn3iU2WatnbLpWrxgxuGv5uMoFgYdKDcsECBAgQIAAAQIECBAgQIAAAQIECBAgQIAAAQIECLQngUIDD1Omz4udTnmxyuNnxw2PJ1+cHt+/ZWxVGKHyoAM+0T8O/8xKlZuqlu98ckqce8OYmD1nUZih8oBPZ0GCk/cbHNsf/0LVNYoMPNz9rylx6s/eKjcjvYC/79I145xfjYnU3vpKCjucc8DKsf0Gi4cwvvPHd+M3900on7bOqt3j58cPL69f8Ou348+PLAoObDSqZ5zxxSFx4rVvxgvZC/36ypB+XeKqw4bF8CwA0VBJQYtUx4Qp8xo6JFbs1Sku/toqseEaPRY7ZmmBhxRWOOaaN6rOe+Sqtcvr9Tk+cPmacch3XotnsnBLfSUFSC79+iqx+pD67yuFXi7+7TtVXvXVs+umfeLb+w9p0hQil//+3bjxwUXPKdX721NXb9D48puy4x+oPv6eS9aMFJCp75memT3TfS8YXe93PT2H73xzWKy7Wve4PwtenPWLMTEjCz3UV9J97b7FiovtEnhYjMQGAgQIECBAgAABAgQIECBAgAABAgQIECBAgAABAgTaiUCbBx72+Vi/xV4Q12f1mezl7KnZS9q65dZHJ8V5N7xdd/Ni6+n8v2YjQLTVCA/1vaj/xMa94/Z/Lhr1YbFGvr/h7Cz0sMtH+1TtbmrgYb3spff4LKTw9oQ5VfXUXUkhi+uOH1FvOKDuPdQ9t+76OV9eOXbepLrdRQQedt6kd9z2+JId+/XuFLecvUZ07lQ99EQaCeSQq16LNMpGY8rIbKSMnx63WnSvGDlhSeel0SK+fMkrVYd8c7eBceBOA6q2lVZ2O/2lfMSM0voW2cgbKbSQSt3AQwq5TM5CQ2kElIZKuu8rDhkWX7381YYOKW+v73kJPJR5LBAgQIAAAQIECBAgQIAAAQIECBAgQIAAAQIECBAg0M4E2jzw0BSf9CI4vRAulTQNxu5nvlwVYijta8xnW47w0Jj2lI5Jo0Hces4akV5el0pTAw+l8xrzmV7q33DKiKpDU1Bir3NGL2ab2pZGhHg1m4qhMjySTk77bjp99RiSTQtRKq0deCjV25jPw3dfKQ7YsX/VoRf+5u24+R+LRsIo7UzW3bLpNOoLiKSRENKICI0tu5/5Urw7cW758LWGdYvrTxhRXi8tvJlND7LXuS+XVvPPC7JpVkpTldQNPFQd2AorQwd0iT+cMbKqJoGHKg4rBAgQIECAAAECBAgQIECAAAECBAgQIECAAAECBAi0I4FlFnhIL6bTi95VBnaJNM3BT+8YF6++M7uKLk3B8KezFr2gPT+bxuGWimkc0sE9sqkADvnUwNjuIyvk56ah/X/017H1Du2/LAIPpfZtv/777fvP1LimnvbtsVXfOPnzg8v339zAw/DBXeOrOw+ILbOgSBoZ4J5/T4lf3DW+XG9p4aKDhlZNpfGt778ejz83vbQ7/zz6c4Ni74/1zUdNyGaFyKbmmBxnXj+m6pgt1+sVV35j4QgFaUdRgYfkd/CuA2ONlbvF1Jnz43t/enexKSrqTvtR3+gL6Tv1wyNXLYc0Jk6dF+ne604DkgIhKRjSmPKTv42LH982turQOy9aM3r36Fi17Vf3jI/v3fxeeVs+7clla5an0Ggo8HDGl1aOHbL7n5vNVpGmw0jf7/rKQbsMyJ9XmuriP6NnxlE/eH2xqTDSNCuVo1cIPNQnaRsBAgQIECBAgAABAgQIECBAgAABAgQIECBAgAABAu1BYJkEHg7/TPab+J+o/k38NHT/nue8HFNnZG91K8pNp4/MQxFp0w4nvrBYkOGao1aLDUb2qDgj4unRM+Lr33mtaltaWRaBhx8fs1p8ZMTS27dC9nL8ruwleak0J/CQ6ki/wd+n56KRIlJ91905Ln5wa/VL8hQguOhrq+SXS/Y7n/Ji6dL55/479Iuj9hhUtS2t/OLu8XH1nxe9tE/b7r1kzTx4kpaLCDxsNKpnXH3EqpENKFFVDsimkqgMKtQ1vPTGd+KmhyaWz0nTedx42sgY3LdzeVtamDRtXux7/uj8s7Tjix/vH9/67Eql1SV+plEi9jireuSGs7JpSj5ZZ5qSg7JpJ/772sxyXTtu1DvOP3Boeb2+wEN901Cc+vO34u6nppTPSwtpqpjj9q5+Xg9k4Z8Tr32z6rgffGvVSJ6lIvBQkvBJgAABAgQIECBAgAABAgQIECBAgAABAgQIECBAgEB7E2jzwEPd38KvBPvn89PjiKtfr9wUx+w5KD6/Xb94+e1Z8YULX6nat6SX0j/MXvD/PHvRX1naOvBwYDbSwjc/PbCyCeXlFBpI4YHKUjmqQHMCDz84crXYaI3qcEWp/rrhgPTy/4HL1sp3p1Ez0ugZlaXuSAClfWlai62Peb60mn9efPAq5RE2igg8XHXosNh8nUVTm5QufuODE+Ly379bWs0/H75y7ej4/sAKu3z7xaoQw77Z9+jY7PtUX6n7falv+of6zittq+v7sQ+vEJd+fWGgJB0zY9b8PLBTOj591r2vuoGHNALEQ1esFR3qBD1ufXRSnHdD9fO67oThsfaw7pXVR31BlhSwSEGLUhF4KEn4JECAAAECBAgQIECAAAECBAgQIECAAAECBAgQIECgvQm0eeBhSSGAOfMWxMeOrX6Zvs+22W+u7zUo/v7MtDjuR29U+X7vsFVj07UX/bZ65c6nXpweh36vOjzR1oGHJQUQ0vQRaSqFynL5IcNi6w8tfLHfnMBD5cv+ynrTcppKIU2pUFkevHyt6NK5Q7370lQWDZXfP7ho1IR0zFHZ1Bf7b98vP7yIwEN900Okiz2cTYVy7DXV34kHs4BAl04dYn42UMhWxzyXt6n0VxoBou6oC6V9d/9rSkyYMq+0GpWBkPLGJSwkk8t+/075iBRWSL6l8EUakSGNzFAqaaqTuy9es2rUirqBh4bCQY8+Oy2brqL6vh/+Thb0qBOMSNdK4ZQUUikVgYeShE8CBAgQIECAAAECBAgQIECAAAECBAgQIECAAAECBNq7QJsHHi46aGhsv8Gi3zCvC7jb6S/F2Mlzy5tLw/7XNwrBbeeNin69q6dvKJ04JZsaY6eTXyit5p9tHXho6EV9aszEqfPik6dWTyPx7f2HxO5brJi3tamBhyH9usSfzhqZn1vfX3c8MTnOuH5M1a50fDrvzGz77dn+5pYv7NA/jtxj4fQPrR14SMGBv1+5cCSKuu176qUZceh3q6cuKQUexk6aG7ud8VLdU5q0nq6brt+YMiWbFmSnOtOCVE4fUXcaij226hsnf35wVdV1Aw9p6olUR91SX+DhkavWrntYvi7wUC+LjQQIECBAgAABAgQIECBAgAABAgQIECBAgAABAgQILAcCbR54WNKoB8nzixe/Ei+9NatMm0Y8SCMf3PhANn3BTQ1PX1A+4f2FBdkvtW95dPVv+Ld14OEf2W/d152OoNTO+kYgSCNZpBEtUmlq4KGh0QBK16tvRInffnv1GD64az5yRhpBo7kljQZx/N4LX97XSuDh1Xdmx+cvGN3cW8rPu/fSNaNH1/fnx2hETd/KpmN5PJuWpVRKo5Ok7+J2Jzwfs+csGmnhp8cOj/WGV09BIfBQkvNJgAABAgQIECBAgAABAgQIECBAgAABAgQIECBAgACBpQu0eeDhhH0Gx17bNDxdwrbHV78Y3m3zFeO0LwyJO5+cEqdft2hKgHRrN5wyIkYO6VbvXb45dk7sde7LVfvaOvDw+9NXj2EDu1a1obQy+u3Zsf+F1S/kz/3K0Nhp44WjXzQ18JCmSLj3kjVL1S/2WTeIkA742wWjom+vTlH3RXvad9hnFo7YkJbrlvey0RNWWrFzefOGI3vE+tmfVOpeJ43AkUbiKJV/ZNNQHFNnGorK0QnS1BKn/mzRc27uCA/1jbiwzYdWKLez1J7S5/wslTA+m9JiYJ+F99Upyznsn41c0cgBHvJq6k5bkeq69dw14ulXZsTXr1w0EsWKmfntmX3dUvc5GOGhrpB1AgQIECBAgAABAgQIECBAgAABAgQIECBAgAABAgQILBJo88BDmrIhTd1QX5mQvXDe9bTqaR4O+ET/ODx7+f7ki9PjsO+9XnXa2V9eOXbZpE/VttLKPdmL829XvDhP29s68LCk66UpJNJUEpXl6iNWjU3W7JlvamrgIZ10x4Wjok/P+qf4OOeXY+Kvj1dPW1EageLav42La28bW25K1y4d4oHL6p9GonxQAwu1EnhIzdviqOoRPipH0Gig+S3aPGfugtj+hBdi3vxFIzncdPrIuOmhiXHDvePLdX9px/5xxO6LB0oEHspEFggQIECAAAECBAgQIECAAAECBAgQIECAAAECBAgQILBUgTYPPKSX6eklcOUIAaVW1n3Jn7ZfdNDQ2H6D3lHfb+yvMbRb/OKEEdGxzqwDabqIAy9/JZ5/Y9HUGKmuJQUQ0v6WlLojE6S61lylW1x3fP3tO+DS6qk70vGVgYW6FnWnrKj7cjydv/8O/eKoPQalxary7sS5sfd5L1dNqTCkX5f401kj8+MefXZaHPWDN6rO+U023cWIbLqL+kp6sT933qKX+ml0iVKppcBD3elRtlyvV1z5jWGlplZ9pozCrNnZF+f90rlzh+jSqUNptdGfaRSSNBpJqRyeBRtuenBivD1hTmlTNGRb95ka4aFMZoEAAQIECBAgQIAAAQIECBAgQIAAAQIECBAgQIAAAQKLCbR54CG1YHj2Iv1XJ42IzhUvlB94emqceO2bizXw3kvXjB5dF75QP+CSV+KFN6tDDGl6jDRNRmW5/KZ348YHJlRuypfbOvCQLrr3x/rG8XtXt++y378Tv89egleWFN5IJqXSnMBDOvfig1eJ7T6yQqmaPJjw5UtejZffrnb7QjZdw5F7LBxlIL3s3/6E6qlE0nQMacqQuiNGvPru7PjCha9UjWJQOTJFLQUefn3fhLjqj++WLdJCQ6M81B0BY61h3eL6LExTKtmMF/HzO8bFb+5f+L1K37uDdx242JQXT7wwPQ7/v0UjkaQpOSpHfBg6oEv84YyFQZNS3aVPgYeShE8CBAgQIECAAAECBAgQIECAAAECBAgQIECAAAECBAgsXWCZBB5Ss9KL4C3X7RUDV+ycT1fxWvYivW7ZcaPecf6BQ8ub05QM6cV03bJir06xVfbb+6k8/N9pMWnavLqH5OvLIvCQLpzat0V2r9ktN9i+U7NpPj6TTfdRKs0NPKTzhw3sGh9dq2eMmzw3Hn1uWtXIDqX6f3/66vlxpfUfZ1Na/CSb2qKypFEg9thqxdhgZI+IDh3isayu6+8cX/UCf4UeHeOOC9Ysj7JRS4GHydPnxW5nvLTY/e+6aZ/s+7JCrJKFD8aMnxPX3TVusdFATtx3cOy5dd8yxyP/mxZH/7B6FIxLsnDJthXhknRwCkbsdMoLMXXGotEiypVkC9/89MA4cOcBlZvKywIPZQoLBAgQIECAAAECBAgQIECAAAECBAgQIECAAAECBAgQWKpAmwce0vQHM2bV/zK4srUpEHHLOSOjf+/OlZujvlEeqg54fyVNnTF7Tvb2uaK0deChvjZUNKe8mEa8+M0pq6dMQbk0NfDQ2GulC+y7Xb84ds/qqS/SNCD7XTg66guelBtVz8JlX18ltvnwohElainwkJp7fzZyyEn1jBxSz62UN6XRHX5y7PCqKS1O/flbcfdTi6aqSAd/LLvvS7P7r1saGmEkHffns9eIQX2rv9Ol8wUeShI+CRAgQIAAAQIECBAgQIAAAQIECBAgQIAAAQIECBAgsHSBNg88XH7IsDjtureWGHpIYYcffGvVWD+NLFCnTJw6Lw6+8rV4Y+ziI0JUHnrVocPi2GverBqNoC0DD+kevnvYsKrpDSrbV1pOoyj85NjVYkA2hURlaWrgYaNRPWPjUT0WG6Whss60nF7SX/S1ofkIG3X3TcxGxjjy+68vNtpB3eNK66d/cUh8erNFo1Kk7bUWeEht+stjk+LcX72dFpdaRg7pFtdmz6NnFsypLDc9NDEuvfGdyk1x1B6DYv8d+lVtSysvvjUrvnTxK4ttX3OVbvGLE0cstr20QeChJOGTAAECBAgQIECAAAECBAgQIECAAAECBAgQIECAAAECSxdo88DDz44bHqsM7BLfu/m9uOWRSYu1cPv1V4jDPrNSrDao62L7ShvSCBE/vWNc/nK97igO66zaPdL0EOnl8tbHPF8VeLg4m4JguzpTEJTqbOnn3f+aEqf+7K1yNSnw8Pcr14pX3pkd59/wdjz9yozyvrSQ9n8+G2nhq7sMiN7ZtBB1y//9+b345d3jy5s/NLx7PupAaUNDL8f//sy0uPh3b8e7E+eWDs0/+/XuFF/bZWDstU3fqpEkqg7KVtJIDzc+OCF+fe+EeHvCnLq78/VdPtonjth9pVgpm46kbqkbDBiYBTluPXeN8mGPPz89vnX16+X1tPDIVWuX1x/IRmQ4sWJEhpJj+YCKhWT69Sz8UlkeumKt6NypYqiM93e+NGZW/PT2cYuN0lA6N426kO5pp4371OszY/b8+Nrlr8XLb8/KT0nfzzQKRH3PLh2w2+kvxdhsSpHKctzeg2Kfjy0ekCgdkwIVya9UNs2mJfne4auWVsufT7wwfbEgTaVh+cBsYdvjn68a6eSig4bG9hv0Lh+yw4kvVIWPzv7yyrHLJn3K+y0QIECAAAECBAgQIECAAAECBAgQIECAAAECBAgQIECgVgWWSeBh3dW65x7p5frr782OMePn5C/Ph2ZBiB5dF3/53xDevPkL4u3xc/MXy107d4gRQ7o26fyG6m3O9oYCD6W6ZmYvzEe/PTsmT58XwwZ2jSH9O9c7ykLp+KV9NhR4KJ2XrvPSmIWjYAzLXFPwoHLKjNJxS/p8JwtNjBk3J29zGvEgTb1RX8hhSXXU2r4UXHhr7JwYk4U5OmT/k4IOq67UJbo38nuXAiwLsplSVs++aw2VFMLZ5dQXq4IE6dg7LhwVfXp2aug02wkQIECAAAECBAgQIECAAAECBAgQIECAAAECBAgQIECgCQLLNPDQhHa22qFvZi+7D/+/6hEGWlJ5mkbijC+tHEsLPLTkGvWdu7TAQ33n2NY2At/903txw72LRudIV/34hr3jgq8ObZsGuAoBAgQIECBAgAABAgQIECBAgAABAgQIECBAgAABAgQ+AAIfuMDD82/Mii9f+kqrPdq1hnWL608YIfDQaqLts6I0Pct7k+bGQ/9vavz3tZmL3cSvThoRawzttth2GwgQIECAAAECBAgQIECAAAECBAgQIECAAAECBAgQIECgeQICD81zK58l8FCm+EAvbHHUcw3e//7b94ujPjeowf12ECBAgAABAgQIECBAgAABAgQIECBAgAABAgQIECBAgEDTBT54gYc3sxEeLnml6VINnCHw0ADMB2xzQ4GHI/dYKb6wQ/8PmIbbJUCAAAECBAgQIECAAAECBAgQIECAAAECBAgQIECAQPEChQYeZs9ZECdc+2bMX7CgfCen7j8khvTrUl5v64XUlPFT5rbaZbt37Ri9uneM/2XTGHz/1vfK9fbu0Sku+OrQ8nprL6QpFO54cnK52k1G9YwDdx5QXrfQtgJbH/N8zJu/ILp26RAjBneNUSt3iz236RsfHtGjbRviagQIECBAgAABAgQIECBAgAABAgQIECBAgAABAgQIEPiACBQaePiAGLpNAgQIECBAgAABAgQIECBAgAABAgQIECBAgAABAgQIECBAoI0FBB7aGNzlCBAgQIAAAQIECBAgQIAAAQIECBAgQIAAAQIECBAgQIAAgZYLCDy03FANBAgQIECAAAECBAgQIECAAAECBAgQIECAAAECBAgQIECAQBsLCDy0MbjLESBAgAABAgQIECBAgAABAgQIECBAgAABAgQIECBAgAABAi0XEHhouaEaCBAgQIAAAQIECBAgQIAAAQIECBAgQIAAAQIECBAgQIAAgTYWEHhoY3CXI0CAAAECBAgQIECAAAECBAgQIECAAAECBAgQIECAAAECBFouIPDQckM1ECBAgAABAgQIECBAgAABAgQIECBAgAABAgQIECBAgAABAm0sIPDQxuAuR4AAAQIECBAgQIAAAQIECBAgQIAAAQIECBAgQIAAAQIECLRcQOCh5YZqIECAAAECBAgQIECAAAECBAgQIECAAAECBAgQIECAAAECBNpYQOChjcFdjgABAgQIECBAgAABAgQIECBAgAABAgQIECBAgAABAgQIEGi5gMBDyw3VQIAAAQIECBAgQIAAAQIECBAgQIAAAQIECBAgQIAAAQIECLSxgMBDG4O7HAECBAgQIECAAAECBAgQIECAAAECBAgQIECAAAECBAgQINByAYGHlhuqgQABAgQIECBAgAABAgQIECBAgAABAgQIECBAgAABAgQIEGhjAYGHNgZ3OQIECBAgQIAAAQIECBAgQIAAAQIECBAgQIAAAQIECBAgQKDlAgIPLTdsVzXMnz8/FixYEJ06dWpX7S66sZMnT4kVVugVHTt2LPpS6idAgAABAgQIECBAgAABAgQIECBAgAABAgQIECBAgACBVhAQeGgFxLaq4te/+0M8/sRT8aH11omvfeWLTbrsI4/+M+6674EYO3Zcft7en9s9ttlq83z53AsviwkTJ8Ueu38qtt16yybV254Ovv/Bh+PmW2+L/v37xWknHVtu+h133Rt/vf2u6N69e5xzxsnRtUuX8r4P4sKkSZPj7AsuzW/9hKOPiJVXHvxBZHDPBAgQIECAAAECBAgQIECAAAECBAgQIECAAAECBAjUuIDAQ40/oMrm/ez6G+LfTz8To0auHkccenDlriUuP/nUf+L6G35bdcy+e302ttpis3zbyaefGzNnzozddt05PvHx7aqOW55W7rz7vvjL3+6MXj17xvlnn1q+tYuv+G6MGfNOvn70Ed+IEcNXK++r9YVp06fHxCyskkbsGDJ4UKs0d/yECXHOBZfldR131GGx6rBVWqVelRAgQIAAAQIECBAgQIAAAQIECBAgQIAAAQIECBAgQKA1BQQeWlOz4LqaG3i45trr4n/PPR/dunWNg796QB6Y6NChQ7m1H/TAw9PP/C9u/MPNseoqq2Q+X4pKmzJSjS7cdc/9cettd+RTcVxx8bmt0kqBh1ZhVAkBAgQIECBAgAABAgQIECBAgAABAgQIECBAgAABAgULCDwUDNya1Tc38HDa2RfE1KnTYvNNN4n9991zsSZ90AMPi4G0ow0CD+3oYWkqAQIECBAgQIAAAQIECBAgQIAAAQIECBAgQIAAAQKtKtDmgYfZs2fH3HnzomePHk2+kVmzZsecuXNihV69mnzusjph/vz5edigT5/eTW7ClClT83N6914h/2xu4OGk086OZLfHZz4V22+79WLtaGzgoSX3sthFC94wL/uOTZ4yJfr07p1P95Au19CUFo1tSnoeXbt2zUfKaOw56bjpM2bE3Llz87Y09rzU/hRSWXHFPks8pamBh9SOKVOnxop9+uSjQtRXeUMjPKT76NSxU5Pvv75r2EaAAAECBAgQIECAAAECBAgQIECAAAECBAgQIECAAIGWCrRJ4GHixElx34N/j2efeyHefufdvM39+vaNddZeM7becrMYtsrQxe4jvaSfP29+HHjA/jFx0uS494GHYuzYcflxHTt2jC02+2j2An/X/AV03ZPfePOt6Nt3xUYFI158eXRc8+Of51WcedqJVecsWLAgTj/nwpg1c1Zsv9028elP7lR1qfQC/Y677o3+/fvFKSccXd6XXlbfc9+D8d9nn49XX3s9UlCge/fusfaaa8QmG20Q63/kQ+VjSwuV9/tKds4/Hn08f+HdpXPnuPTCs/PDlhR4eOyfT8aNN92cH7f1Vpvn4YZSnXOyl9ylkupL5esHfTnWytqTypICD025lyIs8wY24a/X33gzfpc5pM9SSd+vfff6bDz3/Ivxl7/dGb169ozzzz61tDse/Psj8edbb4sVs+/MaScdW96eFtLL/9/c+McYPfrVLGyz0DGdv8H6H47PffbTUfJMx77y6utx9Q+vTYtx1uknxT+f+FfcdsfdMXPmzHzb0r63yfqvt98Vjz/xVEyePKV8zspDBscnd/p4fOTD6+Xb0l8PPfxo3HzLX8ttSttKbVk7++/q4AO/lDaVy6OPPxF/u+OemDBxYnnbkMGDYtOPbhQ7br9teVtaqBt4+H/ZlB+PPv5k9t/hpPy49N/uFpttErtkbVIIECBAgAABAgQIECBAgAABAgQIECBAgAABAgQIECCwrAQKDzxMmz49Lr78u+UXuHVvNL0EPvHYb0V6+VpZjj5h4QvpddZaM559/oXKXeXlEcNXi6OP+EZ5PS38KXsJfN8Df8+3nXTskbHyyoOr9tddSSMfpGBAKl/50n6x0QYfKR/y2utvxBXf/UG+PiALNZx+yvHlfWkh7UvHpHPSuamkkMSPfnp9/C8LOzRUvvD5vWKzj25ctbt0v6utOiyvs7QzvcReWuAhvSD/1W9+n5+yfvZSPIVEkmupzlJdlZ9f/+oB8aH11sk3NRR4aOq9tLZlZXsbs5xe1F94yXeqQgCV5627zlr5c6kbeCiNkpBCKRede3r5lNGvvBrf+8G1eWAlbUymKbxSKmnUjhSQSKM+pPLiS6Pj/94PPGy84frx5L/+Uzq06jO14xtf+0rVtjTywoWXfifGjZ9Qtb1yZe/P7R7bZGGWVO6+74G45S+3V+4uL68+Yngcdfgh5fUU6LjpT7eU1+surLfu2nHQl78Qnd8Pw1QGHtZdOzN7rv7v8o47bBuf+dQudauzToAAAQIECBAgQIAAAQIECBAgQIAAAQIECBAgQIAAgTYRKDTwkH4j/vLvXF0e1WG3XXfOf0u9e7du8cz/nos/3nxr/nI6vWg+5YSj8mH2S3dd+bI+/Yb+ntlv06cwwNhx4+MXN/wu3nxrTH7oYYccVB6pIG047+IryiNBNDSFQ+kapc/LsjamUSE233ST2H/fPUub89EA0igOpXLemd+OFVZYOJ1GevF9/Cln5i/Av/yFz8fGG62fH5ZGF3j4kcfy5U023iC22XKLGDx4pXjxxZfjltvuiPfeG5vvq9vuyvtNv0G/6y47Rgp0dOzQIQYOHJCfU98ID088+e/4xa9/V77el/bbJzpk56SSAgj5KBVnX5A777rLJ2K7bbbK93Xr1rV8XEOBh+bcS2ta5g1t5F9pqpQLL72qPIJBGo1jw2wUho6dOsV/nn4mbs5GcCiVxgYevv+jn8bzL7yUj85x2CFfzb9/aVqHRx97olzfnnvsFttuvWVedWXgIW1YaaWB8ZnsOz9q1Mh4880xcec99+X1pX1pdIRdd94xLeblgb//I/7wp1vz5e0+tlVstcVm+Xft2WdfiJv/clseGKoMv6Tv3+zZc/LgQ+k7etG5Z+Tnd+rcqTzaw9P/77/xk+t+lW9PoaLkssYaq2ejUbyWj2xRCubstcdn4mNbb5EfVxl4SBtSQONT2XcnjTSR/jv5+S9+Ux7t4YKzT4uePZs+PU1+IX8RIECAAAECBAgQIECAAAECBAgQIECAAAECBAgQIECgBQKFBh6e+e+z8eOf/SJvXn3hg/QyOb1UTuWT2cvfNGx/qZQCAClgcPrJx0d6QV8qk6dMiTPOuShfTS+NK4fWT6Md/Pp3f4g+vXvHsUcdmn+Wzmvo8/Y778mnHkhBgzNPPaF82MVXfDfGjHknv3YKD6QwRApFpDL6ldfiqquvyZcvOCd76dujRx4wKI0WkUam+ObXD8z3l/5K7T4/C2Skuoavtmoc861vlnaVR2NIowaccvzR0aNH9/K+0kLdwMOTT/0nrr/ht/nuNMXHfvt8rnRo1WdqU7pmfc8gHVhf4CEd35x7aS3LqhtoxMpT/346rvvlb/IjP/PpXRabpiFN6ZC+F6k0JvCQgiLHnHhafvwun9ghC6B8Il8u/fXQw4/Eu++OjdVWGxYf3XjDfHNl4CF9X0/NRn9I38NSSVNWXJSNdpJCL2m0iMsvOqccOkntS6GIND3K9ttuXTol/0zTldzw25vy5ZOPP6pqNJTS6BSpvisuPrfqvLRy/iVX5tdLoaLTTz4uevXqWT4mhSYuvOyqfH/ld78y8JDCRsceeWje3tKJabqQy6/6fr76jYO/EmkUCIUAAQIECBAgQIAAAQIECBAgQIAAAQIECBAgQIAAAQJtLVBo4OHWbESD9EK27lQBlTf5f9mUAS++PDrqBgRKgYc0hH8ayr9uOffCy/Lh/9MoCgfsv2/V7vSyujTKQdWOBlbSb62nkQlSKf3G+syZs7IgwDn5i97dP/3JfKqMD39o3Tj4wC/lx5Ve7A8etFI2OsXR+bbKF95nfPuE6N+vb7698q+77r0/bv3rHflv4Jemqkj7S/f78e0+Frvv9snKU8rLlYGHrTOX0gv+NMJAGmmgodKcwENz76W1LBu6l4a2l6YyWdJ3rTT6R2MCD+k6pSBICgMc/s2vxcAB/Ru6fL690qyhcMkL2UgfV1/zk/z407IAwtLqTAem0StOPHXhtCtp6on1P/Kh/Pz015ICDylgcdzJC0d92GfPz8bWW25WPq+0kEI472YBjM7ZSBhpRJFUKgMPn9v905FGnKhbjj3p9Hx0kzRixE47bl93t3UCBAgQIECAAAECBAgQIECAAAECBAgQIECAAAECBAgULlBo4KEUZhg1cvU44tCD672Zhl5UlwIAlaMqVFbwnf+7Jh+Wf6MNPhJf+dJ+lbuatXxCNj1FmoKj9EK5NGLAWmuuEV/Yd6846/xL8pDCJReclYcpStf/xMe3izRVRypLevlcatSzz78QP/zxz/PVM759fBaK6Jcvl+63cnqM0jmlz1LgobSePpf0gr90XHMCDy25l9awLLW9sZ9XXf2jbNSNV2NJ37UUEEnPtbGBh1v+envcfe8D5SakcEua3mG9ddaONbNpKuqGaioDD+n7ntpSt0yfPiO+feZ5+eYvfzGbCmXDhVOhpA0pqJPCB6NHvxqvZaMoTJs2LdLxU6dPy0caSceUvp9pOZUlPafKkRiOO+qwWHXYKgtPWsrflYGHIw87JEauPnyxM07LpkmZOnVa7JyNfpGmu1AIECBAgAABAgQIECBAgAABAgQIECBAgAABAgQIECDQ1gKFBh5KL0W33HzT+Pzee9R7bw8/8lj87qab832XXXh2dO7cOV8uBwDqvBQuVVJ6wd1agYdSmGCrLTaLfff6bPziht/FE0/9O0q/GX/WeZfExEmTIr04XmXoynF8FpBIUwIcfcQ3s9+MXzVvVumcyukBSu0tfY4dNz7Ou+jyfPWQg74c6627dr68tPtNB5XamJ9Q8ddRhx8Sq49Y/KV06ZDmBB5aci+ldrbEstT2xn425rt22+13xe133dvowEO6djr+nvseyKcEqWxLCpp86pOfiDS6RqlUBh7OPv2kWLFPn9Kuqs/S6AiVU2VMnzEjfvST6/MQT9XBdVaaEnionArjwnNOr3ealDrV56uVgYeGghJnnHtRTJ48ReChPkDbCBAgQIAAAQIECBAgQIAAAQIECBAgQIAAAQIECBBoE4FCAw+lURDSKAmHHXJQvTd0y1+y36LPXih369Y1Lj7vzPIxSwsAtHbg4fEnnopf/eb3MaB/vzj9lOPL0xmUXlz/4U+3xgN//0f+gvfD660TV3z3B1UjPqSGp5fj6aV6x44d44qLzy3fS+VC1ZQGJx0bAwcOyHcv7X7TQaUgQVreaotN45HHnshDF8nu1BOPjT59eqddi5XmBB5aci+tYbnYTSxlw5Xf+2G8+trrsaTv2i9+nYVYnvx3kwIP6bJp5IX03J597oX4zzP/jbFjx5VbUznlQ2XgoaEQSmmqlFTBF/fbOzbdZKO8rjSlSpoOJJUUqFn/w+vF4MGD8rZ2794tLr/q+/m+pgQeWmOEB4GHnN1fBAgQIECAAAECBAgQIECAAAECBAgQIECAAAECBAjUoEChgYc/3/q3uOf+B2OFFXrFeWd+u97bT9M7pGke1lxjZBz+za+Vj1laAKC1Aw/Tpk2PU886P7/+UYd/I666+pqoHKmh9DJ75ZUHx8YbrB9/+dud+egMaZSGUnn+hZfi+z/6ab5aCkqU9pU+73vg75Gm8agbilja/abzS4GH0rn/e+75uOba6/Kq03QLJx77rejUqVPpUuXP5gQeWnIvrWFZbnwjF0qBlLrTVVSefuGl34l33n2vyYGHyjrS8muvvxFXX/OTfNSHlVYamIVNjskPKX1H0sqee+xWNfpDfkD218ujX4nvfv/H+eopJxwd6blVTnORRoxI51aW1ObU9lSaEniYN29eHHfyGfl5adSSNOJG3TI3m8YljS6RvjfJLhUjPNRVsk6AAAECBAgQIECAAAECBAgQIECAAAECBAgQIECAQC0KFBp4+M/Tz8RPr78hv+/9990zNt90kyqD9OI4jZSQyk47bh+f/uRO5f1LCwAsKfAwfsLEWKFXz+jatWu5vsYsnH/JlfHee2NjtVWH5S+1t/vYVpF+gz+VNH1FaRqL9Bv4b741Jvbb+3OxxeYfLVc9Y8bMOOWMhSM7bLzh+vHlbDqOypJeLJ9/0RUxbfr0WHXYKvn0GKX9S7vfdFwp8DBq5OpxxKEH56eWRmJIK5tsvEEcsP+++fbKv5oTeGjJvaRrt9Sysv2NWU4jN6QRHFLZb5/suWy26LmkbZXfxbqhiLvuuT9uve2OSNNUXHTu6enwPBjx6ONP5MGU7bbZKnr3XiHfXvqrNFpE5TmVgYd0jdNOPq5qGok0UkQaiSJ971O58pLzokOHDlE5EkN6fuk5VpbSKChp22KBh3uztv/1jvzw+kI25118RT4iRUPtSf8dvfLqa/noIOecfnJej8BDzuAvAgQIECBAgAABAgQIECBAgAABAgQIECBAgAABAgRqXKDQwMOsWbPz30yfOGlSzpBCDx/+0Lr5VBDPZaMhpCkkZs6cma+fdPxRMXBA/zLX0gIADQUebr/znrjtjrvzF9WnZHWm38BvbCmNSFE6/luHfj3WGDmitJqPppBGVSiV9IK47jQS1/3yN/HUv5/OD9lhu21i6y03j/79+ubTLfzxz38tv+yu++J6afebKqwv8JC2X/OT6+J/zy5s1157fCY+tvUWaXO5NCfwkE5u7r2kc1vDMtXT2JICGudddHkeJknnpO/aRz60Xv49eOZ/z+bftRRaSaUxgYdJkyfHmedenB+fRvX4xkFfib59V8zXX3x5dFzz45/HnGx0hBTiSddKpTLwkNZTcCYFZkYMXzUPUNx5933xxFP/Trtim602j70/t3u+XBmmSVOqHHzgAZGumUbKuO/Bv0c6r1Tqfm9Sfb+4YWHQY8vNN41dd94xD2ekIEUqlfsr2/NeNi3HAw89HA89/Gh+3B6f+VRsv+3W+bLAQ87gLwIECBAgQIAAAQIECBAgQIAAAQIECBAgQIAAAQIEalyg0MBDuvdJkybHhZddlQcbGrI4+ohv5i+FK/cvLQDQUODh3Asvi3HjJ+RVVb7Eray7oeWXR7+aTTfwo3x3mjbisgvPzl+Yl47/x6OPx29//6d8tXK6i9L+9JleXqcpC9JvzTdU6mvX0u431dVQ4KFusOTIww6JkasPL1++uYGH5t5LunBrWJZvoJELb7/zblxyxffyZ1DfKWlkjBRWaEzgIZ3/69/9IdIoD6WSRnNYsGB+PpVF2tatW9c45luHxpDBg/JDKgMPpWuVzq38TMGDo4/4RtV368Y/3Bx//8dj5cPS968U0EjhhzFj3sn31Q08pDDRWeddUj4vLYxcfUQcedjXy9tSYCJNwdJQSSOWHJW1p2uXLvkhAg8NSdlOgAABAgQIECBAgAABAgQIECBAgAABAgQIECBAgEAtCRQeeEg3+86778Udd98bzz77Qvk38NPL4lEjR8b2220da64xcjGTUgDgK1/aLzba4COL7U+hgpdHvxJ1p4546OFH4vd/vCWfnuDk444s/1b+YhXUs6HyN+3XXWet+MbXvlJ11OQpU+KMcy7Kt2279Zax5x67Ve0vraQAwl+yKRL+m40GMTb7TfpU0gvs9KJ7s49uFFttsVnp0PLn0u43HVgacSF5Hf7Nr5XPTQtjx42PC7IpOdI9dOncOc4769T8hXzaVwo8pNEG0jQddcupZ56fP5fPfGqX2HGHbat2N+deUgWtZVnVmEasPJ+NHHLDb2+K0qgi6ZQ0CscXPr9XvPHGW/nUFXUDD3ff+0Dc8tfbFwtCpHMfefSf+b40DUmpJN9Ro0bGl/bbJ3plU6eUSmXg4ezTTor7sxEU7nvg7+XgQjruQ+uuE1/cb+/o2bNH6bTy52233xX33PdgPnJEaWP67qeRIE496/x809cO/FI2csW6pd3559PP/C9uyr7zpXseMXy1PFBRedDd9z0Qd9x1bzmskfalAMemm2yYj0KRvp+lMmHixDj7/Evz1eOPPjyGrTK0tKv8eca5F8XkyVNil50+no8qUd5hgQABAgQIECBAgAABAgQIECBAgAABAgQIECBAgAABAm0k0CaBh8p7SS9l586dVzV9ReX+1liePWdO/tK/NKx/a9TZ3DpmzpyVv4gelE2tUflSubn1Lcvzir6XNC3FrNmzmnyL3bp2ix49uledl6akmDJlah526NO7d9W+5qzMnj07xo2bED16do++Ky6c2qJuPZWBh/OzwEkKQ6TgR5o+Ym42/cXAAQPKIZS651auj58wMdL1+mfTW5RGXajc39ByulZ6RilM1KlTp8UOW7BgQSSXqVOnRb9smpUU/FAIECBAgAABAgQIECBAgAABAgQIECBAgAABAgQIECDQXgXaPPDQXqG0u3iBa3/+y/h/2WgFTS1p1ISvH3RAU09r9ePrCzy0+kVUSIAAAQIECBAgQIAAAQIECBAgQIAAAQIECBAgQIAAAQK5gMCDL0LNCAg81Myj0BACBAgQIECAAAECBAgQIECAAAECBAgQIECAAAECBAjUvIDAQ80/og9OA9NUJHPnzG3yDXfu0rlJUz80+QKNPMEID42EchgBAgQIECBAgAABAgQIECBAgAABAgQIECBAgAABAgRaQUDgoRUQVUEgCcyaNTveGvN2jjFi+KrRoUMHMAQIECBAgAABAgQIECBAgAABAgQIECBAgAABAgQIECBQkIDAQ0GwqiVAgAABAgQIECBAgAABAgQIECBAgAABAgQIECBAgAABAgSKExB4KM5WzQQIECBAgAABAgQIECBAgAABAgQIECBAgAABAgQIECBAgEBBAgIPBcGqlgABAgQIECBAgAABAgQIECBAgAABAgQIECBAgAABAgQIEChOQOChOFs1EyBAgAABAgQIECBAgAABAgQIECBAgAABAgQIECBAgAABAgUJCDwUBKtaAgQIECBAgAABAgQIECBAgAABAgQIECBAgAABAgQIECBAoDgBgYfibNVMgAABAgQIECBAgAABAgQIECBAgAABAgQIECBAgAABAgQIFCQg8FAQrGoJECBAgAABAgQIECBAgAABAgQIECBAgAABAgQIECBAgACB4gQEHoqzVTMBAgQIECBAgAABAgQIECBAgAABAgQIECBAgAABAgQIECBQkIDAQ0GwqiVAgAABAgQIECBAgAABAgQIECBAgAABAgQIECBAgAABAgSKExB4KM5WzQQIECBAgAABAgQIECBAgAABAgQIECBAgAABAgQIECBAgEBBAgIPBcGqlgABAgQIECBAgAABAgQIECBAgAABAgQIECBAgAABAgQIEChOQOChOFs1EyBAgAABAgQIECBAgAABAgQIECBAgAABAgQIECBAgAABAgUJCDwUBKtaAgQIECBAgAABAgQIECBAgAABAgQIECBAgAABAgQIECBAoDgBgYfibNVMgAABAgQIECBAgAABAgQIECBAgAABAgQIECBAgAABAgQIFCQg8FAQrGoJECBAgAABAgQIECBAgAABAgQIECBAgAABAgQIECBAgACB4gQEHoqzVTMBAgQIECBAgAABAgQIECBAgAABAgQIECBAgAABAgQIECBQkIDAQ0GwqiVAgAABAgQIECBAgAABAgQIECBAgAABAgQIECBAgAABAgSKExB4KM5WzQQIECBAgAABAgQIECBAgAABAgQIECBAgAABAgQIECBAgEBBAgIPBcGqlgABAgQIECBAgAABAgQIECBAgAABAgQIECBAgAABAgQIEChOQOChOFs1EyBAgAABAgQIECBAgAABAgQIECBAgAABAgQIECBAgAABAgUJCDwUBKtaAgQIECBAgAABAgQIECBAgAABAgQIECBAgAABAgQIECBAoDgBgYfibNVMgAABAgQIECBAgAABAgQIECBAgAABAgQIECBAgAABAgQIFCQg8FAQrGoJECBAgAABAgQIECBAgAABAgQIECBAgAABAgQIECBAgACB4gQEHoqzVTMBAgQIECBAgAABAgQIECBAgAABAgQIECBAgAABAgQIECBQkIDAQ0GwqiVAgAABAgQIECBAgAABAgQIECBAgAABAgQIECBAgAABAgSKExB4KM5WzQQIECBAgAABAgQIECBAgAABAgQIECBAgAABAgQIECBAgEBBAgIPBcGqlgABAgQIECBAgAABAgQIECBAgAABAgQIECBAgAABAgQIEChOQOChOFs1EyBAgAABAgQIECBAgAABAgQIECBAgAABAgQIECBAgAABAgUJCDwUBKtaAgQIECBAgAABAgQIECBAgAABAgQIECBAgAABAgQIECBAoDgBgYfibNVMgAABAgQIECBAgAABAgQIECBAgAABAgQIECBAgAABAgQIFCQg8FAQrGoJECBAgAABAgQIECBAgAABAgQIECBAgAABAgQIECBAgACB4gQEHoqzVTMBAgQIECBAgAABAgQIECBAgAABAgQIECBAgAABAgQIECBQkIDAQ0GwqiVAgAABAgQIECBAgAABAgQIECBAgAABAgQIECBAgAABAgSKExB4KM5WzQQIECBAgAABAgQIECBAgAABAgQIECBAgAABAgQIECBAgEBBAgIPBcGqlgABAgQIECBAgAABAgQIECBAgAABAgQIECBAgAABAgQIEChOQOChOFs1EyBAgAABAgQIECBAgAABAgQIECBAgAABAgQIECBAgAABAgUJCDwUBKtaAgQIECBAgAABAgQIECBAgAABAgQIECBAgAABAgQIECBAoDgBgYfibNVMgAABAgQIECBAgAABAgQIECBAgAABAgQIECBAgAABAgQIFCQg8FAQrGoJECBAgAABAgQIECBAgAABAgQIECBAgAABAgQIECBAgACB4gQEHoqzVTMBAgQIECBAgAABAgQIECBAgAABAgQIECBAgAABAgQIECBQkIDAQ0GwqiVAgAABAgQIECBAgAABAgQIECBAgAABAgQIECBAgAABAgSKExB4ogAGagAAQABJREFUKM5WzQQIECBAgAABAgQIECBAgAABAgQIECBAgAABAgQIECBAgEBBAgIPBcGqlgABAgQIECBAgAABAgQIECBAgAABAgQIECBAgAABAgQIEChOQOChOFs1EyBAgAABAgQIECBAgAABAgQIECBAgAABAgQIECBAgAABAgUJCDwUBKtaAgQIECBAgAABAgQIECBAgAABAgQIECBAgAABAgQIECBAoDgBgYfibNVMgAABAgQIECBAgAABAgQIECBAgAABAgQIECBAgAABAgQIFCQg8FAQrGoJECBAgAABAgQIECBAgAABAgQIECBAgAABAgQIECBAgACB4gQEHoqzVTMBAgQIECBAgAABAgQIECBAgAABAgQIECBAgAABAgQIECBQkIDAQ0GwqiVAgAABAgQIECBAgAABAgQIECBAgAABAgQIECBAgAABAgSKExB4KM5WzQQIECBAgAABAgQIECBAgAABAgQIECBAgAABAgQIECBAgEBBAgIPBcGqlgABAgQIECBAgAABAgQIECBAgAABAgQIECBAgAABAgQIEChOQOChOFs1EyBAgAABAgQIECBAgAABAgQIECBAgAABAgQIECBAgAABAgUJCDwUBKtaAgQIECBAgAABAgQIECBAgAABAgQIECBAgAABAgQIECBAoDgBgYfibNVMgAABAgQIECBAgAABAgQIECBAgAABAgQIECBAgAABAgQIFCQg8FAQrGoJECBAgAABAgQIECBAgAABAgQIECBAgAABAgQIECBAgACB4gQEHoqzVTMBAgQIECBAgAABAgQIECBAgAABAgQIECBAgAABAgQIECBQkIDAQ0GwqiVAgAABAgQIECBAgAABAgQIECBAgAABAgQIECBAgAABAgSKExB4KM5WzQQIECBAgAABAgQIECBAgAABAgQIECBAgAABAgQIECBAgEBBAgIPBcGqlgABAgQIECBAgAABAgQIECBAgAABAgQIECBAgAABAgQIEChOQOChOFs1EyBAgAABAgQIECBAgAABAgQIECBAgAABAgQIECBAgAABAgUJCDwUBKtaAgQIECBAgAABAgQIECBAgAABAgQIECBAgAABAgQIECBAoDgBgYfibNVMgAABAgQIECBAgAABAgQIECBAgAABAgQIECBAgAABAgQIFCQg8FAQrGoJECBAgAABAgQIECBAgAABAgQIECBAgAABAgQIECBAgACB4gQEHoqzVTMBAgQIECBAgAABAgQIECBAgAABAgQIECBAgAABAgQIECBQkIDAQ0GwqiVAgAABAgQIECBAgAABAgQIECBAgAABAgQIECBAgAABAgSKExB4KM5WzQQIECBAgAABAgQIECBAgAABAgQIECBAgAABAgQIECBAgEBBAgIPBcGqlgABAgQIECBAgAABAgQIECBAgAABAgQIECBAgAABAgQIEChOQOChOFs1EyBAgAABAgQIECBAgAABAgQIECBAgAABAgQIECBAgAABAgUJCDwUBKtaAgQIECBAgAABAgQIECBAgAABAgQIECBAgAABAgQIECBAoDgBgYfibNVMgAABAgQIECBAgAABAgQIECBAgAABAgQIECBAgAABAgQIFCQg8FAQrGoJECBAgAABAgQIECBAgAABAgQIECBAgAABAgQIECBAgACB4gQEHoqzVTMBAgQIECBAgAABAgQIECBAgAABAgQIECBAgAABAgQIECBQkIDAQ0GwqiVAgAABAgQIECBAgAABAgQIECBAgAABAgQIECBAgAABAgSKExB4KM5WzQQIECBAgAABAgQIECBAgAABAgQIECBAgAABAgQIECBAgEBBAgIPBcGqlgABAgQIECBAgAABAgQIECBAgAABAgQIECBAgAABAgQIEChOQOChOFs1EyBAgAABAgQIECBAgAABAgQIECBAgAABAgQIECBAgAABAgUJCDwUBKtaAgQIECBAgAABAgQIECBAgAABAgQIECBAgAABAgQIECBAoDgBgYfibNVMgAABAgQIECBAgAABAgQIECBAgAABAgQIECBAgAABAgQIFCQg8FAQrGoJECBAgAABAgQIECBAgAABAgQIECBAgAABAgQIECBAgACB4gQEHoqzVTMBAgQIECBAgAABAgQIECBAgAABAgQIECBAgAABAgQIECBQkIDAQ0GwqiVAgAABAgQIECBAgAABAgQIECBAgAABAgQIECBAgAABAgSKExB4KM5WzQQIECBAgAABAgQIECBAgAABAgQIECBAgAABAgQIECBAgEBBAgIPBcGqlgABAgQIECBAgAABAgQIECBAgAABAgQIECBAgAABAgQIEChOQOChOFs1EyBAgAABAgQIECBAgAABAgQIECBAgAABAgQIECBAgAABAgUJCDwUBKtaAgQIECBAgAABAgQIECBAgAABAgQIECBAgAABAgQIECBAoDgBgYfibNVMgAABAgQIECBAgAABAgQIECBAgAABAgQIECBAgAABAgQIFCQg8FAQrGoJECBAgAABAgQIECBAgAABAgQIECBAgAABAgQIECBAgACB4gQEHoqzVTMBAgQIECBAgAABAgQIECBAgAABAgQIECBAgAABAgQIECBQkIDAQ0GwqiVAgAABAgQIECBAgAABAgQIECBAgAABAgQIECBAgAABAgSKExB4KM5WzQQIECBAgAABAgQIECBAgAABAgQIECBAgAABAgQIECBAgEBBAgIPBcGqlgABAgQIECBAgAABAgQIECBAgAABAgQIECBAgAABAgQIEChOQOChOFs1EyBAgAABAgQIECBAgAABAgQIECBAgAABAgQIECBAgAABAgUJCDwUBKtaAgQIECBAgAABAgQIECBAgAABAgQIECBAgAABAgQIECBAoDgBgYfibNVMgAABAgQIECBAgAABAgQIECBAgAABAgQIECBAgAABAgQIFCQg8FAQrGoJECBAgAABAgQIECBAgAABAgQIECBAgAABAgQIECBAgACB4gQEHoqzVTMBAgQIECBAgAABAgQIECBAgAABAgQIECBAgAABAgQIECBQkIDAQ0GwqiVAgAABAgQIECBAgAABAgQIECBAgAABAgQIECBAgAABAgSKExB4KM5WzQQIECBAgAABAgQIECBAgAABAgQIECBAgAABAgQIECBAgEBBAgIPBcGqlgABAgQIECBAgAABAgQIECBAgAABAgQIECBAgAABAgQIEChOQOChOFs1EyBAgAABAgQIECBAgAABAgQIECBAgAABAgQIECBAgAABAgUJCDwUBKtaAgQIECBAgAABAgQIECBAgAABAgQIECBAgAABAgQIECBAoDgBgYfibNVMgAABAgQIECBAgAABAgQIECBAgAABAgQIECBAgAABAgQIFCQg8FAQrGoJECBAgAABAgQIECBAgAABAgQIECBAgAABAgQIECBAgACB4gQEHoqzVTMBAgQIECBAgAABAgQIECBAgAABAgQIECBAgAABAgQIECBQkMAyCTxMnzEzZs6aHXPmzo0FCxYUdGuqJUCAAAECzRfoEB2iU6eO0a1r1+jZs3t06tix+ZU5c5kI6G8sE3YXJUCAAIEmCOhvNAGrRg/V36jRB6NZBAgQIFAW0N8oU7TbBf2NdvvoNJwAAQIfGIFl3d9o08DD+ImTY9LkqTF33rwPzAN2owQIECCwfAj06d0r+q/YJ7p06bx83NByfBf6G8vxw3VrBAgQWM4F9DfazwPW32g/z0pLCRAgQKBaQH+j2qOW1/Q3avnpaBsBAgQILEmgrfsbbRJ4mJWN5vDO2Akxa/bs6NK5c/RbcYVYoVeP/LdmO3bosCQP+wgQIECAwDIRWBALYs6cuTF9xqyYmIX1pmWjE6WU4qCB/SL9Y63UnoD+Ru09Ey0iQIAAgSUL6G8s2acW9+pv1OJT0SYCBAgQWJKA/saSdGpzn/5GbT4XrSJAgACBhgWWdX+j8MDDjJmz4q13xsb8+fNjcPaSKP1RCBAgQIBAexNIoYe33hmXj1I0sH/fLLzXu73dwnLdXv2N5frxujkCBAh8YAT0N2r7Uetv1Pbz0ToCBAgQaJyA/kbjnJbVUfoby0redQkQIECgNQXaur9RaOBh3rz58fpb78ScuXNjtaGDom+fFVrTSl0ECBAgQKBNBWbPnhOvvPFOzMxGLFp50MB8tKI2bYCL1Sugv1Evi40ECBAg0E4F9Ddq88Hpb9Tmc9EqAgQIEGiegP5G89yKPkt/o2hh9RMgQIBAWwq0ZX+j0MDDO++Nj8lTp8UqgwfGgH592tLQtQgQIECAQCECM7Npml4Y/WZ07twpRqy6ciHXUGnTBPQ3mublaAIECBCofQH9jdp7RvobtfdMtIgAAQIEWiagv9EyvyLO1t8oQlWdBAgQILAsBdqqv1FY4CGlNl598+3o3atHrO6F0LL8Lrk2AQIECLSywHvjJsaYLNRnaotWhm1GdfobzUBzCgECBAi0CwH9jdp5TPobtfMstIQAAQIEWldAf6N1PVtSm/5GS/ScS4AAAQK1LNAW/Y3CAg/jJkyK8RMnx4hhQ6LPCj1r2VnbCBAgQIBAkwQWLFgQzzz/anTp0jlWW2Vwk851cOsK6G+0rqfaCBAgQKB2BPQ3audZ6G/UzrPQEgIECBBoXQH9jdb1bElt+hst0XMuAQIECNSyQFv0NwoLPLzx1rsxKxvl4cNrj6hlY20jQIAAAQLNEnjtzXdj4pSpMXK1odGpU6dm1eGklgvob7TcUA0ECBAgULsC+hu18Wz0N2rjOWgFAQIECBQjoL9RjGtTa9XfaKqY4wkQIECgPQkU3d8oLPDw8qtvRrduXWPU8KHtyVtbCRAgQIBAowTezaa1eDub1mLYyoOiR/dujTrHQa0voL/R+qZqJECAAIHaEdDfqI1nob9RG89BKwgQIECgGAH9jWJcm1qr/kZTxRxPgAABAu1JoOj+RmGBhxdGvx59evWMEasOaU/e2kqAAAECBBolMC6btunNt8fG0MEDo1fPHo06x0GtL6C/0fqmaiRAgACB2hHQ36iNZ6G/URvPQSsIECBAoBgB/Y1iXJtaq/5GU8UcT4AAAQLtSaDo/obAQ3v6NmgrAQIECNSMwPgs8PCGwMMyfx5+ILDMH4EGECBAgECBAvobBeI2oWr9jSZgOZQAAQIE2p2A/kZtPDL9jdp4DlpBgAABAsUIFN3fEHgo5rmplQABAgSWc4Gi/4Fezvla7fb8QKDVKFVEgAABAjUooL9RGw9Ff6M2noNWECBAgEAxAvobxbg2tVb9jaaKOZ4AAQIE2pNA0f0NgYf29G3QVgIECBCoGYGi/4GumRut8Yb4gUCNPyDNI0CAAIEWCehvtIiv1U7W32g1ShURIECAQA0K6G/UxkPR36iN56AVBAgQIFCMQNH9DYGHYp6bWgkQIEBgORco+h/o5Zyv1W7PDwRajVJFBAgQIFCDAvobtfFQ9Ddq4zloBQECBAgUI6C/UYxrU2vV32iqmOMJECBAoD0JFN3fEHhoT98GbSVAgACBmhEo+h/omrnRGm+IHwjU+APSPAIECBBokYD+Rov4Wu1k/Y1Wo1QRAQIECNSggP5GbTwU/Y3aeA5aQYAAAQLFCBTd3xB4KOa5qZUAAQIElnOBov+BXs75Wu32/ECg1ShVRIAAAQI1KKC/URsPRX+jNp6DVhAgQIBAMQL6G8W4NrVW/Y2mijmeAAECBNqTQNH9DYGH9vRt0FYCBAgQqBmBov+BrpkbrfGG+IFAjT8gzSNAgACBFgnob7SIr9VO1t9oNUoVESBAgEANCuhv1MZD0d+ojeegFQQIECBQjEDR/Q2Bh2Kem1oJECBAYDkXKPof6OWcr9Vuzw8EWo1SRQQIECBQgwL6G7XxUPQ3auM5aAUBAgQIFCOgv1GMa1Nr1d9oqpjjCRAgQKA9CRTd3xB4aE/fBm0lQIAAgZoRKPof6Jq50RpviB8I1PgD0jwCBAgQaJGA/kaL+FrtZP2NVqNUEQECBAjUoID+Rm08FP2N2ngOWkGAAAECxQgU3d8QeCjmuamVAAECBJZzgaL/gV7O+Vrt9vxAoNUoVUSAAAECNSigv1EbD0V/ozaeg1YQIECAQDEC+hvFuDa1Vv2Npoo5ngABAgTak0DR/Q2Bh/b0bdBWAgQIEKgZgaL/ga6ZG63xhviBQI0/IM0jQIAAgRYJ6G+0iK/VTtbfaDVKFREgQIBADQrob9TGQ9HfqI3noBUECBAgUIxA0f0NgYdinptaCRAgQGA5Fyj6H+jlnK/Vbs8PBFqNUkUECBAgUIMC+hu18VD0N2rjOWgFAQIECBQjoL9RjGtTa9XfaKqY4wkQIECgPQkU3d8QeGhP3wZtJUCAAIGaESj6H+iaudEab4gfCNT4A9I8AgQIEGiRgP5Gi/ha7WT9jVajVBEBAgQI1KCA/kZtPBT9jdp4DlpBgAABAsUIFN3fEHgo5rmplQABAgSWc4Gi/4Fezvla7fb8QKDVKFVEgAABAjUooL9RGw9Ff6M2noNWECBAgEAxAvobxbg2tVb9jaaKOZ4AAQIE2pNA0f0NgYf29G3QVgIECBCoGYGi/4GumRut8Yb4gUCNPyDNI0CAAIEWCehvtIiv1U7W32g1ShURIECAQA0K6G/UxkPR36iN56AVBAgQIFCMQNH9jeUy8PDU6H/Fz+77efmJ/CtbL5UNV98wNhyxYWyU/mTLCgECBAgQaK7A08+Ojk6dOkb3bl2jR/du0atXj+jSuXNzq3NeIwQWLFgQU6fNiOkzZsas2bOzP3OiQ/Y/H1ln9Uac3bqH6G+0rqfaCBAgQKB+Af2N+l2K3Kq/UaSuugkQIECgFgX0N9r+qdRSf2Pik09G+jPp/c+SRt+NN84Xhx98cP5ZWi/t90mAAAECBBorIPDQWKnsuNKLh8qAw5JOP3CHA/PdB73/uaRj7SNAgAABAnUFXn59TMyZPTdmzZkTsSDb2yGid6+e0a9vn+jWtUvdw623QCD9ICB1iiZOmhrzF8zPvbt06Rxdsz8pdDJi2JAW1N60U/U3mublaAIECBBomYD+Rsv8mnK2/kZTtBxLgAABAsuTgP5G2z3NWupvvHLttfFq9qexJQUeUvhB8KGxYo4jQIAAgZKAwENJYgmfTX3xULeqFHwQeqirYp0AAQIEGiswb978mDJtekzIXsZPzT5T8qF/vz7RPws+KC0XmDZ9Rrw3bmLMnTsvC5J0jn4r9ok+vXu2eahEf6Plz1INBAgQINB8Af2N5ts15kz9jcYoOYYAAQIElncB/Y1in3Ct9DdKIzo0JexQKZMCDxt8//uVmywTIECAAIElCgg8LJFn4agOR/3s6KUctfTdaaqL7371O0s/0BE1LfDee2PjX//+d2y99VbRs0ePVm/r/PnzY+asWdnQ9d2jQ4fsV7kVAgQI1BGYMnV6jHlvfMycOTt6r9AzhgwaUOcIq00RmDBpSowdPzEf0WHo4AExsP+KTTm91Y5NYYflrb+R/k179LHHsxFJ+sY666zdalatWVHR/663ZlvVRYAAgWYJZCMYZf+PRZNP1d9oMtkST9DfWCJPi3bqb7SIz8nLkcCs7GdJHTt2jC5djAS4HD3W5f5W9Dda9xHXSn+jqaM6NKRQS6M96G809JRsJ0CAQO0ICDws4Vm01suH0iXaS+jhj3/6c5x+5jl5s6+47OLYeacdS7fwgf6cMHFibPzRLXOD9OLmtlv/1Goef7v9zrju+l/GI48+lte56aabxO9+/ctWq19FBAgsfwKvj3k3m35hWvTq2T1WHjxw+bvBNrij0g8DunfrGquuvFIWNuvWBldd/BLLa3/j8iu/G/939Q/yG772R9+PHT++w+I33wZbXn55dOz+uX3yK33xC/vFKScdny8X+e96Ebe1z+e/GP979rlYfcTwuOXmm4q4RIvrnDBhQnxs+53yevb//D5x6rdPanGdbVVB+q7+8Ec/yS93429+Geuuu05bXdp1CNS0gP5Gyx+P/kbLDZdUg/7GknSavk9/o+lmy/KMyZOnxAUXXhz/eOSxeO311/Om/PpX18UWm2+2LJvl2gSaLKC/0WSyxU6olf5GGtnh34cdtlj7WrJhu0ceacnprXKu/karMJYr0d8oUxSy4OcbhbCqtB0ICDws4SFte8b2S9jbvF3tIfTwy1/9uhx4uPp7V8andv1k8252OTsr/Zbqfl/4cvmu/vPUY9G7d+/yenMXUtjh0MOPrDr9o5tsHDf+9ldV26wQIFCcQJrfsD2OqvLGmPdi/MQp2W/Q985GJuhbHNByWHMa5vGtd8bm01aMXG3l6NK58zK7y+W1v7H/F79SDvIdfug34vjjjl4mxs8993x88tOfza99wBf3j3POPiNfLurf9SJuctKkybHhJpvnVe+91+fi0osvKOIyLa7znnvvj699/Zt5PZdfelHs+bmF7i2uuA0qOO/8i+InP7suv1IKlHz4Q+u1wVVd4oMmoL/xQXviEfobxT9z/Y3WM15e+xuvvvZaPppb9x7dY/CgQa0HtoxrmjdvXuz22b3i2SwQW1l+ed1Ps1FJF/6yTuV2yx8Mgfba10hPx883mv8drZX+RhFhh6RSC9Nb6G80//tZ98zltb9R9z6X5bqfbyxL/Q/OtWuxzyHw0MD376f3/jx+nv0pohy4w4FxUPanVovAQ/1PJv0/k4ceflTcedfdcdSRh8fRRx5R/4FN3HrMcSfFn27+c35WeomxX/YbkYMGrRSrDhvWxJocToBAUwSe+d9zcd+DD8cLL42OGTNmxpDBg2L9D68be+z2yejUqVNTqmr1Y2fNmh2z5szJX8IvbdSBl157K6ZPnxVDhwzMptrp3uptWR4rTKN7v/rGmJg7d16MGjF0iSM7zM6ew8zseXTOvhNF+C7P/Y377n8gjj/x29G/X9/40Q+vjhHZyATLojQUeCjq3/Ui7vH+Bx6MAw86JK/64gvPi3332auIy7S4zksvuzK+/8Mf5fXcfcdfY+TI1VtcZ1tV4AcCbSXdvOu8Nead+PWNf8xPXmnggPjyFxaO2tK82pp+1rRp0+OHP7l+iSemNqW2VZb0A4C/P/J43H7XvfHue+PyXUNXHhwf3WiD+NQuOy7zsKX+RuXTav1l/Y3WN62vRv2N+lSat2157W+sPmrdHGTAgAHxz0cfah5ODZ718sujY8edP1W+t5NPPC422nCDGDJkcPTq1asGW6xJSxNobn9j7Ljxcec9D8R/s/BL6m/0yH4uMCrrh++/zx4xoH+/pV228P36G8US11J/I43skEIPRZThBx8cI7I/y6rob7Se/PLa32g9oZbX5OcbLTds7RrGjZ+Q/1v94suvZP9WvxcDB/SPkdnPST++3TaRfkawrEtjf+ZSy+9TkqHAQz3fpCJfPpQu98A595UWa+5T4GHJj6S1k0vb7bBzeejBfz/5WPTp0/JRI5Z8B/YSIPDwI/+M6274XQ6R5jnt1KljzJkzN18fsdqqcey3vhHdsmkO2rq89Mob8dqbb8eUqdPKl+6eTbOw6tDBsdbI1eoNYsyYOSteeOXN6N4tHbf8/MZSGaCAhfETJse4CZOyqUD6x0oNjIyRAhHpz8RJU8ot6JrNh7vKyoNizexZpGkwWlo+CP2N1v43sznmDQUeSnXVQhtLbWno88qrvhff/d738913/O3WWHPUGg0duky3p2Ep//nEk/kP2Z/+1+PL/GVuUzD8QKApWm17bJov96wLLo933n0vv3Dv3ivEZecvHKmlrVry+htvxnmXXLXEy51y3LdixPBVy8ek/9vyk+t+HY8/+a/yttTnSPeTyvBVh8XxRx0aXbu2/VzrLelv9Mj6G8P0N8rPdEkL+htL0mndfbXwb7n+Rus+0yXV1tT+xvIaePjrbX+Lw791TE61LEdTW9Kzsq9pAs3pb6T+0fmXXhUpVJBKly6dyz/bSP2OQw/+Sv6LHU1rSesc3ZL+hp9vNP4Z1Ep/o6jRHSollvXUFvoblU+j+ct+vtF8u8ae6ecbjZVqm+Oee+Gl+N4Pf1L173Pp5wLp3+qvH/jF2HjDj7RNY+q5SmN/5lKr71Mqb0ngoVLj/eXWeAGRpq5I5V+jF/2A6/3q848DCxrl4Z13342ZM2fmowOk/1gqS9r+zjvvxtKG8Wts4OH/s3cV8FJUX/go8hcQKel8j0d3SjeCdIqUtIQ0Ikh38+jOR3eKIEhIhyCNiEgKPOLRoYD6v99d7uzd2Znd2X2173Evv7dz5/acHXbOnPud71gdT14D8iEhIfTw4SNKyzYVY7LNIyvp+fPndOPmLUqVMgXFiRPHbRcoIPfv36f7Dx4yw2Nay/O4HdiDBi9fvqSr165zr3FXoS8KFCrOZZI2TRravWub2xlu3Qqm9xj1epIkid22VQ2UBJQEnCXwkFHD9+w3lFfUq12NypQsRvi9vHDxEo2fMotvRHxWqxqVL1PCuXM4lfz98hUdPXmOQu4/NJ0hTuzYlD93FkoYP55TmxvB9yjk4WNKlTxJuLAQOE0YxQsuM1aMd999h7IEpDW8kp9PnKVbLNyFWYIRKV/OrJQsSSKzJpbKo7K+gefyHWZcS8y8mePGjWvpet01evDgASEOcYoUydkGoHtAidVnvbsNCHfrEvVWn+uivdX1ifaujvUaNKaffz7GgQQIqaXX8Vz1jag6MOVky5mXT4dwaAiL5kkC48bVq9fYPZXYI/An6DAfPnpI0KOshiZCH9xv8ICMFcvGjGPVIPDkyRMKZvo0WIFc6XeeXLtq61oCm7fuoA3fb9UM+JEBeDhz7jwzUMzjzAxVPi1vuOCkSRNzNiBRuf/gEVq4bDU/rV29MhUpVIDiMbDG+QsXadrsIL4xgfKK5UuLLuF+VPpGuIvYYQKlbziIw6sTpW+4d4ZQ+oZ7fcMTwAP0Eei4f//9N6VjtiSruoW4wV3Z5ESbV4xB7vr1PwmME/EN3u2ePXum2b9cMTWsXLWGevbqy4edPHEcVa1SSUxheMQ1/ckAfLgu2JQ8Se7WLMa6e/ceY8f7i9nuUjrpq89fvKAbN25S6lSpOAOB6KOOdgl4qm9gg6JLz/5cp0jGmGI7tGlBSZN8RI+fPOXMWL+cOM0dOcYOGxChAEulb9i/04jI+Yq+4YrdASEpwNAAUMTVOXMMxYJ6tMM4Zim8WB6UvqH0Df09p+wbeomo89BIoFuvgQQWpyyZMlDzL+pTAqb/PWX63rJV6+noLye5zjQ5cJiDPSE083na14rNxRf3U4yuUwEeDKQS2ljaADtMaj6Bj3ycAR46z+/iNIvcxqnSQsGBg4eo0RfNecvevXqw+O0JOIXw5ctXeNnBfbuYETc5z1+7fp3GBk6g7zZt5uf48Pf3ozKlS1KjBvWd6IbdAR48HQ/z3bsXQsNGjObhIPDyJhLiI7ds0ZRq1qguirQjFPe584Jo2YpVJK4LlTBoN2zwObVq2czQ23npshU0eeoMCg4O1sYqW6YUlS9XlhrUr6eVeZrBi2+GzDl4t6JFCtOSRfN5HkpR9lz5eb5c2TI0oH9v6ttvEO3Zu0+bAp6YI4YPofz5bBsBMErkzFOQ/dDZZaE1Zpk6tWvS2NEjtKKjR4/RmnUb6Kfde7Xr8vf3oxLFi3Fa6+zZbBSNWgeVURJQEjCVwD62AbGIbUBkz5qZOrVr6dDuu83baNMP2yljgD/3unSoZCdggbgVfJsrJmHJxrL/yAnOOKCfT38O1omShfM5hWB4zlgeLl6+wTYJP6BkiUO3Ca+fM7qdP332gm7ducfklJD/6a/v6IlzdPO2zYtYX+d4/g77LvKye8H9i6FjP/tZVNQ3ChUsQEOGjeRe/OJKCuTPR/36fEu5cjmikWfPmUfDR47hzZYtWUCFC33M82AqAKIfae3q5dzwinbycxt6Qa+e3XmIJ95Q9+HJs94M8BCWz3Xd8siT9en76s9hnM6SPQ8vrlihPM2YZpOdvl1knwOQAWAG0qABfanJF40sLWnV6rW0Y+cu2rf/oKYX+fvb9NTu3boaGsRhrF+8dBntZ33OnD3H58GmQXEWr7pK5U/pk/LlDOdG+6EjRjnEui5dqiT16d2Dli9fRXPnL+D9vtuwhqCjyunQ4SMUOG6i070PXQy6rKsNCXkclfdMAqBl7jdkFO/UtmUTHlbCCPCA94Z//vmXMzYBEPSSAQnxvE7GQAgC1IJBXjN9HoAVgAgRbsdqErpDjaoVqXIF4/tLP5YwanxStiTVrVnVofr4yTM0f/FyTmPZ/9tuDnU4UfqGk0iiXIHSNzz7yvT2DaVv2OSntyPopar0Ddf6RpHiZRz0S1l+TZs0poH9+2hF2NiYOHkKLV6yXNNHoFuULFGM6tSqScWYjiEn/T1rZpOTY77/cvQg9fy2L7eLYaxGDevT0MED+LAA1k6fMZuWr1ztsGbYvwBk6Na1k2b/Wrh4KQ0YOERejkN++9bvKSAgPS+Do9K8oIVcZ8KaRYKNrHixolxf04dztLJm/fWnS5uW2R3H0+8X/+BTQC8aOrg/t/UB0Dp46HDauWu3mJ6/N4xmYdoyZ86klakMkaf6xh+Xr9Lo8VM5KHT00H5cvxFyhN1x6OgJ9OeNW1x3gQ6jT0rf0Esk6p37kr6xu3BhUwHKQIUrDPCgBz3knjaNgx0wgCvgBOpDw/Kg/+1S+gYkSpxBUt63sJXaP5W+4VrfsEuKSNk3ZGmoPCSA5/CQUeM5qGEKAzXo9S5hN+jYtgXlyJaFCw3PcIRhhrMe2uP8xs1g5nTzAcWPZ3eERDnCWuF5niJ5Uo+BupjMqs1F6Ci+tJ/ChaX7UIAHnUBC622pBzK4Gm8iA0XkfcMEoVuG21PEjWresg1vV7x4Udq374BDHwF4AJtC7boNtJAJDo3YCV7gNm1cw7zU7HFiXAEevBnvPIshV5dRHJtt7mNN3b/uQqDgEwmbEG3adeQGcFGmP5YsUZyC5s1y+I88b/5CthFjBwro+3zNXhI7tG+nL7Z0/vr1a8qYxbaZg82dVSuW8H5Pnz7l4AWcZMmSmXsCyAANefAft26iDAEB/EcqfUZHQ7rcrkb1qjRhnG2TCNTQoGw0S3iRXLdmhc/SW5utW5UrCUSWBBBL+/SZX5mnZX7KnTO7wzKOHT9Fs+Yv5l4RQ/r11OoQZwvemFBSRIKXf6PP61CRj22AJ1Hu6fH3S9fo198vW+6WmoW3yJfTpgDJnX67dJ2xU/xHfmlSyMUqr5PA3ZAH9OjxM8ron8opLMX1m7fp+Onzuh7mp4lZPNSiBXOZN3BR40o/cNFNq4oMfQNe+6DONUp4Fm35fj1nmBL1k6dMp3ETJvHTxQvnU7GiNgPI6LHjuEEXFQD4rVm7XnRxOCIG8fKlC53YHjx91psBHsLyuS4v3NP1yX2N8sd+OU516zXkVX0ZsKRl86ZGzSK9bMbMOTRqTCBfx8Z1qyhnThtI1NXCps2YRWPGmntmAnQwZ/Z0tmmdVBsGnoOQBwC4ZmnShECqVrWyQ/XZc79S1eq1HcrECe5fAHIAvEDSAx7k70D0kY/QSeeydXrqLSmPofLGEhg+ZhJdZV6wlSuWo8IF81H/oWPYS75zSIu1GzfT1u0/UaUKZekuA0kcPX5SG7BE0ULseV2btmzbSd9t+VELKQEQYce2LTnIUWtskvmegSE3MlBks8afW3ruw3sDhgvoCuNGDLLsVan0DZMvIAoWK33Dsy9Ntm8ofcNZdsKOINcofYPInb6RI3cBUzuUDDaA/al9xy60ddt2WcQOeVmXRYV8z7qyydWoXY9OnTrNxwLIQN70F2sA2KL2Z/UdAJkOk7MT9J0+dRLXiwGMgD5tlsT9YuW6GjdqQEMG9XcYysqa5esH0PTH7TscxhAn48aO4s5PsCXqk9H7g77N23buqb4hHDby5spBbVs1cRIXdCPoSIgNPqDX11q90jc0UUT5jK/oG1bCWchABRn0IIMdPB3H0y9Q/u1S+oaz9MTzQ65R+oZ7fUPIS9k3hCTUUZbAzVu3adCIQO7MM2HUYLmK52HjQHiqzl+1omxZbEBQhMAYN3kmIez2xwXy0ur1mzQ7Bso6tmtBly5fo3mLlhH0SCQ4foBBEg4XniSrNhdf208xu0YFeNBJJjQbEJ5sPmDasAI8iEvAJnlu5l0Jz6X69eoyo2tMxgLRjI6fsBn88CCvXq0KxWTUdVu2bqPVa9bxrtikX7NyqRYqwgzwgP883ozXoVM3+n7zFj4X1lCrZjVGqfY+7d27n2bPnS+WT+dOH9e8+LDm2nXra+sD6j1N6tTci2/o8JEa48OKZYvoY+ZtivTD1h+pXftOPI8XJ4AbMmXKRFeuXGGepFN42AhUjg8cZcgowTu6+LCyMSK6t23TinLmyE4HDh6mJUuXi2LmdViJpkyyvZhCyUKCfAAGwZpFXZIkSQisDRcu/M5efBtoL+m1alZnXotlOV3dpu+3aIZ5DlzZsFpj9dAmVBklASUBjySwZOVa2rPvEI+b1abFF7zvX8y7umvPAVyxAD1klswZOfDhEvOmQGrVtCEVzG/zvuYFZh8MdckQWk612/ccpudvlBOnSpOCCqWLGGzW36EHj59S2lTJnNCiJsO8lcU3g+/y52T2jH5O17+PMW3cf/DIqdxVARg3vGF5iMr6Bp5F8AiDlz3ACmLjGfrE2lXLtWe5FcADZIvnH/SWHOy5eZIZhIGIFyBJYQgW34E3z/rQAB7EvFae62jrzfrEHGZH6ErDGUsWEhgxAATxxdTyy7aaEf/386fdbv5DD/2mZ2/tUiDjQh8X5J6BaxmrFQCzSPI9gPsCIFpRBwBq3Tq1KEnixOy3ez8tWLhYG2/xgnmaNybCV1SuVlvzmITHbK2aNRjwNxHfsNjywzatHzIy4OHKlatUtUYd7Z5s1/ZLrns+efKUFi5aojE+fP5ZHRrJPBVVCjsJiJAQCRPEp+EDe9FdxhjnDvAAgAG8G8DUhOMVFl4OCUYB5MHqgBB5Fy9d5oYBGAUChw9g70GxXS58yQqmH+w/xI0QT54+o1NnzjGPi9eUlXmm5syehT5iADg5/f7HZRo7cTplypCeunZozfv+fvEyp60EjWUO1idNqpRyF0YBHkb6hsOo9hOlb9hlERG5CNM3TPRLcY1K35gtRKH0DU0SxpnoqG+A2enV61eas5Bsc/H38+OhHSANOM1gQwcJYMvmzZrwEKInT56iwPE28C7qtm7eyGxMGZF1ADzwAvaht8kh9JUMHkA76CDlypXh9i04HpUtW5ozg/XpN5DV2pxo2nzZglKykBBwfsG6BFgAQGDoSmBMuMzsXLv37KOgBYt4v1Ytmml6D2xkCAXbq09/Ws4YU5HAANusSWPKxjwHjzNQ4CzGxCb07a6dO1Knjl/xdviwsmZ50xB9/P396MuWzXmoO1k/Qh0S9KQyZUozL8K7NGp0oDa3L4N5bSuP2E9P9Q1sgPy4cw8VyJebx//Wr3bh0lWEDQroR1MCh/PqMNM3TJ4/Ya1vIGxnjBjv6i9Nnb+RQPCd+/TPv/9QZNs3ZACD2ZeDcBUAN4iEPijDH5IVsAPayQAJnHuS9L9d6KvsG8b7FpCNsm/shhhI2Te4GNRHKCTQa8BwZm9+SPVqV6dypYtrIyGcxeygJfw5PXnsMM2xG2EwEXZb2DcAXIzH9EqE4wa7ZaqUyTnjA5w4MjHdEuyWYHpAkoET2kQmGU9sLiZD8OJw3U9xNbFBnQI86ITSiYWfOMHCUHiaPAU7YPxmZZpRC/bnTdI/oBcGzeHhDeSxgE5v+1VHXgQK5KmTJ2ibYKA76fFtHw30MHf2DI4YR2MzwIM342GeEYymGjR6CZiBsXPH9toaMBfWJ1D0Mt31hElTaOKkqWjCqZuxfpEAAkCsQqQypUtpL3UVPq2q0efpNwRgGK9UtSbvgxdYGLI9TVYBD0CwQ1kSSfYoxEsm2DfkVKBQcf4Ca1Q3aMhw7QVWb0gHWr9V66/4izbGA/V36y9bykOrvJKAkoAHErjO4okOHTWB9+jzTWcWPicVzx88coyCFq/gykS/nl015WPXnv20ZsP3bLMjI7Vv3dyDmexNQT+4c98Re4HFXIHc2Sgle/GX0+17D+jOvYd0k4Xz+fvvl3KVyksSSJM6FX34QRzK4Oe40fQPUxi//3Gv1NJaNnvmAArwS22tsdQqquob3/boTm1a2581iFNchW0kC0Ps/LkzCSECkKwCHlYtX0wFCtiZUmCcbty0hSatU8ePMI/uD/m5N8/60AIePHmue7M+7UJNMq3bdtC85n47d9KJ8cKkW4QWQycRYb/g5bgoaK7b+ct+UkkDsI4PHM3AqNW0PgAolCj9iWYMP3vqGDfcywYXbBhsWLdaA9igs8wygfsQ9yMSQDTQe5FADQ09UA5LNJSFaRHhLNBGBjzImyD9+vSiFs3t3nNg+QJAV9A3nzh22DAWN8ZUyTMJgCGhZ/+hHLTQs2t7Su+fjns9uAM8YJZvunxFGdL78Qm3/LiL1n9nA14XK1yQmjT8jJc/YyHp+gwayUEPMnUkrzT4mDprPgM5/MoBEzBU6FPr5o0pf95cWjHAk3jpL8S8MQB+MOoD74uK5UtrfZS+oYkiWmSUvuHZ16i3byh9g8iVHUHpG0RW9Q3cif4ZbCFA4Shy9PA+h5sTOixsMkjQEdatWU6JEiXS2sgATejAuDeR9PeskU0O7WTwAFgapkya4KC7oM2y5Svp11/P0zsMhAfm06RJ7e95AA8MGGQDVOqBCbCL9ezVF0M4OfYgrGzBwnaDuhzmAu2PHj1Gn9VvjCxPF387o9nqrKxZvn4ASbYzNlMRVvf5ixf0ceESmh6HMGcIdyYSGLVgy0KSnYJE/dt89FTfOHf+Ak2cNoffU2OH9XcCHI8MnEKXGUAGadLYofT+//5HSt+IXneYr+gb7sJQCKnrQQ+i3CrYAe3l8Biiv9Wj/NuFPkrfUPqG0b2j7Bt/cLEo+4bR3eFd2bXrN2j6nAXcLgAnjBTJk3GAApgdPmA2ajhdZs4YoA0uAA8oqFWtEn36SRled/XanzR8rA2MmzxZUur9TSf+bMceLBghAIgoV7oEA1bY7WvaoLqMpzYXXXftNDL2U7TJDTIK8KATiqsNCAFQ0HtJeAN2wLRiPN0SLJ3KD2i8NAGwoE9jAyfQ1Ok2Q++mjWs5Y4DcBsCBipVtG/Pyi5MZ4MHb8eQ59fl16zdSt+422vhRzCuuHkN9I8kxCYsWKUzDhw7S0Pf6MXAOZDroCpHM4lvLTBOCTQIPsHPsxfI/ttFllkRMcquAB/lFUYwpx47U17sCPMgvmmdOHuVeKWJMHOF1WKb8p7wI7BlTJ5vTQsv9VF5JQEnAUQIPHz2mgcPH8o2PksULU6N6tbUGO37aRyvXbuRhLvoywAOMBGGVQhibwH7GKuBpypElA6VPZwNkiL737j+im3dCWGzyuxxkJsrV0VEC6dKkpg/jxqH0aVM4VIBlA94onqYMfmkoW+b0nnajqKhv+Pv70Y5tmzXQj7ho2RDco3s3ggc8khXAg94AKsbs3qOXFupiNWOhyp8vr9fP+tACHvTPbazR6LnurS4irtnoCD0ld75C/NoRcgHgUF9MMNJXrlaLL81K+LBH7Dc3T/5CvD0YKwBU1SfQP1+6fJkXI2QENh8Q/gI0kUhGGwtAun9cpCQH4MD4fvrEz/x+lQGkMiiHD8Q+Xr16RXkLFNEM8zLgQdbF/rhwltMEin44gsmrb/9BvGjp4iAqUth2XXIblfdcAnOCltLPv5ygooULUNOG9fgAMAa4AzwAhNilve03CJ3AxNG9z2DefwyLbS0DXWbOW0S/nDjNaR9l4AFvrPsQNI8orvJpecqVPSsLj/SYMTccpjPnzvPWX3dsQ5neGCmWrVpPP+09oI1SukQR7n2J0FMHDx/lmw2oBAADQAwkpW9wMUSbD6VvePZVyvYNf3+lbwjpKX1DSMJ29FTfEL1dAR72MoaoJs1a8abYlIduqk8iNEbBgvlp5bLFvFq+Z81scmgo6xHrWSjS3Lnt4Dj9PEbnYFIrVaYCr4JjDYC4IrkCPOzes5eatWjNmyKsK/QzfYItDjY5pC2b1vMQrchbWbN8/fp1YQwZsCt0eZQjAdiar2BRnpfDxfKCt/zDU33j5ctX1LlHP+7tCXDoV182Y++6H3AHiLUbv2e6yEFNomDLAiOV0jc0kUSLjK/oG1YBDxC6HvTgCdgB/cMK8ODvr/QNyBNJ6Rs2OYhPT/UNZd8QklNHMwnA4WLz1p20fdcepyYIlV2TgRoSxI+n1QnAg8zQJCp79B3KbREtvqhPhVjYT5H2HjhMi5evITBKgmXSXfLU5mI0XmTtpxitRZQpwIOQxJujqw0IOQSFAD14C3bAdGEFeOjWpRN17NBOdyVEXzRrSfv2HeDlMCbHjh3boc3Lly81Gl7ZC84M8ODteJj0OftPjfjHoOS7efMWMz4+ITwMDh22ezbLgAdQ9JUuV9FhvfDkK8LAD8WKFqGSJYpRrFixtHqM+xmjOBYJIAl9OnDwkFa0jr1o5mEvmjKaX6vUZS5f/JWXWAE8yC/A8jDw/hOhRfQ0SGaAh78ZrW2W7Hn4MPA02L1rmzwkz8uIQyNvBacOqkBJQEnASQLwQBkycjxHWQrqaVBciyQotLGRBkUjd87slJ1R9+fKmZXisg210KRHLATF7oPHPB4iT47MLHRFcod+d0Ie0u27DziNFWgqVTKWQFoAHj6ITQHpHBkeXrINzx922p6Zxj2NS7Nk8KNMAemMK12URkV9A6EDxowa7nRVsgei7KVlBfCA8TCuPsnebMOGDKSGDT7nOoQ3z/rQAB48ea57q4vor10+l8GpXTp1oM6d2svVPpOXN/2XLJpPRnqYvFjofw0aNeVFTZs0poH9bewLchujfKMvmrNwYTZ97tCB3ZQsaVKnZvAYhOcg0k87tnLALO4bfD9IZv1kPVcAHqArZ85mDyFidF1iPRi797ff0JetWiCrUigk8MelKzR6wjT+zIW3otD5rQAeAFwAc4JI0N/bd+vNgSrTJ4wUxfy4fPV62rXngIPHhEMD6QR0kjduBVPblk009ghUw5Ni5txFdPzUGSqQl9FJN7e9j6xYs5F27rZ5EcN4UemNR4YYcvnqDWzu/ZQ6VQoCexSS0jeEdKLHUekbnn2P8uap0jfssjOyIyh9wwYytKJvCEm6Ajzo4227e9YLIKx8z5rZ5DC/DB7Q24LE+nCEbefU6TOceeEyc2yBvezxk8c8/IQIPaEHFrgCPEyZNoMCx03kU8AxBg4y+gR2K7BcIck6uZU1y9cvA57FHF26fUMbNm7ip/t276BUUhgn2Y6lAA9CYrajp/oGekFvGjtphhbbG56i8NpEQkivaywMIWwZ0INg51D6BhdNtPnwFX3DE8CDUUgKKyExxJcWVoAHpW8IiRJnLdTvWyh9w7q+oewb9ntJ5ZwlABZmOFmC9RHP6FLFirDQZckYg+U9QkgJlMeOHYuG9OvJQYsYQQAewOLTt0dnh0HhBALbSK+vO5JfujRaHcJuTp0VxMNqft2prVZulPHG5qIfJzL3U/Rrkc8V4EGWBsu72oAwAjfIISkECEI3pOlpWAEeen7zNSHusT6JjXR9udG5vKFuBnjwdjwAHdq066jRXRvNjzIZ8IBzPGh7MvphQROMMpHgtdeje1cNfS+/6Ik2ro6TJ46jqlUqhTngAR6IC+bPdppaNrTrX3KFXPUhLS5dukzlKtgMtjIgRT+4TAltxAKhb6/OlQSUBOwSQHzvEYGTeNwrUEEhlMX//hfT3uBN7tLlq4TNCxELXDTIyTw8WzVrSLHef18UeXT8j7VGGAUYIDxJpYrmp/gfxnXociP4HoU8fEw3btxisWpfO9QZnXzA4pUnTfIR4fg2pecv/qYY78WgrAFpnS57x94j9Oz5C6dyVwWF8uWgZEyOnqaoqG/IbFDy9T58+Ih5x9uAhlkYGAgeYkhWAA9yOCt5TJnqFuGaELbJ22d9aAAPnjzXvV2ffN36/IqVq+nb3v14sRGjgb59ZJ3LRm0rusgKRsH87RsK5t69evCYz1bWLjws0fbS7+ec2EZQLrM5BM2bRaVKluAsYGKzwKxfvwGDeVg3jCEAD7IuhnJ3qXGjBjRkUH93zVS9CwngeYhQE3jpb9b4c4K3g0hWAA+VK5SjGlXtoGlXgAfBwiBTRIq5PDn+wXSE0eOnstA7cQkADSR4VC5btY7nJ41hFNIstqacQu4/oN4DR/CiqeOGaxTUUUnfiBPrfbZx8o58WdE+f+duCAsfdt/SdaZKkZziMICl0jcsicshPIDSN+wyM7IjKH3DtoluRd8QknQFeJBZDkR7V8eD+3+i5MmSOdyzZjY5jCODB4QzjX78YBaSsGPnrzVwpr5enHsCeOj6dU9av8HG3qAP+SrG2/LDNvqqg82I/lXb1vQNs7EhWVmzDHgwun5ZN1SAByHx0B2N9A0x4pWr1+nHnXvoLAvn+4IxF0InKVqoAJUpUZS+ZXHD48eLR6OH2sOKRCV9w6p9A0yc8T78wEnnEjKKrscY78XkNqzI1jesAhZksAOYHcD2IJI3Y4i+Vo/yb5fSN+xSU/qGXRbIyc8wK/qGsm84yk+dOUoAITYRahM2+F7dO1EcySkdTE2BDLSI/YbCjK2hOWNtQBKAB7D4IGyFnMwADydPn6Vpsxe4BTx4a3OR1xDZ+ynyWvR5BXjQSeT45RPUeX4XXan9VA96EDWegh3QT2aMEONYPcoPaKOXC4xTr0Fj+vlnm+fwzOlTNEOaPMdjRsUajym+QBEJCl4zwIM348mbIJgXTBOg+0ubNi3FjRuXx6RevmIVX5Ie8CDWCc/RPXv2sZe/Y7Rz125RzI8irraMpMuRPRt1ZawX+iSuFeXZ2SYlvALBoiC8APXtcR7r/VhUtmxpliOywvDgycYIH5R9mAEe/vrrL8qaIy9v5u/vRzt/3MLz8gd+oAIyZedFiuFBlozKKwm4lwD+/yC+FWJrJ/4oEfVhiElZ6TAa4fHjJ1zpOHLsBJ0+a2N/sUoVZTQeyk6cuUDXGEjBakrIKK5KFLb9Nsh9Ll69yUJZvKQAv1S8+AHbhP7jyp9aXm4r59OzkAwB7O9tScEs7MfTZy8oS4a0FJMBH+R0/uIVuvDHVbnIZT422+z5pJQzo5DLTm8qo6K+YeYBIdP9yeGVrAAeAseMpNq1ajiJTA5thQ1kbCR7+6yPKMCDt+tzunipQA7tcfKXIw50/FKzSM8KXQY6GMAC7hL0U+iVSGZhTYzGACsE5Ix0+MAehxjXor07hgezfk2bf0l79to88gXgAQbjbDntv7dGIeSgH/7zz2tmXI1FKdkGJ0A/KnkvATkmJYzzcnrN5Cw8FmHIjx/vQ40dYe3GzbR1+08UXoAHMCe9w/7pgQtYH0JbgFYSaeak0fwoDBRyGa948yGAGDjVh9pAWVTSN7De6J7+uHKdLrE/Vwn6FJLQqZS+4UpaznWyfUPpG3b5GG1AKH0jhKzqG0KSrgAPkyZPo/ETJ/OmcCQqWMAWKlX0xVG2JRUtUogzD8n3rJlNDn2tgAeq1ahDZ86eQ3OCM9In5csym1U2vmmN58HX33zL6zwBPMh6+LQpE6jSp3YwIB+Mfcybv5CGDLOB78wYHsxAGu6uX94sUoAHIXH3R0/1DaMRYecQjJVnf/2NJk2fa0pvHZX0DWXfMPq2iXxF37ACVtCDHcAKoQ9v4ek4xlIxL5V/u5S+YZeT0jfsskBO2TeUfcPxjgjdmQhXVa92dSpXurjTYAiziXCbMjhR2BPCA/Dgrc1FLNxX9lPEevRHBXjQScTdBgSa60EP3oAdMM6ewT/h4FWSH9BmL1cjR4+lmbPm8vF/+H4DZc6cycIpJB4AABgDSURBVNJcZoAHb8bb8sNWhhi3AUg+/6wOjRxhMwaKhcg0e2aAB9EWx/v379O4CZN5vGScf1K+HM2aMYXT/YlY0PJmC9qEVYpowAPWLb/4nj39i9Nm7NVrLPRHWduLa8UK5WnGNNuLelhdsxpHSSC6SgAU1DPmLqQTp85SwgTx+YYJaKU8SYjZPXnGPN5lxsRRhp7GVsZ7zjbUdu0/ymlMrbQvlC8nYxRI5ND01et/6Nffr3K2hpTJEzvU4cSKceBtAT4gjMidkAeUOnkSSpTgQwdZ/cOMQz+x78Iqy4NRaBGHAV2cREV9w9/fOMbl2nUbNENs96+7UPt2bfiVy4bWxQvns5BUNnDI6LHjaPoMGxuSWTiDb3r2ptVrbN7Rq5YvpgIF8nv9rI8owIMctzGsdBHxoi0zZ7i4rSKlSo4tLdg43C0Eoc1y5f2YN8uVKydtWLvSqcsVRud848ZN+ve/f6nQxwWZ59L/aNSYQJoxcw5vu3jBPCrGqADlhN/2goVLcAYvsIGdOn6EG3wHDh5GCxYu5k0F64PcD9TKufMVYpvpz3ixADzgROhiGO/0iZ+9/q2X51N5cwlcu36Dho2ZaN5AqgH4AOwJSOEJeJDBCfCO1AMxjh0/RbPmL+a00b26d+TrefLkKXXvM5jnB/TqxsEw/OTNx6+//U4Tps7mlJbjRgyUq5zyUUnfcFp8FC8A0OEBY8+CHmWU9CAHuY3SN2RpuM/L9g1/f6VvCIkZbUAofYPIqr4h5OgK8ACnmpZf2mh/BchW9HN1lO9ZM5sc+rsDPNy+c4cKFy3FpwLYYef2LRQjhh2ULYNEPQE8yOvr1PErgiezPsn69ubv1lHWrFl4E3drRiN5fKPrV4AHvbTdn3ujb2DTYicLkZU4UUKqVrmC0ySDR47jbJaflC1JdWtWdaqXC6KSvqHsG/Zvzlf0DbA1AMBglmRgg76tXIf+7sJjlDp0yGwat+Xyb5e/v9I3hMCUviEkQaTsG3ZZqFzYSAAMDhcuXiJ9+E0xOsJsItwmGCAQ1gIpPAEP3tpcsC5f2k/BeoySAjwYSMUVzbRoDtBDHr88/DRoV5AotnwMTTgLTCI/oI1eLtBm85YfqH3HrsgSYmpPHD/G4cUJP+DjJ0zh9YU+LkD1P/+M580AD96MN2v2XBoxaiwfV94EQQGMyrXqfK6FrJABD2PGjmceuM+4kRoxq+Mzj2aRZHrh4sWL0qIgG6ijVJkK/KGEduvXrKDcuXOJLvw4e848OsfQzUj9+vSkRIkcNwx5hYuPyAA8DBg0lBDHHOkL5t06WKJJBpqqddsOGkOF2X3g4pJUlZLAWyuBhctW8zhZMWO+R8MH9mbUh47hIWTBTJk5n7M5FMjHYnM3a6RVASwxfc4CBwSmVulhBqj8I8fPuO2VPXMA8xxM7dTubsgjusVolpMlTsRpHJ0aSAXCOGBkvAf4A+PjGF3Ta7axeeXaLQYOiUXp06ZwukxsbBxm3wVoxVyljOnTUtaM/q6auK2LavoGLqhP757UqkUz7dru3r1HlarW1MJWwQMeTE5IVgAPaKen2T185Geq37AJqng6ceywpgd486yPKMADFuvN+mxX6fx58+YtKlayLK9o2bwp9e1j8+5zbulcAh3vp917qXjRIpQ+veN9Cn1mx86fOCtBubJlmMf6+w4DIKQYZAYgZcKECR3qjE42fvc9de7anVeBUazCJ+WMmjmVySG5xgeOopo1qmttwBBWvmIV7b4S7BYykBYgkHWrl3MvS9FxzrwgGjZ8FD+VWbdk+m9/fz/auG4VZxoT/WQgBcpkwEN/Fupi0ZJlvOmggf2oSeOGohs/YqPku02beb5Rg3ocnOPQQJ14LAG8RBulW8F3aNCIQO7xClYEpHfeeYcfwxPwgAkAcMRGQI5sWahdqyYac94DFnpjENtMABtIlU/LU3VpswEhLRDaIlHCBNS3Zxf23LEBK/H8HTJqPGerKFQgL7Vo0oBfQ3TTN/hFReEPM1YHVyAH+XKVviFLw31etm+gtdI3bDIz2oBAjdI3rOsbkJcAPCCvZ3qSAQf+/n60ZtUy9i6UAE15AisodIsnT58xG1ICZkvqxcvle9aVLcYdeAB6V+269fmYRYsUpiWL5tsmZp94HvZgYV4FCNgTwMMdFtu5UNGS2lg/7dhK6dKl1c7leVEoh151t2a0d3f9CvAAKXmePNU3wHwFgCXsg00b1qOihQvwSXGOEBfQj5BGDOrN9RHko5u+oewbvmPf2F3Y5uCA+0yf0rVqRX7sTw92EO0AekAbHF0BHvTgCNHf6lH+7UIfpW/YJKf0DfsdpOwbyr5hvxvCJrf3wGFavHwNYQ+iQ5sWnHVJjAzwwbgpM53sCeEJeMDc3thc0M/X9lOwJn1SgAe9RNi5Fa9Lg24eFYWG3QETyQ9os5crUJPVrddAAxQA9FCzRlVKnSoVp8sbOTpQMyRPmzKRUdzZ0MBmgAdvxpNfouAZ179vL8rNPPkuM6+9qdNmaLR9uCYZ8CDHX8ZLX+dO7Slzpkx069Yt5t03jl8/+gwbMpAaNvgcWYfY3pirR/eulDdvHvaD8YJWrV6rvSRmzBBAW7d8pxlIeWcLH5EBeJBpwrFEgFI+KVeW/n75kjZ9v4WDWlCOcBbwjkyVKiVOVVISUBJwIYE9+w/RkhVrtRZmzA5DGaoyTpzYJLww0QGbFpkypGf01U94Ocrq1KxCFcraNnhx7m16iDEvXKa7jH1An+IzQEbmDH6UPOlH+irm/fwfnf/jGv3373+UPl0qp3qzAneGgQJ5bOFyzPpH5fLbd+/T4yfPyC9NcooX15nZ4/nzv+jchUt08/Zdp8v8gN0TmQLSUZqUyZzqPC2IavqGuD48iwCUvM3ks2LVarp8+Qqv8vf3o00snEGcN5t6VgEPeGY3+aIhZc2ShQETf6VFi5dpnvauDLtWn/URCXiQN9atro8Lz+BDBpqaUREbdHNgwkC93rAP2mbQNyPpgRT79x+kxk1b8DroS9t+2MTzrj5kQIB+Llf9YLyHZ6FIHTu04+HVrl3/k1Yzve3osV94FcKZwOMSCcwQdT6z67bQET+rW4vrQfsPHNSYzdB2/tyZVLqUzdAfEhJCFSvX0PReUGHXqlmDhwjZf+CQFuMa/ZBkwANCq1WtXttWwT7BYFKiRDGKHSsW7dm3nwLH2dkIRFxvrbHKhKkEbgXfpoHDbYCHscNs94SYILwBD/CgHDluCt9QgN6QjTHnPXn6lHtqYFMhVcrk1LNrB4eQF8+fv2Bxs4exEHovuXEjS6aMnM0Jxgv0AbiwzzedOYAD1xFd9Q3xHUWVoxnQAev3lA1L6RvWv3XZviF6KX2DyGwDQukbxmGtxL2jP1b4tKpmFwMgsk7tmhQQkJ6yZ8vKm3br3pPWrd/I89ARWjCgaVYGrLx5K5imTJ1OsGshycxk8j1rZpNDH3fggZfMtpM5W2405akbC89aunRJevzoMdezBagSla70Yj14FO3l6wJ7RIvmTXjorePHTxJAotCPkKDbwEFJJHdrRjt3168AD0Kanh290TfWb/qBtmzbyScC9XWSxB/RyTNnCfG1kWpUrchDfvET9hFd9Q1l34h8+4aVcBTiPvT2KIfF8GYM+bdL9Ff6htI3xL2Ao7JvKPuGfD+ERR7hqsZNmklXma0LCWG1kyVNQvdC7tNtBlAVZT27ttfC2IY34IFPavDhyubiq/sp+stQgAe9RN6cW/G6NOnqtji07A6YQH5Au3q5Cg4Opqo16movMkaLa9SwPjckCw8pM8AD+no6HiiCazPD9KlTp42mpgL582kGbRnwcPXqNapTr6HLdeNFdOGCuQ7oe3lzxWhCbD6sWbnUcngPeYzIADxg/oOHDlPDxs3kpTjkcU2rVyxRMaMdpKJOlATMJSA2Rcxb2GoCRwyguOz/FxIUjaDFKxwojbHh8XmdGgTvzLBM2Ii/z7w//2YMAzHfe48SxIvLgBbmjAs3b9+jkAdPGI1lfEoQ3zFEg5V1mRkGojPbA9gbrt4IptjMsz2jvzlIBKEtQu4/IiinoJYF8CTxR3aPLyvyddcmKukb8Pjfum274SXhWQSveZlNQH4mm4W0qFG9Km3YaLypjuf8yuVLKHbsWA5zyuM6VLw50T/rIxLwgCV4uj6ja0CZDP48uG8XJU+e3KypQ7lMfYwKeeMf542+aE4HDtpoQPXhJORQY2grmBWQN0uCqQGG9N27tpk1MyyfOn0mjQ2cYFiHQoAuFgbNcbh2eGLWrP0510nNOspxqEWb08zwW71mXXHqcMQ9U7BAfg1QKwMe0FAGgjh0lE7GB45mwOJqUonKhrUEgm/foQHDxhoyK63/bgtt+XEXVa5YjmpUqahNDS/79l17cda46RNGauXILF+9gXYxGuja1StzekmHSoOTW2z+SdPm0H3G6iCnbFkyUduWTRzADqIeHsFzgpZwPUKU4ZjePx21b91M0zNEXXTWN8Q1+vLRDOzgKdBBXKPSN4Qk3B9l+4bSN+zyMgM8oIXSN+xycpebMGkKTZw01aEZ7GBDBw/gZa9evaJWrb+iPXv3ObSRT6CXLl0cxEBqtvct+Z51ZZOzAh4AgwQACEZJtpl5CniADatNuw4ENiqzVA+hZ4cPcXAIsrJmd9evAA9mEndf7o2+AUapFWs2cEClmAGepLWqVTaMFx6d9Q1l34hc+4Yrlgdxb3p7DC27A+aVf7uUvmH/JpS+YZeFsm/YZKHsG/Z7IixycHhYs2EzHTzCwigzdiaREKYzf95c1PCz2txJQpRf+P0PCpw80yFspqiDTQS2kd7dO1G6tHYW6FNnfqWps+ZT5owB1K1jG9Hco6Mrm4uv76eIC1WAByEJ3TE8vS5Dy+6Ape5lHmVNmrXiq3b1coUGCAEBNocft+/g7cUHDNNdu3SgalWrOIS6WLpsBfXpN5A3mzp5PCEOtZw8He85Y1joy8YTiHmMBUaCbxgDA2jkv+pgQ5LLgAe0efDwIQ0ZOoK2/bhD8/REOQz+tWpWI4S6QDxnfZo7fwGPDS7Q6qIeL3Id27ej1KnNlT/R1ugoAx4KF/qYli1ZwJs9f/6csufKz/MyfbI8RoNGTenQ4SO86OJvZxzkLeJz47qwoWGUsDEBT8g9e/drIBC0L8U8DMFwgQ0LlZQElATCXwIwXN9/8IADraCURHbiD/Fb9ygO2xBOlSJJqJZjZuQH00N0DHEB2YU8eEQJGaAkTcqkoZJdaDr7ur4hGwSgbxQqVJAGDh7mAGSEAXhAv95OVP7y5vmKZYvo44I2itXRY8fx5zTktpqBEK9du07DRozWnm8oh/FhYP8+DhvdKBfJk2f9hd8vUsVKto1oOTxUeD3XsUZP1ieuSX8U3oiu9AN9H5wDbIqQIGBIwHcDamZZX4JeBeM3kv4l9uo1Bjj9zAY4bfJFIxo0oC9vZ/bxgP0e5itYlFfDM2bEsMFmTU3Lly1fSdt37HQwxkNPLF+2NPVjzGAAI+gTgLHzFyziGxOCYQTtSjK9qGqVSk66q+i/e89eDiQRfVBesGB+GjygH9ez8L0h6QEPKMP/BbA5nDl7DqdaAstE1y4dOYhXK1SZaC0BGCiusN8tsHz4pUvDwRTuLhjAh+t/3uBGDH+/dPSeFJ/dqG901jeMrtcXyo6eOOsAbMWavAU6yNej9A1ZGuZ5pW8UpwXzZzsJyJUdAY2VvuEkMsMChKVYsHAxLVm6QguDKuuE6ISQq6PHjtdCioqBoF+0bd2SmjX9wiEcllWbnBXwAGiFZ8ycw79P2Y7Vhs3boH49Kl3WBuTTAx5ktiwjhgdcA+xxCDUL8KZgz0I59JcSxYvRl62aO9inUGdlze6uHyxeWB/SoQO7mSej/X0LumqGzDl4nWxb4wXqQ5OAp/oG7iN4ZiIEWELGTJk6ZQr2DhBTG88oE531DWXfMPrGw78sPFkeQsvugKtX+obSN1z9L1D2DZt+oOwbru6S0NeBCfLuvRAWKi0hfRjX2d4V+hl8b4SI1DcU4MHF9z9vVxAFsb+wTBObT6C8/nnCckjLY+EF7hZjfGA6MCVPllRDplseQNfQ0/HwUnPj5k3msRyTkrH53333Xd2I5qeIEX7//n1KkSKFRu1i3tpm7L977x49ZB5YQOAnT57M6SXOVX9frrv+558U490YlJK9vKikJKAk8PZKAA/wG8Eh/LctdcoknA0itNIw84YIC4N/aNcWHv2D74TQE7Zx9VGCeJQqeeLwmMLSmL6sb+gNAm3b2MCWjxjNLlifkiRJzJT0RJauUzTSAx7y58vL48fduXuXED4rZYrkhpvcor84Qq/w5Wd9aNYH+ebJX4hfat06tQiMBZ4mMCHIxmW5P3Q4JCMwAdb9gOlPiRkdrrsEj8GWX7blzQLHjKTatWq462JaDwAKQp4liB+f31emDXUV99iL4lMWWiANo/AFE4u7BGMw+jx+/JiSMhpB4anprp+ohz4K6kFsWCOU2PuMKUYlJYHoLAG7vvEu2zxJGib6hi/JKyJ0H6VvuP/Glb7hXkZmLZS+YSYZ4/IXL/7iFbFive/AaiBaI8QE7GYvmDE6ceLElvQh0TcsjsG3bxPWkII5uMSM6Xqz2tP54Kzz542bzBswjdJfPBWeah/uErDrGzGYvqHsG94I3Ff0jfAAPYQF2AEyVfqGN3eWrY/SNzyTnbJveCYv1VpJIKwkoAAPbiQZlpsQYRHKws1yVbWSgJKAkoCSQDSXAEBrt+6GsA23R/TeezEoRbLEFCuM2SbCy8vRF78ahARB6Iq4cWJTymQfhbksrV6zr+obZgYBq9dl1M4I8GDU7m0uAxNBsxatuQj0DFi+JJcxzBNy2oxZfEk7tm12CGniS+tUa1ESUBLwXAIRoW94vqqw7QGwA3QefQoPdiulb+il7Hiu9A1HeUTUmdI3IkrSah4lASUBMwlEhL6h7Btm0g+/8rAEPaRr1Yr82F9YJKVvhIUUPR9D6Ruey0z1UBJQEvBOAgrwYEFuYbEJEZnMDhYuUTVRElASUBJQEvBxCfzD4n09ePSU7t5/SK9f/UOxYv2PkiVO5BDjKywvwYgCMroyPdwNeUgPGbPAO+zfRwnjMcaHDw1jsYelfI3G8kV9QxkEjL6p8C8bP3EyTZo8jU+07YdNlDFDQPhP6sUMItYnmCJOn/jZ0FPSi2FVFyUBJYFIlEBE6xuRdalGeg5CeAHsEF5J6RvmklX6hrlswrNG6RvhKV01tpKAkoArCUS0vmH03Ff2DVffUOjrwgL0EFbMDuJqlL4hJBGxR6VvRKy81WxKAm+zBBTgwYNv35uNCMXq4IGAVVMlASUBJQElAQcJhDx4TK9evabnLO7s06cviO3H83BAiVgIhoTxP3RoGx4nb5NRACwP95m8//r7JZdzbEZTHyfO+/Q+o5KNEePdCJG3+A59Sd9QBgHxrUTssV6DxvTzz8d4yIlTx494FAYsolYKSuhsOfPy6SpX+pSmTh4fUVOreZQElATCWAKRrW+E8eW4HS4y9Rulbxh/PUrfMJZLeJcqfSO8JazGVxJQEpAlENn6RmQ+/2U5RETeV/SNh7/8QlfnzCEcPUlhyeogz6v0DVkaEZdX+kbEyVrNpCTwtktAAR48vAOOXz5Bx6+coKBdQaY98/jnoTx+eSgv/lheJSUBJQElASUBJQFvJHD6/GXWjcWwYEiH2CzObNwPYlO8Dz+IUC9qI7rn6OoJge8IhoEnT5/Tc7aZ+++/kL1N/jmz+KM6wpKv6BuPGfPF1atX+XUnTZaUkiVNGmoZBLO4yHfv3uPjBASkZ8CSOKEeM7oNcP78bwzs9Ipis1ArGQJ8k90B8aV/++0CF32SJIkpOYs1rZKSgJJA1JSAL+gbESU5X9FruL7xjOkbz5W+ge9e6RsR9T/AcR6lbzjKQ50pCSgJhK8EfEHf8BU9IHwlbR/dV+wbAviAlZmBHxLky0fx2V9Yha+wS8GeU/qGXRYRmVP6RkRKW82lJPB2S0ABHkL5/WNDQk4K4CBLQ+WVBJQElASUBLyVwFNmBL90PZiSJEpA8ePFjVCQg37Nb5tRQFz/S8aucfXPWwS2h4z+qURxpByVvhEpYleTKgkoCSgJRHsJ+JK+Ed7C9lV9Rukb4f3Nq/GVBJQElASUBCJbAr6kb/iqPhDe35Ev6Rt60APADiopCSgJKAkoCSgJhFYC4Q14+D8AAAD//zSCsDEAAEAASURBVOzdB3wU1fbA8UOHUBJ6kSABRRALKDZs2EV99t77s/e/ir2Xp4iKBSv23vWJ5dkVu2JBwUIvgRASIPT2v2fiLLOTTdg2u1N+44dkd3bKvd87MTdnztxbb9GSZavFg+XPiVOlVfMC6V7cyYOjc0gEEEAAAQTyKzC3cr5MK50jXTq2k+YFzfJbGHP2isp58t2YsXHl6NG9WHqaf2Fe6G+EuXWpGwIIIICA3/obXrbI+x+Pjju8n/ox9DfimoY3CCCAAAIhE/Bbf4P4BvdTQvYjRnUQQAABBIyA1/2NeiQ8cJ0hgAACCCCQuoDXv6BTL5HI35OmygTzz7kM6NdXWhcVOleF6jU3IELVnFQGAQQQQMAl4Mf+hquIWXmrSZt6c8Ne/JTsoGWiv2G3DN8RQAABBMIo4Mf+BvGNMF5p1AkBBBBAIMoCXvc3SHiI8tVF3RFAAAEE0hbw+hd0ugVLFBTYbdDAdA/n+/24AeH7JqKACCCAAAIZCPi1v5FBlWrs6k520ERNTdj000J/w0+tQVkQQAABBLIt4Nf+BvGNbLc0x0MAAQQQQCB/Al73N0h4yF/bcmYEEEAAgQALeP0LOhMad1DAjzcOMqmfc19uQDg1eI0AAgggEDYBP/c3smEdlD4L/Y1stDbHQAABBBDwq4Cf+xtB6Stko23pb2RDkWMggAACCPhVwOv+BgkPfm15yoUAAggg4GsBr39BZ1p5d1DAb0NDZ1o/e38CArYE3xFAAAEEwijg9/5GJuaJ5uf261Rc9DcyaWn2RQABBBDwu4Df+xvEN/x+BVE+BBBAAAEE1i7gdX+DhIe1twFbIIAAAgggUEPA61/QNU6Yxgr3ENF+vYmQRtViu3ADIkbBCwQQQACBEAoEob+RLnuQ+in0N9JtZfZDAAEEEAiCQBD6G0HqN6Tb5vQ30pVjPwQQQACBIAh43d8g4SEIVwFlRAABBBDwnYDXv6CzUWH3k5NhHOWBgEA2rhSOgQACCCDgV4Eg9DfSsQvak5r0N9JpZfZBAAEEEAiKQBD6G8Q3gnI1UU4EEEAAAQQSC3jd3yDhIbE7axFAAAEEEKhTwOtf0HWePIUPg3ZDIYWqWZtyAyJVMbZHAAEEEAiSQFD6G6mavv/x6NgurYsKRUeh8vNCf8PPrUPZEEAAAQQyFQhKf4P4RqYtzf4IIIAAAgjkT8Dr/gYJD/lrW86MAAIIIBBgAa9/QWeTxnlTQY+726CB2Tx8Xo/FDYi88nNyBBBAAAGPBYLU30iWIohDUtPfSLZ12Q4BBBBAIIgCQepvEN8I4hVGmRFAAAEEEBDxur9BwgNXGQIIIIAAAmkIeP0LOo0i1bpLmJ+C4AZErc3OBwgggAACIRAIUn8jGW73cNRBGN1B60V/I5nWZRsEEEAAgaAKBKm/QXwjqFcZ5UYAAQQQiLqA1/0NEh6ifoVRfwQQQACBtAS8/gWdVqHq2CmsT0FwA6KORucjBBBAAIHACwStv7E28CCO7qB1or+xtpblcwQQQACBIAsErb9BfCPIVxtlRwABBBCIqoDX/Q0SHqJ6ZVFvBBBAAIGMBLz+BZ1R4RLsHNanILgBkaCxWYUAAgggEBqBoPU36oJ3j+7Qo3ux9DT/grDQ3whCK1FGBBBAAIF0BYLW3yC+kW5Lsx8CCCCAAAL5E/C6v0HCQ/7aljMjgAACCARYwOtf0F7QuIMCuw0a6MVpcnpMbkDklJuTIYAAAgjkWCCI/Y3aiNyjOwSpH0J/o7ZWZT0CCCCAQBgEgtjfIL4RhiuPOiCAAAIIREnA6/4GCQ9RupqoKwIIIIBA1gS8/gWdtYI6DuQOCATpyUpHNeJecgMijoM3CCCAAAIhEwhif6O2JnAOP926qFAG9Otb26a+W09/w3dNQoEQQAABBLIoEMT+BvGNLF4AHAoBBBBAAIEcCHjd3yDhIQeNyCkQQAABBMIn4PUvaK/EnDcbSHjwSpnjIoAAAgggkB2BoPY33LV3T2ehyQ6a9BCUhYSHoLQU5UQAAQQQSEcgqP0N4hvptDb7IIAAAgggkB8Br/sbniU8/D1pmhQ0ayo9unXOjxxnRQABBBBAwEOBOXPnyYzZ5bJOp/bW7zsPT5XVQ7ufggjScNKJIP4y/Y3m9DcS0bAOAQQQQCAEAkHtb7jpgzydhdaF/oa7RXmPAAIIIBAmgaD2N8IW3+B+Sph+qqgLAggggIBbwOv+hmcJD5Onlcrq1aulz3rd3HXiPQIIIIAAAoEXmF46R8or58u6XTtL40YNA1Mfd0Ag6KM80N8IzKVHQRFAAAEE0hAIan/DXVXnE5hBm85C60J/w92ivEcAAQQQCJNAUPsbxDfCdBVSFwQQQACBsAt43d/wLOFh9pwKmbegStbvvo40a9ok7O1E/RBAAAEEIiYwfsJUWblylZR06xK4mjtvOgQ94YH+RuAuPwqMAAIIIJCCQJD7G3Y1gz6dhdaD/obdmnxHAAEEEAijQJD7G8Q3wnhFUicEEEAAgTAKeN3f8CzhYeGiJTJjVpm0LWplhvtuF8a2oU4IIIAAAhEVmL9goUyaPkuKWrWU9m2LAqfgfgoiyNNa0N8I3OVHgRFAAAEEkhQIen/DrmbQp7PQetDfsFuT7wgggAACYRMIen+D+EbYrkjqgwACCCAQRoFc9Dc8S3jQBpk2Y7YsXrpUepqnX5sXNA1jG1EnBBBAAIEICvw5cbr1+23drp3MdBaNAicQpoCA4tPfCNwlSIERQAABBJIQCHp/w66iM+EhiNNZ2PWgv2FL8B0BBBBAIEwCQe9vEN8I09VIXRBAAAEEwiqQi/6GpwkPixcvlWmls6VJ40bSo7izNArQHOdhvaioFwIIIIBAZgJTZ5ZJxbwF0saMYNS2dWFmB8vT3mEYWtpJR3/DqcFrBBBAAIEwCIShv2G3Q1iGmqa/Ybco3xFAAAEEwiIQhv4G8Y2wXI3UAwEEEEAgrAK56m94mvCgjVNpbgqVza2UJuYJ2K6d2zPSQ1ivWOqFAAIIhFxg5cqVMr20XCoXVEmL5gXSuUPbQNfYefNhQL++ok9cBnmhvxHk1qPsCCCAAAK2QNj6G1qvMPU56G/YVyrfEUAAAQSCLBC2/kaY+hp6XdHfCPJPF2VHAAEEELAFct3f8DzhQStm/5LW1/pEbJvCllLQrIm+ZUEAAQQQQMDXAsuWr5DK+VUmeW+e6C/pVi2aS8f2bXxd5mQK5wwI9OheLD3Nv6Av9DeC3oKUHwEEEIiuQFj7G2F76lKvUPob0f05peYIIIBA0AXC2t8gvhH0K5PyI4AAAgiESSBf/Y2cJDxoQy1eslTKK+ZZ3/V9wwYNpLGZ6qJ+vXr6lgUBBBBAAAFfCaxevVqWr1gpy5Yvt8qlv7c0aa+wVQtflTPdwoQxIKAW9DfSvSLYDwEEEEAgHwJh72+EMeFBrxP6G/n4aeGcCCCAAALpCoS9v0F8I90rg/0QQAABBBDInkC++xs5S3iwyRYtXiILFy02AYJlsmLFClEAFgQQQAABBPwnUE8aNqwvTRo3loKCptbIDv4rY/ol+m7MWNGbELqEZYQHpwb9DacGrxFAAAEE/CsQ7v6GO+Fht0ED/dsUaZSM/kYaaOyCAAIIIJAHgXD3N4hv5OGS4pQIIIAAAgjUEMhvfyPnCQ816s8KBBBAAAEEEMi5gDMg0LqoUAb065vzMnBCBBBAAAEEEAi3wN+TpsoE889ewpbwYNeL7wgggAACCCCQPwHiG/mz58wIIIAAAgj4RYCEB7+0BOVAAAEEEEAghwLOGxAkPOQQnlMhgAACCCAQIQH6GxFqbKqKAAIIIIBAngTob+QJntMigAACCCDgIwESHnzUGBQFAQQQQACBXAkQEMiVNOdBAAEEEEAgugL0N6Lb9tQcAQQQQACBXAnQ38iVNOdBAAEEEEDAvwIkPPi3bSgZAggggAACngkQEPCMlgMjgAACCCCAwD8C9De4FBBAAAEEEEDAawH6G14Lc3wEEEAAAQT8L0DCg//biBIigAACCCCQdQECAlkn5YAIIIAAAggg4BKgv+EC4S0CCCCAAAIIZF2A/kbWSTkgAggggAACgRMg4SFwTUaBEUAAAQQQyFyAgEDmhhwBAQQQQAABBOoWoL9Rtw+fIoAAAggggEDmAvQ3MjfkCAgggAACCARdgISHoLcg5UcAAQQQQCANAQICaaCxCwIIIIAAAgikJEB/IyUuNkYAAQQQQACBNATob6SBxi4IIIAAAgiETICEh5A1KNVBAAEEEEAgGQECAskosQ0CCCCAAAIIZCJAfyMTPfZFAAEEEEAAgWQE6G8ko8Q2CCCAAAIIhFuAhIdwty+1QwABBBBAIKEAAYGELKxEAAEEEEAAgSwK0N/IIiaHQgABBBBAAIGEAvQ3ErKwEgEEEEAAgUgJkPAQqeamsggggAACCFQLEBDgSkAAAQQQQAABrwXob3gtzPERQAABBBBAgP4G1wACCCCAAAIIkPDANYAAAggggEAEBQgIRLDRqTICCCCAAAI5FqC/kWNwTocAAggggEAEBehvRLDRqTICCCCAAAIuARIeXCC8RQABBBBAIAoCBASi0MrUEQEEEEAAgfwK0N/Irz9nRwABBBBAIAoC9Dei0MrUEQEEEEAAgboFSHio24dPEUAAAQQQCKUAAYFQNiuVQgABBBBAwFcC9Dd81RwUBgEEEEAAgVAK0N8IZbNSKQQQQAABBFISIOEhJS42RgABBBBAIBwCBATC0Y7UAgEEEEAAAT8L0N/wc+tQNgQQQAABBMIhQH8jHO1ILRBAAAEEEMhEgISHTPTYFwEEEEAAgYAKEBAIaMNRbAQQQAABBAIkQH8jQI1FURFAAAEEEAioAP2NgDYcxUYAAQQQQCCLAiQ8ZBGTQyGAAAIIIBAUAQICQWkpyokAAggggEBwBehvBLftKDkCCCCAAAJBEaC/EZSWopwIIIAAAgh4J0DCg3e2HBkBBBBAAAHfChAQ8G3TUDAEEEAAAQRCI0B/IzRNSUUQQAABBBDwrQD9Dd82DQVDAAEEEEAgZwIkPOSMmhMhgAACCCDgHwECAv5pC0qCAAIIIIBAWAXob4S1ZakXAggggAAC/hGgv+GftqAkCCCAAAII5EuAhId8yXNeBBBAAAEE8ihAQCCP+JwaAQQQQACBiAjQ34hIQ1NNBBBAAAEE8ihAfyOP+JwaAQQQQAABnwiQ8OCThqAYCCCAAAII5FKAgEAutTkXAggggAAC0RSgvxHNdqfWCCCAAAII5FKA/kYutTkXAggggAAC/hQg4cGf7UKpEEAAAQQQ8FSAgICnvBwcAQQQQAABBIwA/Q0uAwQQQAABBBDwWoD+htfCHB8BBBBAAAH/C5Dw4P82ooQIIIAAAghkXYCAQNZJOSACCCCAAAIIuATob7hAeIsAAggggAACWRegv5F1Ug6IAAIIIIBA4ARIeAhck1FgBBBAAAEEMhcgIJC5IUdAAAEEEEAAgboF6G/U7cOnCCCAAAIIIJC5AP2NzA05AgIIIIAAAkEXIOEh6C1I+RFAAAEEEEhDgIBAGmjsggACCCCAAAIpCdDfSImLjRFAAAEEEEAgDQH6G2mgsQsCCCCAAAIhEyDhIWQNSnUQQAABBBBIRoCAQDJKbIMAAggggAACmQjQ38hEj30RQAABBBBAIBkB+hvJKLENAggggAAC4RYg4SHc7UvtEEAAAQQQSChAQCAhCysRQAABBBBAIIsC9DeyiMmhEEAAAQQQQCChAP2NhCysRAABBBBAIFICJDxEqrmpLAIIIIAAAtUCBAS4EhBAAAEEEEDAawH6G14Lc3wEEEAAAQQQoL/BNYAAAggggAACJDxwDSCAAAIIIBBBAQICEWx0qowAAggggECOBehv5Bic0yGAAAIIIBBBAfobEWx0qowAAggggIBLgIQHFwhvEUAAAQQQiIIAAYEotDJ1RAABBBBAIL8C9Dfy68/ZEUAAAQQQiIIA/Y0otDJ1RAABBBBAoG4BEh7q9uFTBBBAAAEEQilAQCCUzUqlEEAAAQQQ8JUA/Q1fNQeFQQABBBBAIJQC9DdC2axUCgEEEEAAgZQESHhIiYuNEUAAAQQQCIcAAYFwtCO1QAABBBBAwM8C9Df83DqUDQEEEEAAgXAI0N8IRztSCwQQQAABBDIRIOEhEz32RQABBBBAIKACBAQC2nAUGwEEEEAAgQAJ0N8IUGNRVAQQQAABBAIqQH8joA1HsRFAAAEEEMiiAAkPWcTkUAgggAACCARFgIBAUFqKciKAAAIIIBBcAfobwW07So4AAggggEBQBOhvBKWlKCcCCCCAAALeCZDw4J0tR0YAAQQQQMC3AgQEfNs0FAwBBBBAAIHQCNDfCE1TUhEEEEAAAQR8K0B/w7dNQ8EQQAABBBDImQAJDzmj5kQIIIAAAgj4R4CAgH/agpIggAACCCAQVgH6G2FtWeqFAAIIIICAfwTob/inLSgJAggggAAC+RIg4SFf8pwXAQQQQACBPAoQEMgjPqdGAAEEEEAgIgL0NyLS0FQTAQQQQACBPArQ38gjPqdGAAEEEEDAJwIkPPikISgGAggggAACuRQgIJBLbc6FAAIIIIBANAXob0Sz3ak1AggggAACuRSgv5FLbc6FAAIIIICAPwVIePBnu1AqBBBAAAEEPBUgIOApLwdHAAEEEEAAASNAf4PLAAEEEEAAAQS8FqC/4bUwx0cAAQQQQMD/AiQ8+L+NKCECCCCAAAJZFyAgkHVSDogAAggggAACLgH6Gy4Q3iKAAAIIIIBA1gXob2SdlAMigAACCCAQOAESHgLXZBQYAQQQQACBzAUICGRuyBEQQAABBBBAoG4B+ht1+/ApAggggAACCGQuQH8jc0OOgAACCCCAQNAFSHgIegtSfgQQQAABBNIQICCQBhq7IIAAAggggEBKAvQ3UuJiYwQQQAABBBBIQ4D+Rhpo7IIAAggggEDIBEh4CFmDUh0EEEAAAQSSESAgkIwS2yCAAAIIIIBAJgL0NzLRY18EEEAAAQQQSEaA/kYySmyDAAIIIIBAuAVIeAh3+1I7BBBAAAEEEgoQEEjIwkoEEEAAAQQQyKIA/Y0sYnIoBBBAAAEEEEgoQH8jIQsrEUAAAQQQiJQACQ+Ram4qiwACCCCAQLUAAQGuBAQQQAABBBDwWoD+htfCHB8BBBBAAAEE6G9wDSCAAAIIIIAACQ9cAwgggAACCERQgIBABBudKiOAAAIIIJBjAfobOQbndAgggAACCERQgP5GBBudKiOAAAIIIOASIOHBBcJbBBBAAAEEoiBAQCAKrUwdEUAAAQQQyK8A/Y38+nN2BBBAAAEEoiBAfyMKrUwdEUAAAQQQqFuAhIe6ffgUAQQQQACBUAoQEAhls1IpBBBAAAEEfCVAf8NXzUFhEEAAAQQQCKUA/Y1QNiuVQgABBBBAICUBEh5S4mJjBBBAAAEEwiFAQCAc7UgtEEAAAQQQ8LMA/Q0/tw5lQwABBBBAIBwC9DfC0Y7UAgEEEEAAgUwESHjIRI99EUAAAQQQCKgAAYGANhzFRgABBBBAIEAC9DcC1FgUFQEEEEAAgYAK0N8IaMNRbAQQQAABBLIoQMJDFjE5FAIIIIAAAkERICAQlJainAgggAACCARXgP5GcNuOkiOAAAIIIBAUAfobQWkpyokAAggggIB3AiQ8eGfLkRFAAAEEEPCtAAEB3zYNBUMAAQQQQCA0AvQ3QtOUVAQBBBBAAAHfCtDf8G3TUDAEEEAAAQRyJkDCQ86oORECCCCAAAL+ESAg4J+2oCQIIIAAAgiEVYD+RlhblnohgAACCCDgHwH6G/5pC0qCAAIIIIBAvgRIeMiXPOdFAAEEEEAgjwIEBPKIz6kRQAABBBCIiAD9jYg0NNVEAAEEEEAgjwL0N/KIz6kRQAABBBDwiQAJDz5pCIqBAAIIIIBALgUICORSm3MhgAACCCAQTQH6G9Fsd2qNAAIIIIBALgXob+RSm3MhgAACCCDgTwESHvzZLpQKAQQQQAABTwUICHjKy8ERQAABBBBAwAjQ3+AyQAABBBBAAAGvBehveC3M8RFAAAEEEPC/AAkP/m8jSogAAggggEDWBQgIZJ2UAyKAAAIIIICAS4D+hguEtwgggAACCCCQdQH6G1kn5YAIIIAAAggEToCEh8A1GQVGAAEEEEAgcwECApkbcgQEEEAAAQQQqFuA/kbdPnyKAAIIIIAAApkL0N/I3JAjIIAAAgggEHQBEh6C3oKUHwEEEEAAgTQECAikgcYuCCCAAAIIIJCSAP2NlLjYGAEEEEAAAQTSEKC/kQYauyCAAAIIIBAyARIeQtagVAcBBBBAAIFkBAgIJKPENggggAACCCCQiQD9jUz02BcBBBBAAAEEkhGgv5GMEtsggAACCCAQbgESHsLdvtQOAQQQQACBhAIEBBKysBIBBBBAAAEEsihAfyOLmBwKAQQQQAABBBIK0N9IyMJKBBBAAAEEIiVAwkOkmpvKIoAAAgggUC1AQIArAQEEEEAAAQS8FqC/4bUwx0cAAQQQQAAB+htcAwgggAACCCBAwgPXAAIIIIAAAhEUICAQwUanyggggAACCORYgP5GjsE5HQIIIIAAAhEUoL8RwUanyggggAACCLgESHhwgfAWAQQQQACBKAgQEIhCK1NHBBBAAAEE8itAfyO//pwdAQQQQACBKAjQ34hCK1NHBBBAAAEE6hYg4aFuHz5FAAEEEEAglAIEBELZrFQKAQQQQAABXwnQ3/BVc1AYBBBAAAEEQilAfyOUzUqlEEAAAQQQSEmAhIeUuNgYAQQQQACBcAgQEAhHO1ILBBBAAAEE/CxAf8PPrUPZEEAAAQQQCIcA/Y1wtCO1QAABBBBAIBMBEh4y0WNfBBBAAAEEAipAQCCgDUexEUAAAQQQCJAA/Y0ANRZFRQABBBBAIKAC9DcC2nAUGwEEEEAAgSwKkPCQRUwOhQACCCCAQFAECAgEpaUoJwIIIIAAAsEVoL8R3Laj5AgggAACCARFgP5GUFqKciKAAAIIIOCdAAkP3tlyZAQQQAABBHwrQEDAt01DwRBAAAEEEAiNAP2N0DQlFUEAAQQQQMC3AvQ3fNs0FAwBBBBAAIGcCZDwkDNqToQAAggggIB/BAgI+KctKAkCCCCAAAJhFaC/EdaWpV4IIIAAAgj4R4D+hn/agpIggAACCCCQLwESHvIlz3kRQAABBBDIowABgTzic2oEEEAAAQQiIkB/IyINTTURQAABBBDIowD9jTzic2oEEEAAAQR8IkDCg08agmIggAACCCCQSwECArnU5lwIIIAAAghEU4D+RjTbnVojgAACCCCQSwH6G7nU5lwIIIAAAgj4U4CEB3+2C6VCAAEEEEDAUwECAp7ycnAEEEAAAQQQMAL0N7gMEEAAAQQQQMBrAfobXgtzfAQQQAABBPwvQMKD/9uIEiKAAAIIIJB1AQICWSflgAgggAACCCDgEqC/4QLhLQIIIIAAAghkXYD+RtZJOSACCCCAAAKBEyDhIXBNRoERQAABBBDIXICAQOaGHAEBBBBAAAEE6hagv1G3D58igAACCCCAQOYC9DcyN+QICCCAAAIIBF2AhIegtyDlRwABBBBAIA0BAgJpoLELAggggAACCKQkQH8jJS42RgABBBBAAIE0BOhvpIHGLggggAACCIRMgISHkDUo1UEAAQQQQCAZAQICySixDQIIIIAAAghkIkB/IxM99kUAAQQQQACBZATobySjxDYIIIAAAgiEW4CEh3C3L7VDAAEEEEAgoQABgYQsrEQAAQQQQACBLArQ38giJodCAAEEEEAAgYQC9DcSsrASAQQQQACBSAmQ8BCp5qayCCCAAAIIVAsQEOBKQAABBBBAAAGvBehveC3M8RFAAAEEEECA/gbXAAIIIIAAAgiQ8MA1gAACCCCAQAQFCAhEsNGpMgIIIIAAAjkWoL+RY3BOhwACCCCAQAQF6G9EsNGpMgIIIIAAAi4BEh5cILxFAAEEEEAgCgIEBKLQytQRAQQQQACB/ArQ38ivP2dHAAEEEEAgCgL0N6LQytQRAQQQQACBugVIeKjbh08RQAABBBAIpQABgVA2K5VCAAEEEEDAVwL0N3zVHBQGAQQQQACBUArQ3whls1IpBBBAAAEEUhIg4SElLjZGAAEEEEAgHAIEBMLRjtQCAQQQQAABPwvQ3/Bz61A2BBBAAAEEwiFAfyMc7UgtEEAAAQQQyESAhIdM9NgXAQQQQACBgAoQEAhow1FsBBBAAAEEAiRAfyNAjUVREUAAAQQQCKgA/Y2ANhzFRgABBBBAIIsCJDxkEZNDIYAAAgggEBQBAgJBaSnKiQACCCCAQHAF6G8Et+0oOQIIIIAAAkERoL8RlJainAgggAACCHgnQMKDd7YcGQEEEEAAAd8KEBDwbdNQMAQQQAABBEIjQH8jNE1JRRBAAAEEEPCtAP0N3zYNBUMAAQQQQCBnAiQ85IyaEyGAAAIIIOAfAQIC/mkLSoIAAggggEBYBehvhLVlqRcCCCCAAAL+EaC/4Z+2oCQIIIAAAgjkS4CEh3zJc14EEEAAAQTyKEBAII/4nBoBBBBAAIGICNDfiEhDU00EEEAAAQTyKEB/I4/4nBoBBBBAAAGfCJDw4JOGoBgIIIAAAgjkUoCAQC61ORcCCCCAAALRFKC/Ec12p9YIIIAAAgjkUoD+Ri61ORcCCCCAAAL+FCDhwZ/tQqkQQAABBBDwVICAgKe8HBwBBBBAAAEEjAD9DS4DBBBAAAEEEPBagP6G18IcHwEEEEAAAf8LkPDg/zaihAgggAACCGRdgIBA1kk5IAIIIIAAAgi4BOhvuEB4iwACCCCAAAJZF6C/kXVSDogAAggggEDgBEh4CFyTUWAEEEAAAQQyFyAgkLkhR0AAAQQQQACBugXob9Ttw6cIIIAAAgggkLkA/Y3MDTkCAggggAACQRcg4SHoLUj5EUAAAQQQSEOAgEAaaOyCAAIIIIAAAikJ0N9IiYuNEUAAAQQQQCANAfobaaCxCwIIIIAAAiETIOEhZA1KdRBAAAEEEEhGgIBAMkpsgwACCCCAAAKZCNDfyESPfRFAAAEEEEAgGQH6G8kosQ0CCCCAAALhFiDhIdztS+0QQAABBBBIKEBAICELKxFAAAEEEEAgiwL0N7KIyaEQQAABBBBAIKEA/Y2ELKxEAAEEEEAgUgIkPESquaksAggggAAC1QLOgICu2W3QQGgQQAABBBBAAIGsCnw3ZqxUVM6zjtm6qFAG9Oub1eNzMAQQQAABBBBAgPgG1wACCCCAAAIIkPDANYAAAggggEAEBaISEFi6bJmsWLFSVq9eHcFWpsoIIIAAAv4XqCcNGtSXJo0bSf369f1f3BRLSMJDimBsjgACCCCAAAIpCxDfSJmMHRBAAAEEEPBAIL/xDRIePGhSDokAAggggIDfBfRpS70JYS9hGuFhydJlMm9+lVQtWiyrVq2yq8h3BBBAAAEEfC1Q0KyptGrZXFo2L/B1OVMpHAkPqWixLQIIIIAAAgikI0B8Ix019kEAAQQQQMA7gXzEN0h48K49OTICCCCAAAK+FXAHBHSIaR1qOuhLWXmlVM5fYFWjWdMm0qKgqfXUbL164XtqNuhtRfkRQAABBFRgtSxbvkIWLV4qCxYuskg0MNC+bWtp3Khh4Ine/3h0rA49uhdLT/OPBQEEEEAAAQQQyKYA8Y1sanIsBBBAAAEE0hXIb3yDhId02439EEAAAQQQCLhAmG5C6JQVM2bNMTeMlkhzc6OoY7vW0qJ5s4C3EMVHAAEEEIiSgCY+aOJeeeV8aWCmt+jcsZ1o8l6QF2dfIyzJlUFuD8qOAAIIIIBAWAWcfY6gJ1kS3wjrVUq9EEAAgegI5CO+QcJDdK4vaooAAggggECcQJgCAjNNsoNOYdGudaF06dg2rp68QQABBBBAIEgCFfOqZOrM2VbSQ3GXjtIooCM9hPVpyyBdS5QVAQQQQACBqAgQ34hKS1NPBBBAAIEgCeQyvkHCQ5CuDMqKAAIIIIBAFgXCEhComLdA5sytlDaFLaVr5/ZZFOJQCCCAAAII5EdAf7dNnVlmjVrUpVMwf7eR8JCfa4ezIoAAAgggEEUB4htRbHXqjAACCCAQBIFcxTdIeAjC1UAZEUAAAQQQ8EDguzFjRW9G6NK6qFB0qOmgLatWrZaJU2ZIw4b1ZYMexVKvXr2gVYHyIoAAAgggkFBgmkl4mGsSHzp3aBfIaZrcCQ+7DRqYsJ6sRAABBBBAAAEEMhUgvpGpIPsjgAACCCDgnUAu4hskPHjXfhwZAQQQQAABXwv8PWmqTDD/7CWINyLmza+S2eUVso6Z57xt61Z2VfiOAAIIIIBA4AWWLlsu4ydMNaM8NJMundoFrj5huPEQOHQKjAACCCCAQEQFiG9EtOGpNgIIIIBAIARyEd8g4SEQlwKFRAABBBBAIPsC7icve3Qvlp7mX5CWGbPmyMJFi6Xv+utKgwYNglR0yooAAggggMBaBSZMmSlV5vfcet27BmoUI3cfQ0eR0tGkWBBAAAEEEEAAAS8E3H0P4hteKHNMBBBAAAEE0hfwOr5BwkP6bcOeCCCAAAIIBF7AOc9lEKe1qJ7OooH0Kuka+LagAggggAACCLgFSsvmmpGMKqW4S0dp2qSx+2PfvnffdCDhwbdNRcEQQAABBBAIjQDxjdA0JRVBAAEEEAihgNfxDRIeQnjRUCUEEEAAAQSSFQj6sI9/TZxmzWteUtwp2SqzHQIIIIAAAoERKK+YL9PNaEZdzNRNzQuaBabcTGcRmKaioAgggAACCIRGgPhGaJqSiiCAAAIIhFDA6/gGCQ8hvGioEgIIIIAAAskKuJ/ADNqwj39OnCqtmhdIdxIekm1ytkMAAQQQCJDA3Mr5Mq00WAkP7r4FozsE6IKjqAgggAACCARYwN0HIb4R4Mak6AgggAACoRPwOr5BwkPoLhkqhAACCCCAQGoCQR72kYSH1NqarRFAAAEEgiXgdUDACw33zQYSHrxQ5pgIIIAAAgggkEiA+EYiFdYhgAACCCCQfwGv4xskPOS/jSkBAggggAACeRVwD/sYpKcgSHjI66XDyRFAAAEEPBbwOiDgRfGZzsILVY6JAAIIIIAAAskIEN9IRoltEEAAAQQQyL2A1/ENEh5y36acEQEEEEAAAd8JOJ+CIOHBd81DgRBAAAEEIirgdUAg26zumwyM7pBtYY6HAAIIIIAAAmsTIL6xNiE+RwABBBBAIPcCXsc3SHjIfZtyRgQQQAABBHwn4L5BEZSkB0Z48N2lRIEQQAABBLIo4HVAIItFFfdUFq2LCkUTHlgQQAABBBBAAIFcChDfyKU250IAAQQQQCA5Aa/jGyQ8JNcObIUAAggggEDoBZxPQWhldxs00Pd1JuHB901EARFAAAEEMhDwOiCQQdFq7OqcykI/ZHSHGkSsQAABBBBAAIEcCRDfyBE0p0EAAQQQQCBJAa/jGyQ8JNkQbIYAAggggEDYBYL4FAQJD2G/KqkfAgggEG0BrwMC2dJldIdsSXIcBBBAAAEEEMiGAPGNbChyDAQQQAABBLIn4HV8g4SH7LUVR0IAAQQQQCDwAu6nM/0+ygMJD4G/5KgAAggggEAdAl4HBOo4dUofufsPjO6QEh8bI4AAAggggIAHAu7+CfEND5A5JAIIIIAAAkkKeB3fIOEhyYZgMwQQQAABBKIgELSnIEh4iMJVSR0RQACB6Ap4HRDIhmzQ+g7ZqDPHQAABBBBAAAH/CwStj0J8w//XFCVEAAEEEEhfwOv4BgkP6bcNeyKAAAIIIBBKgSAFBQgIhPISpFIIIIAAAv8IeB0QyBTaPZWFHs/vT09mWmf2RwABBBBAAIHgCBDfCE5bUVIEEEAAgXALeB3fIOEh3NcPtUMAAQQQQCAtgfc/Hh23X4/uxdLT/PPbQsKD31qE8iCAAAIIZFPA64BAJmVNlOzAVBaZiLIvAggggAACCHghQHzDC1WOiQACCCCAQGoCXsc3SHhIrT3YGgEEEEAAgUgIuJ+C0Er7MemBhIdIXI5UEgEEEIisgNcBgUxg3fNi+7GfkEn92BcBBBBAAAEEwiFAfCMc7UgtEEAAAQSCLeB1fIOEh2BfH5QeAQQQQAABzwQSBQX89uQmCQ+eNT8HRgABBBDwgYDXAYF0q0iyQ7py7IcAAggggAAC+RAgvpEPdc6JAAIIIIDAGgGv4xskPKyx5hUCCCCAAAIIuAQSBQX8NDc3CQ+uBuMtAggggECoBLwOCKSD5e4btC4qFE2IZEEAAQQQQAABBPws4O7DaFmJb/i5xSgbAggggECYBLyOb5DwEKarhboggAACCCDggYA7KOCnGxskPHjQ4BwSAQQQQMA3Al4HBFKtqJ/7BKnWhe0RQAABBBBAIHoCfu7LEN+I3vVIjRFAAIEoCXgd3yDhIUpXE3VFAAEEEEAgTQH30NX5THpYtWqVLFq8VJYuWybaUWrUoIH0WX/dNGuW2W4/ThwjP04aYx1kjPner3u/2AFP3On42GteIIAAAgggkI7A8uUr5Pe/p0jzgmbSwvxr2rSJNG7UMJ1DZbyP+waBHtBvU11lXEkOgAACCCCAAAKhFyC+kbiJiW8kdmEtAggggEB2BEh4yI4jR0EAAQQQQACBDAXe/3h03BE06aFn966i33OxLF6yVCrnV0nVwkUiq80Z65l//3zfpHePXBQhdo5HP3pMHjP/klmON4kPJD8kI8U2CCCAAAKJBH4eNyH2+05/72nSQ2HL5tLK/MvVQrJDrqQ5DwIIIIAAAgjkQsAP8Y15Jr6xgPhGLpqbcyCAAAII+ECAhAcfNAJFQAABBBBAAAGRisp5ok9CuBevn+5caUZ0mFNeKQuqTKKDudOjT7m2alFgvjc1T7k2kgYN6ruL5Nn7VBId3IUg8cEtwnsEEEAAgWQEVq1eLTrSgyb+zTe/C+fNX2h2Wy1NmjSRdm0KpZlJgPBycT8Fqefq0b3YJD0We3lajo0AAggggAACCHgmQHxDhPiGZ5cXB0YAAQQQSCBAwkMCFFYhgAACCCCAQP4EcnnjQ2/uzCqba93oadWyQDq0LZKCZk3zUvlzRp4nY8wUFpksJD1kose+CCCAAAIqsGLFSikziYBlFfOskR/at2stRa1aZB2nthsBJDtknZoDIoAAAggggECeBIhvpA9PfCN9O/ZEAAEEoihAwkMUW506I4AAAggg4HOBRENbZ/sGiCY7zCgtE/Ngq3Tu2Ebatc7N1BmJ6LOR7GAf1y9BgVVm5Iyvv/nWTElSJL17b2AXz1ffy8rmyJiffpJttx1oEl2a+apsFAYBBBDIt8DCRUtk6swyKymwbetW5v/nrbJWpES/5/XgXo/qlLUKcCAEEEAAAQQQQCBJgUT9HuIbyeER30jOSbcivpG8FVtWC6xcuVKWLVsuzRwPfv3xx59SNqdctt5qCzPibQOoEAiUAAkPgWouCosAAggggEB0BBIFBVoXFZohrruamy6ZJScsX7FCps2YbT3Fum7XjtZc5fmSzWSYx9rK7IegwNBhd8s9995vFfHhB++TXXbeqbbierp+woSJsu8Bh1jnOOrIw2XIJRdZrysqK2WzAdtYrzUhY9Rbr3lajkwPfshhR8nv48ZLSfd15c3XX870cJ7sX1FRIdsP2s069hGHHSKXX3aJJ+fJ5UGHXH6VvPnW29YpP3x/lHTo0D6Xp+dcCORdQKe6mDitVJYsWSadOrSRli2aZ1ym2n6/a7IDCwIIIIAAAgggEEaB2vo/xDfW3trEN9YYEd9YY+H1qzDGN9RMH0667/4H5N33/ie/jv3NYjz/3LPlnLPPkM8+/0KOPf5ka90pJ50glw252HrNFwSCIkDCQ1BainIigAACCCAQQYFEQQFlyPRpiBmz5sgi8+TqOp3aSZuilnmT9SLZwa7MXSfcKf1L+tlvc/79iKOOk6++/sY675mn/1suuvC8nJdBTzh+/B+y5977Wec+5qgj5Lprr7Je6+gThx95rPVav/z84zfSsmX+roVYQRK8mDdvvvTbfCvrk4MPOkBuu/WmBFvlf9WHH30iJ51ymlWQobfdIgceUO2e/5KlX4Izzz5f3h71jnWAr0Z/Ih07dEj/YOwZaYHVOpyQWerVqxc4h6XmqZ+/Jk0XrcG663SShg3Te9LHq9/pgQOlwAgggAACCCAQSQGv+kLEN7y/nIhvZM+Y+Eb2LNM50g033iKPjHw8bldNdtCkh+H33C933Hm39dkmm2wsr7/yQtx2vEHA7wIkPPi9hSgfAggggAACEReobY7vdEd7WFC1SEpnl5tRIlpKcefET2svWrxEpkwvlTlzK81TrUutYdx0/vIundpLx/Zts9YiO1w1KGvHch+on0l2uNskPeRr+fiTT+Wiiy+TNq2L5MER90p3MzJBPpbaEh506L7TzzxX3v/fB3LuOWfKeeeclY/iJXXOTz79TI4/8VRr21tvvkEOPeSgpPbL9Ua33T5M7hvxoHXaD957W3r0KMl1EbJ+PhIesk4auQN++/0Yee2td2RO+Vyr7l06d5SD9ttbNtqwd94s5lctlKnTZ8ncinmydNkyk8DQUFoXtpR1OneQdm2KEparYl6Vmd5itrQyIzx0bN8m4TZ1rfQqwF/XOfkMAQQQQAABBBDwm0A+4huLTXxjMvGNjC4F4hsZ8cXtTHwjjiPnbzbadIAsXLjQOu8l/3ehDNpxe2nbtq20b99Opk2bLqecdqY1PcotN10nu+6yc87LxwmDI/Dya/+VSVOmWgXed+89ZP2e+Y8BkvAQnOuHkiKAAAIIIBBZAQ0K/D1pmuh395Jq4sPUGbNkydJl0qdnN2nUqKH7cDJh8jT5ddzfNdbbKzp1aCf9NtpAGifY194mme9eju5gnz/fozzoE835fpq5toQH28gPZbTLUtv3YXcNl7uH32d9/N47b8n66/WsbdO8rtdpN777/gdp3ry5/DLm27y3fTYwSHjIhmJ0j/H9jz/LgyOfSghw0bmn5yUgMO6vSfLH35MTlklXFpsRHPqb33GJlolTS2XBwkWybtfOSf8OrC3RQY+f6WhNicrIOgQQQAABBBBAwO8CxDfSayHiG7WPYGmLEt+wJTL/Hsb4xqzZs2XrgTtaOHWN4BCE6yjzFuYImQiM+Xms3P/wmpFCTjzmcNlqi80yOWRW9iXhISuMHAQBBBBAAAEEciGQaWBAR2vQJ1TbFLaSrp3b1SjynxOmyO9/Tqyx3r2iyDwJu92W/aR+/fruj5J+n43RHew/+M8ZeZ6MmTimxrm9GuVh0aJFMnt2mbRr11ZatGhR47zprND5EefPXyCdO3eSxo0br/UQ+gfY3LlzzRPKldJ9XU1eaZRwn7UlPCTcKcHKZeYp6Mkmc7lTxw5JTX2RbPkSnKrGqkOPOFq+/fZ7K5FAp97I5LqrcfAsrdCnhjbcuL91tL0G7yn3Dh+WpSOnfhgdIrNyXqV0Ky5OOelCAwBLliyR4q5dLedMEx5WrFghkydPkaKiQuupiVRqk+rPhB67vLxcKk1iWLduxbX+TCQqw/TpM6ShSeJKdsoOHSFF/x+wdOlSWdf8/OU7sSlRnfK9rso8NXPpVTfK8uUrZI9dB8meu+4kK4zba2+Oki+++tb8PBfILddebv5/l/j/XV6U/9dxf5mkvulrPbSOZLTVZhvV2G7egoUyedosM3JPK2nburDG5/YK/V2tgYYJk6qf9rDX299JdLAl+I4AAggggAACURYgvhHf+sQ3iG/EXxH5e5dpfEP/XtY4QLt27aRVq+SnTs0klrFgwQLrb/SuXdeRJk2aJMSbMGGi7LL7XtZnR5spX6//Z8rXhBvXsVLrp6NBdDBTfjZr1rSOLfkojAKLFi+2Yh1LzcOE+iChxjxIeAhjS1MnBBBAAAEEEMiJQF1PjGoBahv1odwM311RuUBKijtJi+bN4sqqN2c+//rHuHV1vele3EU22XD9ujap9bNsjO5gBwP0JHUd79PrPq61HGv7YPSXX8lRx5xgbXbZkItNtu4Aud7M96dP8dvLgM03kysvv1Q0O9y5PPTwo3LTLbdZq559+nHZeqstrdc6UoGOWKDLKy89Z/2RpNuVlpZa6/TL/vvtK0Muucj88ZR4ypFnnn1eht87Im6fnXfa0Rpu74jDD40dR1/UlvCgf6Ctt0H1Db2B22wtTz850tpPkzn6brK59XqXnXeSq6+6TK648lr59LPPrXX6RUdYuPmm62Xzzapv8Mc++OdFKuVz7+t+rzeUe/ftZ63eY/ddZcR91Xbu7fL9XhMyNDFDl2uvvkKOPeaoWot0wkn/Fh0SVBdN4GjZck0A4O1R74gmGehy1pmny4Xnn2O9tr/svuc+8udff1vJHz/98LU13Yx+pn9sP/XMs/LFF1/Kr2N/szbXYRm323Yb2XuvPWW3XXexD2F9d1/brYuKrOk4Jk6cZH3+5ecfSadOnayyaJl0+Wr0J3EJAa+9/qacf+HF1md6Lp3fcp11uljvtX7D7rpHfv75F+u9ftFtdt15kFw25JK4oEemPxNz5pTLjTf/x5qexR6aUs+3Ud8N5aQTj7N+nvS9e/nq62/ktdfekE8++yL2s6Rl3GrLLayfPw2UuBcN/Nw1/B556unnYsNg6j47bL+tHHTA/rKt8WapFhj55HPy1bc/iE5hcfWQC2Msq1atMsGBm2Te/Pmy+y47WtNbxD7854UGDGaWzpIik5yXSoDMfRzn+xmzyuS7MdU/G871tb3uvV536dWz5lREY/+cJI0aNDQjQXSM23VtSQ66MYkOcWS8QQABBBBAAAEELAHiGyLEN4hv+Ol/B6nEN5zlfvGlV+SDDz+Sz01cwv7bvKSku+w0aAe56ILzEyYHZBrL6LX+enLHncPjYg8ay7rhuqusmIaWb+xvv8s++x6oLxMu9tSpP475SQ48+HBrG43FaEzGuWgc5aWXX5X33v8gVr8dtt9Orr7yMnntjTdl+D33W5uPeus16d078aiBzuPxOpgCjzzxrHzz3Y/Sf5ONZOWqlfLzr7/XmfDgRXyjNjlGeKhNhvUIIIAAAggg4HuB78aMTTjNhbPgmvzQuqiVtDH/5i1YJMvNE9cbb9DDPJHs3Erk+59+l+mls+NXruXdbjtuLc2aJs6crmvXuhIU6trP/swZDPjRjOxwrhnhobbFuW1t29S2Xm/a6s1pXfSpffvGr3t7ncJg1H9fs56Ktz/TP3TuuPNu6+1TT4yUbQdubb3+z+13yP0jHrJeH3Tg/vLyK6/Zu8R9799vU3numSdqjPbw6MgnTNLFzXHbOt+4/yirLeFBn7xfv3d1koYmbbz4/NPWYaqqqmTjfltYr/UPNE04sG+CO8+jr99/9y1Zr2f89BKpls99TPf773/4UQ4+9Ehr9RUmseSkE45zb+KL9yMeeFhuvW2oVZY3Xn1RNt645tPhdkGdU3Q89fijcTfJLx1yhTz/4svWpuqvfyjbi45eMGCr7ay3zuSPsrI5ltGUqYmfJtcd7r5zqPxrn+onGfS989rebruB8vnno3V1bFlbwoMGMU4+9Qxre73+XzLXj/0HvTPZJ3ZAxwtNpHjtledjyROZ/EyMGzdeDjZTidjBFMdpYi8vuvA8OfP06p9je6UmOxxxVO3Xktbp8ZEPxSX1aJLQmWefJ+++9z/7MDW+O3/Wa3wYsRVDrr7JGoHmvDNPkT4bxCfHfW0SIR41CRElZnSMSy88KyZTPrdC7nvoMZk2fWZsnT4xcdRhB8k2W1YnYsU+SPHF59+MMeWpOS1UbYdp1LChDN5l2xofT5pWKvOrFknbopZSMW+B9XltIznYO2uigy49//lur+c7AggggAACCCCAwBoB4hsixDfWXA/6ivhGvEeu3qUS37DLdN+IB+W222sf6VIfSHj4oftjcQDdL9NYhiY2aGwi0aIjXr73zpvWaA/OuFKibW++8To5/LBD5OtvvpXDjzzW2uTcc86U885Z87dqXcfQ+IE+5GSX5e03X5U+fXonOhXrAi7wx59/y9DhD1gjO9x6/RXy2FPP15rw4GV8ozZGEh5qk2E9AggggAACCARCwB4GUgurr+taupqnr1uakR3WL+laY7P//u9z0Rt6qSz9+m4g3bp2SmUXa9tMEh6cCQxrCwboyY7f6Xg50fxLZ3HeFLb3P2D/fc1T8wOtJ+o1WcG+yaw3e1958blYxnoyCQ96TP3D6PBDD5aNNuorP5mn4TUj3r55e9SRh5us9KvtU8s7774vp59Z/cS/7qd//Pfq1UsmTZpkPU2vN8R1GTb01thT7ZkkPNgnPu3fJ8vGpnyjv/xann7mOXu1GTlgsNxz9x2x9+mUL7ZzLS8eemSk3GSe3tdFR8TQRBA/Liedcpp8+NEnVtH+HPeLNDQ3S2tbvvn2OznsiGOsjy847xw5+6w1Tw1oQoPdjrrBt199bk2doq/1+HoeXW68/ho58ojDrGtFb/jrjX9dNHnl4IMOkPZm6MhPP/9CHn/iKWu9fnEmVyS6tvfbdx/Z1IxUotMO6DWpI08kmtLiy6++liOPPt46rl6HLz73VOyPeZ0Oo89G1SN/6Ge33XqjKdPmZjqUKfLgQ49aozDojs7AlTPhQT9L5WfirHMukP++PUp3s5KSDtj/X1ZA4zMzaoNeO/by2y8/xn421WrwPvvbH4n+TOsIGPpz99+334mNvqEBko8/fDc2XYUmGmlCjy4arDnh+GOlfft28tNPP8vQYdXJTfrZu2+/YX4u42/w6/ooLTqlzWnnXmJVedit10pBs/gRhWaZ6UCuuuE2q03uvPU6a7slJrnq/EuuFh0BooOZUqK3SZLQxIcJEydbn5983JGyxeb90mLUoSbf/fjLlPfdevNNpEO71nH7lZbNlbLyeTJ9ZqnoVD91LSQ61KXDZwgggAACCCCAQE2BVOMbOnJlL+IbNSETrEn0NyDxDeIbCS4VK+6QbHxD99dRD/7vkstih9IYko6cqKNTvvLq67F4hTPGpX9/ZyOWoSMunnLSCdLRTL/69qh3YzEHLYwdN9GpMn4cM8aM7DhLhlx+lVVOffDDfqCm1/rrS5cunWtNeJhp/vbbzYy2acfqNC6l8ZNCMyLhpyb28KoZOdK5kPDg1AjPa42V6bSdCxZUyYnHHiFbDegv9z44MmHCg5fxjbpESXioS4fPEEAAAQQQQCBQAmsLDnQr7iotWzSTnt2qh523K7d4yVJ5/5Ov7LdJf1+/pJv06VWS9Pb2hueYERnGmJEZEi2aoNC/ez/5cdIYeeyjx+I2STXZQXfOZsLDpRdfJP8+9aRYmWbNni17/+vA2A3qkY88IIN23MH6PNmEB71ZPGDAmieXdUqCo487MXYO55QH9nQG+qH75r/zJq7ejH3z9epRAjJNeLjj9lutG8J2gZxDAeqT+joSgL2kUz5739q+n3raWbE/WMf/9lONES9q2y+X653Tg+gfzU8+9kidp9ebpBtsWJ244dzeOZ+kfYB7hw+zbuTre31aQp+a0OXjD96Vdc3T8c4kE51q5PVXX4rd2NftnE9m6LWp16gu7mDXE489LNtvV/NpdnfCg/6hf8BBh1nH0MSE5599Uvpu2Md6r1++GP2VHH3sCdb7E0841kz3MiT2mU6XcpeZ0mWlGV2ke/d1RefM1MWd8JDsz4TeVL/ZTAejSRZFrYvk3LPPjE3xocc97YyzY6MxOKeVufraG+SJJ6tHNNGnOPRpDnvRY2oyh44AocsLzz4lW2yxufUzbo+uoYkQr778nLRp08beLS7Ao/+P0P9XRHmpqKiUS80ID/Xr15f777ylBoWOMHPmBdUBseG332h+rhvJl998bz0dsU6XTnLlJefHEk0++vQLefn1/1qjRJyDoxtWAAAq+klEQVR5avW1VeOAa1mR6pRN9uE26bO+dHf9viybO09mzi6X0lmzzbW31N409p0khxgFLxBAAAEEEEAAgYwEiG/U5CO+8Yfsufd+Fswx5u/J666tvnmdzAiWuhPxjZrXlHtNqvEN3X/n3QbHRgYdNvQ/5gGcf8UOW1FRIdsP2i2WLDD25++loKAga7GMd0e9KTqthb3o3/r6N78uOuXrTTdca38kzpjLYYccJLfcXL2dvUFtIzw88dQzcvU111ub6XS2z5vRWJs2bWrvZk1lYY/wqitJeIjRhOrFa2+OklHvfyTr9yyRi86tfnCptoQHL+MbdaGS8FCXDp8hgAACCCCAQGAFEgUH1rUSHgqkR7fOcfXSzNP3Pk4j4aGHSXhYP7sJD86kBudIEM71yYzsYFcwWwGBkpLu8sF7b8duwtnHd2ayX3zRBXL6aadYHyWT8HDsMUfJtVdfYR8q9v2ii4fEprp46YVnrGH1NZN8o00HWNs4pzOI7WReOJ92t59ozzTh4a/xv8bdRNbzbbPdTiYzvtQ6tf15uuWzDlLLF/1De9PNtrL+MNbhAfWmtR+X338fJ3v96wCraM6RC+oqqzORwx4R4plnn5fLr7xGNHGhR48S62a98w/0Q8xIDt99/4M1D6WdaOJMgkiUtKBPy2+5zQ7WDXtNUPhlzLfWNexMeNh5px3lkYdGJCyuM+FBkyX0GtO21mM9+9RjNabucCbeaELMXcNus0ad0BvftS3OhIdUfiZqO569Xp+yuOCi6lEG7Dk59bN/7XeQ/Dr2N2szO9hi76PfZ8yYKd98+621asM+fazRGj4zo2Uce/zJ1jr9mdVyuhf9+VQbTZDQRIkoL+PNMI93mGEeC1u1kv/cUPP/cWpz1oWXic5lefWQC6VL547ywcefywuvvGGN7nCFSXho0rhx1ggrKufLZ1//mPLxNtnQJDwUxycIasJD6ey5MtNKeFhiHZMkh5Rp2QEBBBBAAAEEEEhJgPhGNRfxjcwSHuz4hfPiI77h1BBJNb6hoyf023wr6yA68oE+nONefjajmU6YONFavcP221kPD2QjlqEjNT444p64002dNk12MAkWujgfMNH36SY86OgVGvvTRaeD1ZE1nYs+OLHF1tvHHoYi4cGpE47Xs8vK5crrb7Uqc9M1Q6Rtm+qRIGtLePAyvlGXKAkPdenwGQIIIIAAAgiESuDvydOlUcMGskGP6vnEnZUb9cEXstw8dZvK0n/j3lLcpWMqu1jbrm2EB+cUFJr0oCM+9C+pHso8lWQHPVm2AgI6TcBtt95Uo67OEQ+cUzwkk/Cgx9PjuhdnRro9BJ/e6NYb3vYycJut7Zex76O/XJO08urLz0u/TTeRTBIeartxe+DBh5vhAH+yzmvfrE+3fLHCJ3jxxx9/yh577Wt9onMn6hyKflx0mo8rrqp+auDpJ0dKorZxl9u5j47GoaNynHHWuTLqnfespBkdRUCHWtThGb/7+nNrFAN7qghnUsBRx5xgphqpbvevRn8SNx+mfc6TTz0jNpekPTKEM+HBPa2GvZ9+dyY8ONe7n4yxP9MklcHmiRsdutJetA46esTWW20hu++2i7RuXf2Hof25M+EhlZ8Je38dOULn09RrUJMVFixYIBp0sUdp0O3shAfnlBslJd3lw/dH6cdrXdzzkSZqY7sd9GCJAmlrPUmINphphgq95qah1ryW9wyt+f9NDQjZU14MvflqaWESaMrmlFvTXGiSTqNGDWXTjftKXzNV0CYb97E+z4Rn2bLl8s5Ho1M+xMABm0q7tkVx+800yQ5lcyul2zqdTFJGo7jPeIMAAggggAACCCCQOwHiG6lZO/8GJL6xxo74xhoLfeWMVSQT39C/u4846jjrIMcde7Rcc9Xl8Qes5V02Yhnnn3u2nHP2GXFnWLx4iWy4cX9rnfvBmXQTHpwjWOhDJC1atIg7p75xxk5IeKjBE/gVtw6715puc9+9dpe999w1Vp/aEh68jG/ETp7gBQkPCVBYhQACCCCAAALhFJhRWiaLFi+VjTboXmOkgh9/GS9TZ1Q/tZ9s7ffYaWBaN3ycIzckOldtSQqpJjvosZ0jQyQ6V13rnAGBRH9I6b6VlfOk/4Dq5IPe5ubcqLdesw6ZTMKDc5h9Zzk++PAj0ZvUupx6ykky5JKL5IUXX5ZLhiR+Utq5r/16+F13yD57D84o4UEz7x8f+ZB9yNh3e6QBXWEnPKRbvthBE7x4/oWX5NLLrrQ+STR6QYJd8rLqvAv+T15/4y3r3L/+9J01+sHaCuL8Q1uH4TzSDLVoj2ahQYV11ukig3bewzqMjixSUVkpBx96pPX+oQfulV132dl6bY8qoG8m/PlbjZ9rXX/t9TfJY48/qS/lsUcflB132D5uSotL/u9C0Tk2Ey3OP9qdn+u1/sqLz8VNn2F/PsfcuNYnIPTnJ9GiQ0dqnRv/8wS/M+EhlZ8JPbYmOvz79LNjT1IkOp+usxMenO51jWzhPo6OFOGel9O9jfP9d998YTL+10x54fwsCq818eWM84dYVb33jpukYcOGcdXWJ/R07ktNbHAmREyYOFmef/kNmTRlatz2G/ftIycff6Q0bdIkbn0qb0Z/97PMKa9IehcdYWKPnbapsf3EaaVSVbVYenZfJ+HPW40dWIEAAggggAACCCDgiQDxjdRYiW8Q30jmikk1vvG8iVVd+k+s6rIhF8spJ52QzGmsEUx1hERdshnLcD7kkK2EB53esry83CrrH7//bP6OrZn4rvE6jYvpQsKDxRCaL9/9+JM8NPJpawTLm68dEjcKbm0JD1p5L+MbteGS8FCbDOsRQAABBBBAIHQCcyvmS7m50VTStZO0bFEQV795C6rkk9Hfx62r603P7sXSd4MedW1S62fJJC64kx6S2SfRCT+97uNEq5Na5wwI1PYEhHO4v70G7yn3Dh9mHTuZhIeht90iBx6wX42yOOcHvN7cGD7azE3pzJrX0QDOP++cGvvNnz9fWpkh5HXpa24QduzQIWcJD+mWr0YlHCucU3v89MM3pm4tHZ/656X9x6+2i47WkOxiD535r332khNPOE4OOOgwa9fff/3Rmg9yx512lylTp1pzTlaZQMBNN//H+txpoU9S2CMZfD36U+nQoX2N069thId0Eh70JLX9TNgFmDmz1BpZQkde+N8HH8Xm7NTPDzVJD5qEoIsz4SGVnwlnspEeR4fP1CSGbt26WU9cvP+/D+S551/Uj2IJD0vN9D29+1aPFlNSkvwID3cPv0+G3TVcD2Ulh2wxoHp6GWvFP1+cP3/bbbtNLKHDuU2UXl8w5BrT5otiU1Y46z7uj79k2D0PWlNZ6JQW7mX+/AWi23zz/Rj5Zezv1se9e60n5591qnvTpN/PKpsrX//wS9Lb992gp0lq6Fpj+1/HTzRt2yit0Y1qHIwVCCCAAAIIIIAAAmkLEN9IjY74RvIJD8Q3yq1RKJOJb3z77fdy6BFHWxejczTKtV2dXsUyvEh4OO2Ms60pR7VO+pCTPgDiXnbfc5/YSJckPLh1gv1+6N0j5I+/JohO1drSNbrHgqoqsUepbNq0qRx20L6yxWbVMSe71l7EN+xju7+T8OAW4T0CCCCAAAIIhFZg6dJlZhSH2VJU2EKKO9e8MTpxynT55fe/1lr/dm1by8ABm6x1u7o22OGqQXV9bH1mJz2km+zQz0yDcfcJd671PLVt4AwIlJR0F33Svl69enGbv/Lq63Lh/11qrbvowvPkzNP/bb1OJuGhtuH+4uYHfO4pGTBgc2uIfnteRGdiRVxhErzJZEqLVEZ4cM7bmEr5EhQ5tspOJHCOnBH70CcvNCFBExN0sUfjSLZoV119nTz59LPWtBUnmYQHvfHvHHXg+htvlkdHPiHquXz5ctEb+DpXpM4ZaS+33jZURjzwsPX2qccflW3NjXbnolMH2HNJNjfTBvz84zfWH2nOazvZhAedi1OPscfgf8VOcYtJWtARG9a2aKKB/qxcdsXV1qZ6nJ9++NrKjHcmPKTyMzHqnXfNNCDnWcfTMmhZnMs9942QoXfcZa2yR3jQN/sdeKjoHKK6JBqRo6KiQn77bZysWr1Kem+wgbRv304+/OgTOemU06x97CQk6w1fahWwgwJbDegvJx57RNx2dwx/QMb/+bcVCNCRG+pafjVtMXzEo9YmI+66tcb/g+va1/3ZuD8nyR8TJrtX13i/TqcOsvmmfWqsr5y/UKbMmCVtWxdKm6Lq5LIaG7ECAQQQQAABBBBAICcCxDdSY3b+DVhSQnzD1ks0giXxjeTjGzql5Cb9t7Q4N9lkY3n9lRds2tj3SZMmy/TpM6y/sbfacgvr4QCvYhleJDzce/8DcvvQ6tii8+ENu4LOny1dR8KDLROO73ZsI5naHHHIATJo+/i4nHO/bMY3nMe1X5PwYEvwHQEEEEAAAQQiITDNJDwsXrJUNuhZnHA6iinTS2XsuL9l+YoVCT2Kzbzl/fr2yuimkx54bdNaJDx5iivthIkUd4tt7v6j5fLLLpGTTzw+9nlZ2RwZvM/+saHtHnlohHXDWjdIJuFBt9ObyPpkur18/c23cviRx9pvZcz3X0thYfWNNfuJf/3wtZefl003jU86eejhR+W338db+155+SXSxgypn6uEBz1pOuWzCpvgy4wZM2XbHaqnbdBkgCsur04qSbBpjVWahPDxJ5/JdgO3kR49SuI+X2Gu6w8+/FhWrlwhu+y8kzRxDZH/45ifLLM9dt9VWrduHbdvojdvvPlfOff8i6yPHrj/Htl9t10SbZZw3Xvvf2CmYzjL+qxTp05SWloq115zpRx7dPUNYPsmuyYH6KLDPTqTanSd86a/Joa8aq4nzSq3l4cffUxuvOlW660zgcV5bSeb8PDV6E+sUUNee/1NOf/Ci+1TyFtvvCJ9N6y+OfzSy6/KL7+OtT7TESA23qhvbDt9YSex6OtxY8dY/s6EB12f7M/Egw89IjffervuUsNFrXTEjD//+tv63JnwcPW1N8gTT1YnjbgTJTRB5MSTT4tNx2HPWTpr9mzZeuCO1rFKSrrLyy8+K62Liqz3+kUTOtR5QdVC83NXJFdePiT2WVRfTJo8VW4eOtyq/mUXnSPrdutqvR5r/h919/2PWK+vu+L/zDVVnXx3zwMjrdEcBmy2qZxy/FExtjE/j5X7H37cGj7yPzdcEVuf7ou/J02TseMnmN1XJzxEj3W7yka9eyb87O/JM2ThoiXSvVtnaeSapiPhDqxEAAEEEEAAAQQQ8FSA+EbyvM6/AXUv4hvVdokSHvQT4hvJxzd23m2wTJw4yQIdNvRW2X+/fa3X+kVHZtx1j71jcTN7xEqvYhleJDxojGPf/Q+O1UljVAeY0VoLzQirX371tVx86eWxz/QFCQ9xHKF4o7GiRIs+nKExjhOOPky22mKzWKw8V/ENd5lIeHCL8B4BBBBAAAEEQi1QtXCxzJw9R4patZBuXTokrOuKFStFEx/mzK2UJSY5okHDBlLYsoV06dQ+q0+1JjPKQ8ICJrEy09Ed9BTugICuO/ywQ2SrLQfIrFll8vyLL8X+qCsp6S5vmekMCgqqpwpJNuFBb2Yfe8yR0qd3b5Os8Ls8+dSzsaH/D9h/X7nj9uqb1XpunQ9Q5wXURfe7+KLzpX//frJ48WJ58aVXRG8267L+ej3l3VFvWh3tXCY8pFM+q8AJvrw96h058+zzrU/uu+dOGbznHgm2qrnK+SSGfuqe5kGnJdDpCXRxJ1J88cWXcvRxJ1qfqeF777xlva7riz1Kg27jPldd++ln7rLqOj2nnlsXvWm/0abxUye8ahJd+jkSXfRpioMOOSJ2Y3/gNlvLIQcfYI0a8cXoL+WBB6tvLOvxRj7ygAzacQd9GXdtp5rwoPtfaUaneMqMTqGLJmu889/XrcScd959X04/8xxrfdu2bc1UEtdb5dX/jzz1zLOx0Sj23muw3HP3HdZ27oSHZH8mNDnlwIMPt46h+1x1xRDZ1DxRMtE8PXKvGd3h17G/WZ/pF2fCw7hx461EJftDTcwYvMfusnTZMjNM5fvy+hvV7V5SEv/U0wUXXSKvvvaGtZtOX6LTkPQxSSYzzNQd99x7v2h5dKltlArrw4h9eeGVN+WDjz+zal2ybjeTSLdcpk2fab0/aP+9Zfedq5NIdMXv4/+UO+99yPqsTesi6bVeD5lnprbQ9bq4t7dWpvlliY52ZH7HaTBAnwxs2KihtC5sKTqyQ6uW1QlG7kOXm21nlJZbn3dot/ZkKPf+vEcAAQQQQAABBBDIvgDxjeRNiW8kP6WFqhLfSDxlZqIrTmNROlKpvZx91umyzdZbmSk6p8lLJlal01zqotO16oiJungVy/Ai4UHLq9NlDrm8uuz63r2UlHSPxQdJeHDrhPe9JjzoqA0nHnO4lfBg1zSX8Q37nPqdhAenBq8RQAABBBBAIBICM2eXS5WZW71Lh7bSrk1h3urs5SgPmY7uoCjOgIA+8f/ue/9LaKU3W9949cW40QSSSXjYb999YjdX3QfWG6ovPPe0NGu25ml93cZ5XPc++l7L8vILz8gGG/SyPs5lwoOeMNXyWYVM8OXa62+Sxx5/0vrky88/sm6qJ9isxirn/JH6ofMmv74/6pgTZPSXX+lLcQ+36JwCQT+3nzzQ17Ut9pMM3YqL5ZOP3qtts1rXO58m0QSB777+PG5bZ3m1be1pIJwb6egD+x94mDVChHO98/Vtt94kemPfXpzXdjoJDzqiwcGHHhlLKtht111kxH13W3MXHnr40bGb//b5nN+1Hs8+9ZhsvPFG1mpnwkMqPxMrV66UA02yhz09hfMc+lqn/7ADK86EB/1Mn8I48ujj9WXCRcv48IP3ydZbbRn7XKcVOfnUM+TTz+LbKLaBeaE/t8+YurVs2dK5OrKvV5g2euCRJ+TnX3+PM9h26y3kmCMOjj39YH847o+/5LGnnpcK8xSQvTRvXmDmwdxPdGqMfC06KtJfk2ZI/Qb1ZV0zylED850FAQQQQAABBBBAwB8CxDeSawfn34DEN9aYOf8m/3PcL9LQMZIb8Y01Tmt75Zz2IdG2+mDHE489HBfb8SKW4VXCg9ZJR1V96unnTCLH1FgVNY5z/bVXyg8/jBEdYVMXEh4shkh8sUdyOMlM47mlK2aRj/gGCQ+RuOyoJAIIIIAAAgg4BVauXCXTZs6WZeYGXnHn9taTrc7Pc/n6nJHnyZiJY7J6ymwkO2iBnAEBvSm81VZbyDXX3Rh3g1VvcF595WUyYMDmcXVw3jx//tknZcstqp/Ud97cfckkJkyZMlVuvPk/seH99CAafLjmqsvj/hB0HvyRkY/L/SMeittHP9e5BM8+83Tp2nWd2OZ//PmX7DH4X9b7Y0w2/XX/ZNPr1A7r997YWq83dZ99+nHr9aJFi6TvJtV1cU6BEDugeXHEUcfJV19/Y636a/yv5uZfA+fHkkr54nZ0vNl9z32sUQt09ABNeEh20ZvgOiWI3ujWttGpBxo3bhzb3TmNxLCh/zFDLVbb6AaTp0wxoyUcabkee8xRcu3VdQ+fX1FRIZttMdA6to78cfON18XOk+wL53Vy1JGHyw3XXR2360OPjJSbzPWhi3NUhLiNzJvJk6fISJMgojfj7aEk9ab9DttvK/vsPVj2Grxn3C6fff6FHHv8yda6uhIezjrnAvnv26Os7ewpLewDTZ02TQbvvX9sRBJ9UkOf2NA2uH/Eg/L0sy/EJWFoeXSECf15ad++nX0YyeRnYpEZ3eSKK6+JjbygB9WAw/+Z0U9amVFpzjjrPOs87oQHXakjerz86mvG7IvYz5KWcfPN+ltt3737uta+zi866sZ/bh8WmxLD/kz3O+3Uk+T4446RFi1a2Kv5/o/A3IpKayQMfVvctYs19GddOMuWLZe55udLpw1p0mTNz29d+3j1mY4GMXnaLFlqfl927tBOWjRv5tWpOC4CCCCAAAIIIIBAGgLEN5JDI76ReIQH4hvV10824hvPPveC/O+DD0Wn57QX/ft8150HyZVmREb9u9m9ZDuWoQ8q9OqziXWa7bYbKE8+tmbUSz3XoF2qRw91T2+pOzgfoLnw/HPkLBNfS7TocX43I0d26tRRNujVy3pQyTl15qi3XhOdcpQFARXIZXyDhAeuOQQQQAABBBCIpIAO4z29tExWrlolHc3w3PovX0s2kx6yleygFu6AwGn/rr5BrFMRlJaWWjdt27RpkxKb++au3lzVueBml5XJfDN8e5fOnRL+Eeg+id5ULpszRyrNjUR9mlz/0HInHrj3yeX7TMrnnOpBRyXQ0QlSXfRJgY4dEk/ZojetdUn0x7aWu8KYtmvXdq2n1D/iTzrlNGu7obfdIgeaORz9sMyZY0ZwqaqS4uKueb8mtBwzZsyUwqLCWtsjGz8T2m7TZ8yQRg0bSceOHaR+/eSfwNefv2nTp1ujUxR37ZrUvsvM9Bczzf8DFi9abK6VdkldL364NihDagLzqxbK1BlzzO/JldK+bWtrKqjUjsDWCCCAAAIIIIAAArkQIL6xdmXiG2s3qm0L4hu1ySRerw/Y6FSTRYWFcQ87JN56zVo/xTLWlEpkwoSJMv6PP6xVPXv0kF691nd+bMUS9jvgkNgImON/+ynuwZu4jXmDgIcCJDx4iMuhEUAAAQQQQMDfApplWlo215q7vnmzZtKhbaG0bFGQl0JnY3qLbCY7KEJtAYFMgBLd3M3keGHc95NPP5PjTzzVqlqiJ/P9UufbzJP+95mRDHT54L2346Y08UsZg1AOfiaC0ErRKuNS87uxrLxSKuZVyWrzX8f2baRVi5pPI0VLhdoigAACCCCAAAL+FiC+UXf7EN+o28erT4lveCWbu+OO/e132WffA60T6oMzjz48Qvptuon1gMmYn36Wl15+VZ57/kXr88F77i733XNX7grHmRBwCJDw4MDgJQIIIIAAAghEU0Bv7FSa0QXMfR1p2rSxdWOneUETadKokenA18/ZU+LpJj30K+knJww6Xvqb79lcCAhkUzP5Yw27a7jcPfw+a4f33nlLdK5HPy72XJ/6B+8vY76VevXq+bGYvi8TCQ++b6LQF3C5eQJp2fIVsnjJUllQtVgWLFxk/T4sKGgq7dqYaTUaNwq9ARVEAAEEEEAAAQTCIkB8I3FLEt9I7OL1WuIbXgvn5vg6uqdzqo5EZ9XY0JOPPyL9+22a6GPWIeC5AAkPnhNzAgQQQAABBBAIgoA+0TpvfpVUmRs9Os1FPfOfdcfHfN+4d0lOq5Bs4oNXiQ52ZQkI2BK5/X7oEUdbcyfqH4s///hNUlMM5LaEIosXL5ENN+5vnXavwXvKvcOH5boIoTkfCQ+hacrAVuSXcRNN2U3Gn/l9pyM6NC9oJoUtm1vfA1spCo4AAggggAACCERYgPhGzcYnvlHTJBdriG/kQtn7c+i0liMeeFg0gSXRMmDzzeSuYbdLly6dE33MOgRyIkDCQ06YOQkCCCCAAAIIBElgkbmZqwGCOXMrpVHDhtJnvW55K74mP7iX/t37ZX00B/c59P18M+rF5MmTrY86dOwgHTt0SLRZSutKS0ulrGyOtU/Pnj2koCA/U4ikVOgcbzxu3HhZvny5NDM3Hdfr6c/RHfSP3fHjq+dwbN++nXTq1CnHSuE5HT8T4WnLINZEf9eNnzBVWjYvkBbmX7OmTayRjYJYF8qMAAIIIIAAAgggUFOA+Ea1CfGNmtdGLtYQ38iFcu7OsWDBApk0eYpMmjRZli5dKiUl3aXX+utJy5Ytc1cIzoRALQIkPNQCw2oEEEAAAQQQQODPiVOllbkB1L2Ym7lcDQgggAAC4RPwOiAQPjFqhAACCCCAAAIIBFOA+EYw241SI4AAAggkJ+B1fKPeoiXLdGxMFgQQQAABBBBAIHACBAQC12QUGAEEEEAgBQGvAwIpFIVNEUAAAQQQQAABBDwUIL7hIS6HRgABBBDIu4DX8Q0SHvLexBQAAQQQQAABBNIVICCQrhz7IYAAAggEQcDrgEAQDCgjAggggAACCCAQBQHiG1FoZeqIAAIIRFfA6/gGCQ/RvbaoOQIIIIAAAoEXICAQ+CakAggggAACdQh4HRCo49R8hAACCCCAAAIIIJBDAeIbOcTmVAgggAACORfwOr5BwkPOm5QTIoAAAggggEC2BAgIZEuS4yCAAAII+FHA64CAH+tMmRBAAAEEEEAAgSgKEN+IYqtTZwQQQCA6Al7HN0h4iM61RE0RQAABBBAInQABgdA1KRVCAAEEEHAIeB0QcJyKlwgggAACCCCAAAJ5FCC+kUd8To0AAggg4LmA1/ENEh48b0JOgAACCCCAAAJeCRAQ8EqW4yKAAAII+EHA64CAH+pIGRBAAAEEEEAAAQREiG9wFSCAAAIIhFnA6/gGCQ9hvnqoGwIIIIAAAiEXICAQ8gameggggEDEBbwOCEScl+ojgAACCCCAAAK+ESC+4ZumoCAIIIAAAh4IeB3fIOHBg0bjkAgggAACCCCQGwECArlx5iwIIIAAAvkR8DogkJ9acVYEEEAAAQQQQAABtwDxDbcI7xFAAAEEwiTgdXyDhIcwXS3UBQEEEEAAgYgJEBCIWINTXQQQQCBiAl4HBCLGSXURQAABBBBAAAHfChDf8G3TUDAEEEAAgSwIeB3fIOEhC43EIRBAAAEEEEAgPwIEBPLjzlkRQAABBHIj4HVAIDe14CwIIIAAAggggAACaxMgvrE2IT5HAAEEEAiygNfxDRIegnx1UHYEEEAAAQQiLkBAIOIXANVHAAEEQi7gdUAg5HxUDwEEEEAAAQQQCIwA8Y3ANBUFRQABBBBIQ8Dr+AYJD2k0CrsggAACCCCAgD8ECAj4ox0oBQIIIICANwJeBwS8KTVHRQABBBBAAAEEEEhVgPhGqmJsjwACCCAQJAGv4xskPATpaqCsCCCAAAIIIBAnQEAgjoM3CCCAAAIhE/A6IBAyLqqDAAIIIIAAAggEVoD4RmCbjoIjgAACCCQh4HV8g4SHJBqBTRBAAAEEEEDAnwIEBPzZLpQKAQQQQCA7Al4HBLJTSo6CAAIIIIAAAgggkKkA8Y1MBdkfAQQQQMDPAl7HN0h48HPrUzYEEEAAAQQQqFPgr4nTpEXzZlJS3KnO7fgQAQQQQACBIAqUV8yX6bPmSJeO7aV5QdMgVoEyI4AAAggggAACCCQhQHwjCSQ2QQABBBAIrIDX8Q0SHgJ7aVBwBBBAAAEEEJg4dYY0rN9AevXoCgYCCCCAAAKhEyidPVdmz62Ubl06SpMmjUNXPyqEAAIIIIAAAgggUC1AfIMrAQEEEEAgzAJexzdIeAjz1UPdEEAAAQQQCLnATPPUa9WixdJnvXWlUcMGIa8t1UMAAQQQiJrA35NnyKLFS2W9EhL7otb21BcBBBBAAAEEoiVAfCNa7U1tEUAAgagJeB3fIOEhalcU9UUAAQQQQCBEAvMWLJTZc+ZK5w5tpX2bwhDVjKoggAACCERdYMnSZfKHTt1U0Ew6d2wXdQ7qjwACCCCAAAIIhFqA+Eaom5fKIYAAApEWyEV8g4SHSF9iVB4BBBBAAIFgC6xeLaLDPtYz1digR7E0aFA/2BWi9AgggAACCPwjMGXGbKmcXyVdOraX5gVNcUEAAQQQQAABBBAIsQDxjRA3LlVDAAEEIi6Qi/gGCQ8Rv8ioPgIIIIAAAkEXmGduBs0ur5CiVi3MHOcdgl4dyo8AAggggICUV8yX6WbaJkZ34GJAAAEEEEAAAQSiI0B8IzptTU0RQACBqAjkKr5BwkNUrijqiQACCCCAQIgFSsvKZUHVImld2FKKO7cPcU2pGgIIIIBA2AXmmGSHGSbZoVHDhtLVJPI1bNAg7FWmfggggAACCCCAAAL/CBDf4FJAAAEEEAiLQC7jGyQ8hOWqoR4IIIAAAghEXGDm7HKpWrhImjZpLB3btZbCls0jLkL1EUAAAQSCJLB4yVIpK58nlQuqrGSHzh3bSpPGjYNUBcqKAAIIIIAAAgggkAUB4htZQOQQCCCAAAJ5E8hHfIOEh7w1NydGAAEEEEAAgWwLzDVPxZZXzrMO27hRQ2so8MaNG0n9evWyfSqOhwACCCCAQMYCq80Rli9fIYsWL5FFJuFBl5bNC6R92yJpwMgOlgdfEEAAAQQQQACBKAoQ34hiq1NnBBBAILgC+Y5vkPAQ3GuHkiOAAAIIIIBAAgG9cTTPPB1btXCxLF+xIsEWrEIAAQQQQMBfAvXr1ZfmBU2llRmdqKBZU38VjtIggAACCCCAAAII5EWA+EZe2DkpAggggEAGAvmKb5DwkEGjsSsCCCCAAAII+FtgxYqVVtLD6tWaY8qCAAIIIICAvwTqST0zkkN90dGIWBBAAAEEEEAAAQQQqE2A+EZtMqxHAAEEEPCDQL7jGyQ8+OEqoAwIIIAAAggggAACCCCAAAIIIIAAAggggAACCCCAAAIIIIAAAgggkJIACQ8pcbExAggggAACCCCAAAIIIIAAAggggAACCCCAAAIIIIAAAggggAACCPhBgIQHP7QCZUAAAQQQQAABBBBAAAEEEEAAAQQQQAABBBBAAAEEEEAAAQQQQACBlARIeEiJi40RQAABBBBAAAEEEEAAAQQQQAABBBBAAAEEEEAAAQQQQAABBBBAwA8CJDz4oRUoAwIIIIAAAggggAACCCCAAAIIIIAAAggggAACCCCAAAIIIIAAAgikJEDCQ0pcbIwAAggggAACCCCAAAIIIIAAAggggAACCCCAAAIIIIAAAggggAACfhAg4cEPrUAZEEAAAQQQQAABBBBAAAEEEEAAAQQQQAABBBBAAAEEEEAAAQQQQCAlARIeUuJiYwQQQAABBBBAAAEEEEAAAQQQQAABBBBAAAEEEEAAAQQQQAABBBDwgwAJD35oBcqAAAIIIIAAAggggAACCCCAAAIIIIAAAggggAACCCCAAAIIIIAAAikJkPCQEhcbI4AAAggggAACCCCAAAIIIIAAAggggAACCCCAAAIIIIAAAggggIAfBEh48EMrUAYEEEAAAQQQQAABBBBAAAEEEEAAAQQQQAABBBBAAAEEEEAAAQQQSEmAhIeUuNgYAQQQQAABBBBAAAEEEEAAAQQQQAABBBBAAAEEEEAAAQQQQAABBPwgQMKDH1qBMiCAAAIIIIAAAggggAACCCCAAAIIIIAAAggggAACCCCAAAIIIIBASgIkPKTExcYIIIAAAggggAACCCCAAAIIIIAAAggggAACCCCAAAIIIIAAAggg4AcBEh780AqUAQEEEEAAAQQQQAABBBBAAAEEEEAAAQQQQAABBBBAAAEEEEAAAQRSEiDhISUuNkYAAQQQQAABBBBAAAEEEEAAAQQQQAABBBBAAAEEEEAAAQQQQAABPwiQ8OCHVqAMCCCAAAIIIIAAAggggAACCCCAAAIIIIAAAggggAACCCCAAAIIIJCSAAkPKXGx8f+3a4dEAAAACMT6tyYD7sU8ghsWAgQIECBAgAABAgQIECBAgAABAgQIECBAgAABAgQIECBAoCDg8FBYQQcCBAgQIECAAAECBAgQIECAAAECBAgQIECAAAECBAgQIEDgEnB4uLiECRAgQIAAAQIECBAgQIAAAQIECBAgQIAAAQIECBAgQIAAgYKAw0NhBR0IECBAgAABAgQIECBAgAABAgQIECBAgAABAgQIECBAgACBS8Dh4eISJkCAAAECBAgQIECAAAECBAgQIECAAAECBAgQIECAAAECBAoCDg+FFXQgQIAAAQIECBAgQIAAAQIECBAgQIAAAQIECBAgQIAAAQIELgGHh4tLmAABAgQIECBAgAABAgQIECBAgAABAgQIECBAgAABAgQIECgIODwUVtCBAAECBAgQIECAAAECBAgQIECAAAECBAgQIECAAAECBAgQuAQcHi4uYQIECBAgQIAAAQIECBAgQIAAAQIECBAgQIAAAQIECBAgQKAg4PBQWEEHAgQIECBAgAABAgQIECBAgAABAgQIECBAgAABAgQIECBA4BJweLi4hAkQIECAAAECBAgQIECAAAECBAgQIECAAAECBAgQIECAAIGCgMNDYQUdCBAgQIAAAQIECBAgQIAAAQIECBAgQIAAAQIECBAgQIAAgUvA4eHiEiZAgAABAgQIECBAgAABAgQIECBAgAABAgQIECBAgAABAgQKAg4PhRV0IECAAAECBAgQIECAAAECBAgQIECAAAECBAgQIECAAAECBC4Bh4eLS5gAAQIECBAgQIAAAQIECBAgQIAAAQIECBAgQIAAAQIECBAoCDg8FFbQgQABAgQIECBAgAABAgQIECBAgAABAgQIECBAgAABAgQIELgEHB4uLmECBAgQIECAAAECBAgQIECAAAECBAgQIECAAAECBAgQIECgIODwUFhBBwIECBAgQIAAAQIECBAgQIAAAQIECBAgQIAAAQIECBAgQOAScHi4uIQJECBAgAABAgQIECBAgAABAgQIECBAgAABAgQIECBAgACBgoDDQ2EFHQgQIECAAAECBAgQIECAAAECBAgQIECAAAECBAgQIECAAIFLwOHh4hImQIAAAQIECBAgQIAAAQIECBAgQIAAAQIECBAgQIAAAQIECgIOD4UVdCBAgAABAgQIECBAgAABAgQIECBAgAABAgQIECBAgAABAgQugQENqSd010qcGQAAAABJRU5ErkJggg==;fontColor=#000000;" parent="1" vertex="1">
          <mxGeometry x="1484" y="-1936.63" width="396.92" height="90" as="geometry" />
        </mxCell>
        <mxCell id="yw3r1Iz2F--yr3W_fxyA-259" style="edgeStyle=orthogonalEdgeStyle;rounded=0;orthogonalLoop=1;jettySize=auto;html=1;exitX=1;exitY=0.5;exitDx=0;exitDy=0;fontColor=#000000;" parent="1" source="yw3r1Iz2F--yr3W_fxyA-250" target="yw3r1Iz2F--yr3W_fxyA-258" edge="1">
          <mxGeometry relative="1" as="geometry" />
        </mxCell>
        <mxCell id="yw3r1Iz2F--yr3W_fxyA-250" value="OpenAIModel" style="rounded=0;whiteSpace=wrap;html=1;fontColor=#000000;" parent="1" vertex="1">
          <mxGeometry x="278.25" y="-2836" width="130" height="59.62" as="geometry" />
        </mxCell>
        <mxCell id="yw3r1Iz2F--yr3W_fxyA-260" style="edgeStyle=orthogonalEdgeStyle;rounded=0;orthogonalLoop=1;jettySize=auto;html=1;exitX=1;exitY=0.5;exitDx=0;exitDy=0;entryX=0.5;entryY=1;entryDx=0;entryDy=0;fontColor=#000000;" parent="1" source="yw3r1Iz2F--yr3W_fxyA-254" target="yw3r1Iz2F--yr3W_fxyA-258" edge="1">
          <mxGeometry relative="1" as="geometry" />
        </mxCell>
        <mxCell id="yw3r1Iz2F--yr3W_fxyA-254" value="CopilotOpenAIModel" style="rounded=0;whiteSpace=wrap;html=1;fontColor=#000000;" parent="1" vertex="1">
          <mxGeometry x="282.75" y="-2618" width="121" height="59.62" as="geometry" />
        </mxCell>
        <mxCell id="yw3r1Iz2F--yr3W_fxyA-256" value="Teams AI Library" style="text;html=1;strokeColor=none;fillColor=none;align=center;verticalAlign=middle;whiteSpace=wrap;rounded=0;fontColor=#000000;" parent="1" vertex="1">
          <mxGeometry x="291" y="-2860" width="104.5" height="30" as="geometry" />
        </mxCell>
        <mxCell id="yw3r1Iz2F--yr3W_fxyA-257" value="Custom Copilot" style="text;html=1;strokeColor=none;fillColor=none;align=center;verticalAlign=middle;whiteSpace=wrap;rounded=0;fontColor=#000000;" parent="1" vertex="1">
          <mxGeometry x="285.99" y="-2644.63" width="104.5" height="30" as="geometry" />
        </mxCell>
        <mxCell id="yw3r1Iz2F--yr3W_fxyA-258" value="Application&lt;br&gt;AI" style="rounded=0;whiteSpace=wrap;html=1;fontColor=#000000;" parent="1" vertex="1">
          <mxGeometry x="421.46000000000004" y="-2720" width="122.01" height="59.62" as="geometry" />
        </mxCell>
        <mxCell id="yw3r1Iz2F--yr3W_fxyA-269" value="" style="group;fontColor=#000000;" parent="1" vertex="1" connectable="0">
          <mxGeometry x="1017" y="-2850" width="190" height="350" as="geometry" />
        </mxCell>
        <mxCell id="yw3r1Iz2F--yr3W_fxyA-263" value="dev.botframework.com" style="rounded=0;whiteSpace=wrap;html=1;labelPosition=center;verticalLabelPosition=top;align=center;verticalAlign=bottom;fontColor=#000000;" parent="yw3r1Iz2F--yr3W_fxyA-269" vertex="1">
          <mxGeometry width="190" height="350" as="geometry" />
        </mxCell>
        <mxCell id="yw3r1Iz2F--yr3W_fxyA-264" value="botframework.com" style="verticalLabelPosition=bottom;html=1;verticalAlign=top;align=center;strokeColor=none;fillColor=#00BEF2;shape=mxgraph.azure.azure_active_directory;fontColor=#000000;" parent="yw3r1Iz2F--yr3W_fxyA-269" vertex="1">
          <mxGeometry x="61.00000000000023" y="15.63000000000011" width="60" height="60" as="geometry" />
        </mxCell>
        <mxCell id="yw3r1Iz2F--yr3W_fxyA-265" value="Bot Registration" style="aspect=fixed;html=1;points=[];align=center;image;fontSize=12;image=img/lib/azure2/identity/App_Registrations.svg;labelBackgroundColor=default;fontColor=#000000;" parent="yw3r1Iz2F--yr3W_fxyA-269" vertex="1">
          <mxGeometry x="73.41000000000008" y="256.6300000000001" width="43.19" height="43.88" as="geometry" />
        </mxCell>
        <mxCell id="yw3r1Iz2F--yr3W_fxyA-266" value="token.botframework.com" style="aspect=fixed;html=1;points=[];align=center;image;fontSize=12;image=img/lib/azure2/identity/Managed_Identities.svg;labelBackgroundColor=none;fontColor=#000000;" parent="yw3r1Iz2F--yr3W_fxyA-269" vertex="1">
          <mxGeometry x="69.2199999999998" y="139.00000000000045" width="51.56" height="50.05" as="geometry" />
        </mxCell>
        <mxCell id="yw3r1Iz2F--yr3W_fxyA-272" value="Authentication" style="rounded=0;whiteSpace=wrap;html=1;fontColor=#000000;" parent="1" vertex="1">
          <mxGeometry x="607.13" y="-2864" width="122.01" height="43" as="geometry" />
        </mxCell>
        <mxCell id="yw3r1Iz2F--yr3W_fxyA-273" value="Augmentation" style="rounded=0;whiteSpace=wrap;html=1;fontColor=#000000;" parent="1" vertex="1">
          <mxGeometry x="607.13" y="-2805" width="122.01" height="43" as="geometry" />
        </mxCell>
        <mxCell id="yw3r1Iz2F--yr3W_fxyA-274" value="Planner" style="rounded=0;whiteSpace=wrap;html=1;fontColor=#000000;" parent="1" vertex="1">
          <mxGeometry x="607.13" y="-2747" width="122.01" height="43" as="geometry" />
        </mxCell>
        <mxCell id="yw3r1Iz2F--yr3W_fxyA-275" value="Moderator" style="rounded=0;whiteSpace=wrap;html=1;fontColor=#000000;" parent="1" vertex="1">
          <mxGeometry x="607.13" y="-2688" width="122.01" height="43" as="geometry" />
        </mxCell>
        <mxCell id="yw3r1Iz2F--yr3W_fxyA-276" value="Embeddings" style="rounded=0;whiteSpace=wrap;html=1;fontColor=#000000;" parent="1" vertex="1">
          <mxGeometry x="607.13" y="-2629" width="122.01" height="43" as="geometry" />
        </mxCell>
        <mxCell id="a-j4wA8hQiBmL2kJyPlF-240" value="" style="edgeStyle=orthogonalEdgeStyle;rounded=0;orthogonalLoop=1;jettySize=auto;html=1;fontColor=#000000;" edge="1" parent="1" source="yw3r1Iz2F--yr3W_fxyA-277" target="a-j4wA8hQiBmL2kJyPlF-237">
          <mxGeometry relative="1" as="geometry" />
        </mxCell>
        <mxCell id="yw3r1Iz2F--yr3W_fxyA-277" value="Vectra" style="rounded=0;whiteSpace=wrap;html=1;fontColor=#000000;" parent="1" vertex="1">
          <mxGeometry x="607.13" y="-2506" width="122.01" height="43" as="geometry" />
        </mxCell>
        <mxCell id="yw3r1Iz2F--yr3W_fxyA-278" value="Prompts" style="rounded=0;whiteSpace=wrap;html=1;fontColor=#000000;" parent="1" vertex="1">
          <mxGeometry x="607.13" y="-2566" width="122.01" height="43" as="geometry" />
        </mxCell>
        <mxCell id="yw3r1Iz2F--yr3W_fxyA-279" value="" style="endArrow=classic;startArrow=classic;html=1;rounded=0;fontColor=#000000;" parent="1" edge="1">
          <mxGeometry width="50" height="50" relative="1" as="geometry">
            <mxPoint x="548" y="-2690.69" as="sourcePoint" />
            <mxPoint x="592" y="-2690.69" as="targetPoint" />
          </mxGeometry>
        </mxCell>
        <mxCell id="yw3r1Iz2F--yr3W_fxyA-280" value="" style="endArrow=classic;startArrow=classic;html=1;rounded=0;fontColor=#000000;" parent="1" edge="1">
          <mxGeometry width="50" height="50" relative="1" as="geometry">
            <mxPoint x="777" y="-2690.5" as="sourcePoint" />
            <mxPoint x="821" y="-2690.5" as="targetPoint" />
          </mxGeometry>
        </mxCell>
        <mxCell id="yw3r1Iz2F--yr3W_fxyA-281" value="" style="endArrow=classic;startArrow=classic;html=1;rounded=0;fontColor=#000000;" parent="1" edge="1">
          <mxGeometry width="50" height="50" relative="1" as="geometry">
            <mxPoint x="966" y="-2690.5" as="sourcePoint" />
            <mxPoint x="1010" y="-2690.5" as="targetPoint" />
          </mxGeometry>
        </mxCell>
        <mxCell id="yw3r1Iz2F--yr3W_fxyA-283" value="" style="group;fontColor=#000000;" parent="1" vertex="1" connectable="0">
          <mxGeometry x="1293" y="-2851" width="176" height="350" as="geometry" />
        </mxCell>
        <mxCell id="rFgJHXwTLDm--NcJodbU-43" value="M365 Tenant" style="rounded=0;whiteSpace=wrap;html=1;labelPosition=center;verticalLabelPosition=top;align=center;verticalAlign=bottom;fontColor=#000000;" parent="yw3r1Iz2F--yr3W_fxyA-283" vertex="1">
          <mxGeometry width="176" height="350" as="geometry" />
        </mxCell>
        <mxCell id="rFgJHXwTLDm--NcJodbU-22" value="MS Teams" style="pointerEvents=1;shadow=0;dashed=0;html=1;strokeColor=none;fillColor=#DF8C42;labelPosition=center;verticalLabelPosition=top;verticalAlign=bottom;align=center;outlineConnect=0;shape=mxgraph.veeam2.microsoft_teams;fontColor=#000000;" parent="yw3r1Iz2F--yr3W_fxyA-283" vertex="1">
          <mxGeometry x="54" y="41.86999999999989" width="70" height="70" as="geometry" />
        </mxCell>
        <mxCell id="RbjDmwQ8ODs942wHZW1d-5" value="Entra ID" style="verticalLabelPosition=bottom;html=1;verticalAlign=top;align=center;strokeColor=none;fillColor=#00BEF2;shape=mxgraph.azure.azure_active_directory;fontColor=#000000;" parent="yw3r1Iz2F--yr3W_fxyA-283" vertex="1">
          <mxGeometry x="58.99000000000012" y="248" width="60" height="60" as="geometry" />
        </mxCell>
        <mxCell id="81" value="&lt;span style=&quot;&quot;&gt;Dev Bot App&lt;/span&gt;&lt;br style=&quot;&quot;&gt;&lt;span style=&quot;&quot;&gt;Registration&lt;/span&gt;" style="aspect=fixed;html=1;points=[];align=center;image;fontSize=12;image=img/lib/azure2/identity/App_Registrations.svg;labelBackgroundColor=default;fontColor=#000000;" parent="yw3r1Iz2F--yr3W_fxyA-283" vertex="1">
          <mxGeometry x="67.39999999999998" y="161" width="43.19" height="43.88" as="geometry" />
        </mxCell>
        <mxCell id="yw3r1Iz2F--yr3W_fxyA-284" value="" style="endArrow=classic;startArrow=classic;html=1;rounded=0;fontColor=#000000;" parent="1" edge="1">
          <mxGeometry width="50" height="50" relative="1" as="geometry">
            <mxPoint x="1489" y="-2676.5" as="sourcePoint" />
            <mxPoint x="1533" y="-2676.5" as="targetPoint" />
          </mxGeometry>
        </mxCell>
        <mxCell id="yw3r1Iz2F--yr3W_fxyA-286" value="Azure Subscription" style="rounded=0;whiteSpace=wrap;html=1;labelPosition=center;verticalLabelPosition=top;align=center;verticalAlign=bottom;fontColor=#000000;" parent="1" vertex="1">
          <mxGeometry x="1550" y="-2898" width="343" height="515" as="geometry" />
        </mxCell>
        <mxCell id="Vx6OWWt55Qy7AkqzLe72-2" value="" style="rounded=0;whiteSpace=wrap;html=1;fontColor=#000000;" parent="1" vertex="1">
          <mxGeometry x="1591" y="-2882" width="266" height="158.63" as="geometry" />
        </mxCell>
        <mxCell id="rFgJHXwTLDm--NcJodbU-66" value="(Azure)&lt;br&gt;&amp;nbsp;Open AI&lt;br&gt;Chat Completion" style="image;aspect=fixed;html=1;points=[];align=center;fontSize=12;image=img/lib/azure2/app_services/API_Management_Services.svg;fontColor=#000000;" parent="1" vertex="1">
          <mxGeometry x="1623.67" y="-2855" width="65" height="60" as="geometry" />
        </mxCell>
        <mxCell id="yw3r1Iz2F--yr3W_fxyA-246" value="Optional" style="rounded=0;whiteSpace=wrap;html=1;dashed=1;labelPosition=center;verticalLabelPosition=top;align=center;verticalAlign=bottom;fontColor=#000000;" parent="1" vertex="1">
          <mxGeometry x="1661.99" y="-2688" width="99" height="203.38" as="geometry" />
        </mxCell>
        <mxCell id="3rU6oiF3IRkNv5Wmxhny-82" value="Custom Copilot&lt;br&gt;API" style="image;aspect=fixed;html=1;points=[];align=center;fontSize=12;image=img/lib/azure2/app_services/API_Management_Services.svg;fontColor=#000000;" parent="1" vertex="1">
          <mxGeometry x="1678.49" y="-2640.93" width="64.11" height="59.18" as="geometry" />
        </mxCell>
        <mxCell id="11" value="" style="rounded=0;whiteSpace=wrap;html=1;labelPosition=center;verticalLabelPosition=top;align=center;verticalAlign=bottom;labelBackgroundColor=#66FF66;fillColor=#97D077;fontColor=#000000;" parent="1" vertex="1">
          <mxGeometry x="1580" y="-2459" width="257" height="69" as="geometry" />
        </mxCell>
        <mxCell id="235" value="Chat History" style="aspect=fixed;html=1;points=[];align=center;image;fontSize=12;image=img/lib/azure2/storage/Storage_Accounts.svg;labelBackgroundColor=none;fontColor=#000000;" parent="1" vertex="1">
          <mxGeometry x="1688.6700000000003" y="-2454" width="43.75" height="35" as="geometry" />
        </mxCell>
        <mxCell id="yw3r1Iz2F--yr3W_fxyA-297" value="" style="endArrow=classic;startArrow=classic;html=1;rounded=0;exitX=1;exitY=0.7;exitDx=0;exitDy=0;exitPerimeter=0;fontColor=#000000;" parent="1" source="yw3r1Iz2F--yr3W_fxyA-326" target="yw3r1Iz2F--yr3W_fxyA-331" edge="1">
          <mxGeometry width="50" height="50" relative="1" as="geometry">
            <mxPoint x="415.14" y="-1980" as="sourcePoint" />
            <mxPoint x="459.14" y="-1980" as="targetPoint" />
          </mxGeometry>
        </mxCell>
        <mxCell id="yw3r1Iz2F--yr3W_fxyA-299" value="Production Environment" style="text;strokeColor=none;fillColor=none;html=1;fontSize=24;fontStyle=1;verticalAlign=middle;align=center;fontColor=#000000;" parent="1" vertex="1">
          <mxGeometry x="933.99" y="-2281" width="100" height="40" as="geometry" />
        </mxCell>
        <mxCell id="yw3r1Iz2F--yr3W_fxyA-301" value="User" style="outlineConnect=0;fontColor=#000000;gradientColor=none;strokeColor=#232F3E;fillColor=#ffffff;dashed=0;verticalLabelPosition=bottom;verticalAlign=top;align=center;html=1;fontSize=12;fontStyle=0;aspect=fixed;shape=mxgraph.aws4.resourceIcon;resIcon=mxgraph.aws4.user;shadow=1;" parent="1" vertex="1">
          <mxGeometry x="52" y="-2033" width="60" height="60" as="geometry" />
        </mxCell>
        <mxCell id="yw3r1Iz2F--yr3W_fxyA-323" value="" style="endArrow=classic;startArrow=classic;html=1;rounded=0;fontColor=#000000;" parent="1" target="yw3r1Iz2F--yr3W_fxyA-342" edge="1">
          <mxGeometry width="50" height="50" relative="1" as="geometry">
            <mxPoint x="401" y="-1945" as="sourcePoint" />
            <mxPoint x="450" y="-1992.38" as="targetPoint" />
          </mxGeometry>
        </mxCell>
        <mxCell id="yw3r1Iz2F--yr3W_fxyA-341" value="" style="endArrow=classic;startArrow=classic;html=1;rounded=0;fontColor=#000000;" parent="1" edge="1">
          <mxGeometry width="50" height="50" relative="1" as="geometry">
            <mxPoint x="122" y="-1999" as="sourcePoint" />
            <mxPoint x="166" y="-1999" as="targetPoint" />
          </mxGeometry>
        </mxCell>
        <mxCell id="yw3r1Iz2F--yr3W_fxyA-342" value="For multi-tenant configuration only" style="rounded=0;whiteSpace=wrap;html=1;dashed=1;labelPosition=center;verticalLabelPosition=top;align=center;verticalAlign=bottom;fontColor=#000000;" parent="1" vertex="1">
          <mxGeometry x="499" y="-2160" width="449" height="113" as="geometry" />
        </mxCell>
        <mxCell id="yw3r1Iz2F--yr3W_fxyA-312" value="botframework.com" style="verticalLabelPosition=bottom;html=1;verticalAlign=top;align=center;strokeColor=none;fillColor=#00BEF2;shape=mxgraph.azure.azure_active_directory;fontColor=#000000;" parent="1" vertex="1">
          <mxGeometry x="547.8500000000003" y="-2150.37" width="60" height="60" as="geometry" />
        </mxCell>
        <mxCell id="yw3r1Iz2F--yr3W_fxyA-313" value="Bot Registration" style="aspect=fixed;html=1;points=[];align=center;image;fontSize=12;image=img/lib/azure2/identity/App_Registrations.svg;labelBackgroundColor=default;fontColor=#000000;" parent="1" vertex="1">
          <mxGeometry x="858.0000000000001" y="-2136.31" width="43.19" height="43.88" as="geometry" />
        </mxCell>
        <mxCell id="yw3r1Iz2F--yr3W_fxyA-314" value="token.botframework.com" style="aspect=fixed;html=1;points=[];align=center;image;fontSize=12;image=img/lib/azure2/identity/Managed_Identities.svg;labelBackgroundColor=none;fontColor=#000000;" parent="1" vertex="1">
          <mxGeometry x="697.9999999999998" y="-2139.3999999999996" width="51.56" height="50.05" as="geometry" />
        </mxCell>
        <mxCell id="yw3r1Iz2F--yr3W_fxyA-331" value="Azure Subscription" style="rounded=0;whiteSpace=wrap;html=1;labelPosition=center;verticalLabelPosition=top;align=center;verticalAlign=bottom;fontColor=#000000;" parent="1" vertex="1">
          <mxGeometry x="1005" y="-2161" width="396" height="515" as="geometry" />
        </mxCell>
        <mxCell id="yw3r1Iz2F--yr3W_fxyA-332" value="" style="rounded=0;whiteSpace=wrap;html=1;fontColor=#000000;" parent="1" vertex="1">
          <mxGeometry x="1179" y="-2139.39" width="188.38" height="158.63" as="geometry" />
        </mxCell>
        <mxCell id="yw3r1Iz2F--yr3W_fxyA-334" value="Optional" style="rounded=0;whiteSpace=wrap;html=1;dashed=1;labelPosition=center;verticalLabelPosition=top;align=center;verticalAlign=bottom;fontColor=#000000;" parent="1" vertex="1">
          <mxGeometry x="1267.3799999999999" y="-1955.99" width="99" height="203.38" as="geometry" />
        </mxCell>
        <mxCell id="yw3r1Iz2F--yr3W_fxyA-335" value="Custom Copilot&lt;br&gt;API" style="image;aspect=fixed;html=1;points=[];align=center;fontSize=12;image=img/lib/azure2/app_services/API_Management_Services.svg;fontColor=#000000;" parent="1" vertex="1">
          <mxGeometry x="1285.32" y="-1903.9199999999998" width="64.11" height="59.18" as="geometry" />
        </mxCell>
        <mxCell id="yw3r1Iz2F--yr3W_fxyA-336" value="" style="rounded=0;whiteSpace=wrap;html=1;labelPosition=center;verticalLabelPosition=top;align=center;verticalAlign=bottom;fontColor=#000000;" parent="1" vertex="1">
          <mxGeometry x="1012" y="-1735" width="357" height="84.25" as="geometry" />
        </mxCell>
        <mxCell id="yw3r1Iz2F--yr3W_fxyA-337" value="App Configuration" style="sketch=0;aspect=fixed;html=1;points=[];align=center;image;fontSize=12;image=img/lib/mscae/App_Configuration.svg;fontColor=#000000;" parent="1" vertex="1">
          <mxGeometry x="1122" y="-1721.49" width="36.48" height="35.75" as="geometry" />
        </mxCell>
        <mxCell id="yw3r1Iz2F--yr3W_fxyA-338" value="Key Vault" style="image;aspect=fixed;html=1;points=[];align=center;fontSize=12;image=img/lib/azure2/security/Key_Vaults.svg;fontColor=#000000;" parent="1" vertex="1">
          <mxGeometry x="1209" y="-1724.49" width="38.75" height="38.75" as="geometry" />
        </mxCell>
        <mxCell id="yw3r1Iz2F--yr3W_fxyA-339" value="History" style="aspect=fixed;html=1;points=[];align=center;image;fontSize=12;image=img/lib/azure2/storage/Storage_Accounts.svg;labelBackgroundColor=none;fontColor=#000000;" parent="1" vertex="1">
          <mxGeometry x="1299.0000000000002" y="-1717.75" width="43.75" height="35" as="geometry" />
        </mxCell>
        <mxCell id="167" value="Bot Teams&lt;br&gt;Channel&lt;br&gt;Messaging&lt;br&gt;Endpoint" style="image;aspect=fixed;html=1;points=[];align=center;fontSize=12;image=img/lib/azure2/networking/Private_Endpoint.svg;labelPosition=center;verticalLabelPosition=top;verticalAlign=bottom;fontColor=#000000;" parent="1" vertex="1">
          <mxGeometry x="1015" y="-1971" width="54.54" height="50" as="geometry" />
        </mxCell>
        <mxCell id="157" value="Azure Bot" style="image;aspect=fixed;html=1;points=[];align=center;fontSize=12;image=img/lib/azure2/ai_machine_learning/Bot_Services.svg;fontColor=#000000;movable=1;resizable=1;rotatable=1;deletable=1;editable=1;locked=0;connectable=1;" parent="1" vertex="1">
          <mxGeometry x="1118.92" y="-1848.25" width="48" height="48" as="geometry" />
        </mxCell>
        <mxCell id="170" value="Bot App&lt;br&gt;Service" style="image;aspect=fixed;html=1;points=[];align=center;fontSize=12;image=img/lib/azure2/app_services/App_Services.svg;fontColor=#000000;movable=1;resizable=1;rotatable=1;deletable=1;editable=1;locked=0;connectable=1;" parent="1" vertex="1">
          <mxGeometry x="1115" y="-1965" width="44" height="44" as="geometry" />
        </mxCell>
        <mxCell id="178" value="App Insights" style="aspect=fixed;html=1;points=[];align=center;image;fontSize=12;image=img/lib/azure2/devops/Application_Insights.svg;labelBackgroundColor=none;fontColor=#000000;movable=1;resizable=1;rotatable=1;deletable=1;editable=1;locked=0;connectable=1;" parent="1" vertex="1">
          <mxGeometry x="1033.99" y="-1732.75" width="34.92" height="50" as="geometry" />
        </mxCell>
        <mxCell id="180" value="Bot App &lt;br&gt;Service PLan" style="aspect=fixed;html=1;points=[];align=center;image;fontSize=12;image=img/lib/azure2/app_services/App_Service_Plans.svg;labelBackgroundColor=none;fontColor=#000000;movable=1;resizable=1;rotatable=1;deletable=1;editable=1;locked=0;connectable=1;" parent="1" vertex="1">
          <mxGeometry x="1115" y="-2091" width="44" height="44" as="geometry" />
        </mxCell>
        <mxCell id="yw3r1Iz2F--yr3W_fxyA-343" value="" style="endArrow=classic;startArrow=classic;html=1;rounded=0;entryX=-0.013;entryY=0.435;entryDx=0;entryDy=0;entryPerimeter=0;exitX=0.726;exitY=1;exitDx=0;exitDy=0;exitPerimeter=0;fontColor=#000000;" parent="1" source="yw3r1Iz2F--yr3W_fxyA-342" target="yw3r1Iz2F--yr3W_fxyA-331" edge="1">
          <mxGeometry width="50" height="50" relative="1" as="geometry">
            <mxPoint x="416" y="-1982.38" as="sourcePoint" />
            <mxPoint x="572" y="-2037" as="targetPoint" />
          </mxGeometry>
        </mxCell>
        <mxCell id="yw3r1Iz2F--yr3W_fxyA-326" value="M365 Tenant" style="rounded=0;whiteSpace=wrap;html=1;labelPosition=center;verticalLabelPosition=top;align=center;verticalAlign=bottom;fontColor=#000000;" parent="1" vertex="1">
          <mxGeometry x="173" y="-2160" width="284" height="363" as="geometry" />
        </mxCell>
        <mxCell id="yw3r1Iz2F--yr3W_fxyA-327" value="MS Teams" style="pointerEvents=1;shadow=0;dashed=0;html=1;strokeColor=none;fillColor=#DF8C42;labelPosition=center;verticalLabelPosition=top;verticalAlign=bottom;align=center;outlineConnect=0;shape=mxgraph.veeam2.microsoft_teams;fontColor=#000000;" parent="1" vertex="1">
          <mxGeometry x="179.00454545454545" y="-2028.0000000000002" width="82.72727272727273" height="70" as="geometry" />
        </mxCell>
        <mxCell id="yw3r1Iz2F--yr3W_fxyA-328" value="Entra ID" style="verticalLabelPosition=bottom;html=1;verticalAlign=top;align=center;strokeColor=none;fillColor=#00BEF2;shape=mxgraph.azure.azure_active_directory;fontColor=#000000;" parent="1" vertex="1">
          <mxGeometry x="282.2818181818183" y="-1903.92" width="70.9090909090909" height="60" as="geometry" />
        </mxCell>
        <mxCell id="yw3r1Iz2F--yr3W_fxyA-329" value="&lt;span style=&quot;&quot;&gt;Bot App&lt;/span&gt;&lt;br style=&quot;&quot;&gt;&lt;span style=&quot;&quot;&gt;Registration&lt;/span&gt;" style="aspect=fixed;html=1;points=[];align=center;image;fontSize=12;image=img/lib/azure2/identity/App_Registrations.svg;labelBackgroundColor=default;fontColor=#000000;" parent="1" vertex="1">
          <mxGeometry x="209.80818181818182" y="-1892.13" width="43.19" height="43.88" as="geometry" />
        </mxCell>
        <mxCell id="yw3r1Iz2F--yr3W_fxyA-344" value="MS Teams&lt;br&gt;App Catalog" style="pointerEvents=1;shadow=0;dashed=0;html=1;strokeColor=none;fillColor=#DF8C42;labelPosition=center;verticalLabelPosition=top;verticalAlign=bottom;align=center;outlineConnect=0;shape=mxgraph.veeam2.microsoft_teams;fontColor=#000000;" parent="1" vertex="1">
          <mxGeometry x="241.05000000000007" y="-2114.98" width="57.62" height="57.62" as="geometry" />
        </mxCell>
        <mxCell id="yw3r1Iz2F--yr3W_fxyA-345" value="MS Teams &lt;br&gt;Admin" style="pointerEvents=1;shadow=0;dashed=0;html=1;strokeColor=none;fillColor=#DF8C42;labelPosition=center;verticalLabelPosition=top;verticalAlign=bottom;align=center;outlineConnect=0;shape=mxgraph.veeam2.microsoft_teams;fontColor=#000000;" parent="1" vertex="1">
          <mxGeometry x="331.32000000000005" y="-2111.98" width="57.62" height="57.62" as="geometry" />
        </mxCell>
        <mxCell id="a-j4wA8hQiBmL2kJyPlF-235" value="" style="rounded=0;whiteSpace=wrap;html=1;labelPosition=center;verticalLabelPosition=top;align=center;verticalAlign=bottom;labelBackgroundColor=#66FF66;fillColor=#97D077;fontColor=#000000;" vertex="1" parent="1">
          <mxGeometry x="179" y="-2511" width="397" height="100" as="geometry" />
        </mxCell>
        <mxCell id="a-j4wA8hQiBmL2kJyPlF-236" value="Data Index Local Storage" style="aspect=fixed;html=1;points=[];align=center;image;fontSize=12;image=img/lib/azure2/storage/Storage_Accounts.svg;labelBackgroundColor=none;fontColor=#000000;" vertex="1" parent="1">
          <mxGeometry x="278.25" y="-2485.5299999999997" width="61.32" height="49.06" as="geometry" />
        </mxCell>
        <mxCell id="a-j4wA8hQiBmL2kJyPlF-239" style="edgeStyle=orthogonalEdgeStyle;rounded=0;orthogonalLoop=1;jettySize=auto;html=1;exitX=0;exitY=0.5;exitDx=0;exitDy=0;fontColor=#000000;" edge="1" parent="1" source="a-j4wA8hQiBmL2kJyPlF-237" target="a-j4wA8hQiBmL2kJyPlF-236">
          <mxGeometry relative="1" as="geometry" />
        </mxCell>
        <mxCell id="a-j4wA8hQiBmL2kJyPlF-237" value="DataSources" style="rounded=0;whiteSpace=wrap;html=1;fontColor=#000000;" vertex="1" parent="1">
          <mxGeometry x="450" y="-2482.5" width="122.01" height="43" as="geometry" />
        </mxCell>
        <mxCell id="a-j4wA8hQiBmL2kJyPlF-241" style="edgeStyle=orthogonalEdgeStyle;rounded=0;orthogonalLoop=1;jettySize=auto;html=1;entryX=1;entryY=0.5;entryDx=0;entryDy=0;fontColor=#000000;" edge="1" parent="1" source="a-j4wA8hQiBmL2kJyPlF-238" target="a-j4wA8hQiBmL2kJyPlF-235">
          <mxGeometry relative="1" as="geometry" />
        </mxCell>
        <mxCell id="a-j4wA8hQiBmL2kJyPlF-238" value="Vectra CLI" style="rounded=0;whiteSpace=wrap;html=1;fontColor=#000000;" vertex="1" parent="1">
          <mxGeometry x="608" y="-2449" width="121.14" height="43" as="geometry" />
        </mxCell>
        <mxCell id="a-j4wA8hQiBmL2kJyPlF-242" value="(Azure)&lt;br&gt;&amp;nbsp;Open AI&lt;br&gt;Embeddings" style="image;aspect=fixed;html=1;points=[];align=center;fontSize=12;image=img/lib/azure2/app_services/API_Management_Services.svg;fontColor=#000000;" vertex="1" parent="1">
          <mxGeometry x="1765" y="-2855" width="65" height="60" as="geometry" />
        </mxCell>
        <mxCell id="a-j4wA8hQiBmL2kJyPlF-244" value="(Azure)&lt;br&gt;&amp;nbsp;Open AI&lt;br&gt;Chat Completion" style="image;aspect=fixed;html=1;points=[];align=center;fontSize=12;image=img/lib/azure2/app_services/API_Management_Services.svg;fontColor=#000000;" vertex="1" parent="1">
          <mxGeometry x="1202.38" y="-2112" width="65" height="60" as="geometry" />
        </mxCell>
        <mxCell id="a-j4wA8hQiBmL2kJyPlF-245" value="(Azure)&lt;br&gt;&amp;nbsp;Open AI&lt;br&gt;Embeddings" style="image;aspect=fixed;html=1;points=[];align=center;fontSize=12;image=img/lib/azure2/app_services/API_Management_Services.svg;fontColor=#000000;" vertex="1" parent="1">
          <mxGeometry x="1292.33" y="-2111.98" width="65" height="60" as="geometry" />
        </mxCell>
        <mxCell id="a-j4wA8hQiBmL2kJyPlF-246" value="" style="verticalLabelPosition=bottom;verticalAlign=top;html=1;shape=mxgraph.basic.layered_rect;dx=10;outlineConnect=0;whiteSpace=wrap;fontColor=#000000;" vertex="1" parent="1">
          <mxGeometry x="1199" y="-2574" width="100" height="60" as="geometry" />
        </mxCell>
        <mxCell id="a-j4wA8hQiBmL2kJyPlF-248" value="" style="verticalLabelPosition=bottom;verticalAlign=top;html=1;shape=mxgraph.basic.plaque_frame;dx=10;whiteSpace=wrap;fontColor=#000000;" vertex="1" parent="1">
          <mxGeometry x="29" y="-3101" width="2164" height="60" as="geometry" />
        </mxCell>
        <mxCell id="a-j4wA8hQiBmL2kJyPlF-249" value="&lt;h1&gt;Teams Copilot Starter Dev &amp;amp; Prod Architecture Diagram&lt;/h1&gt;" style="text;html=1;strokeColor=none;fillColor=none;spacing=5;spacingTop=-20;whiteSpace=wrap;overflow=hidden;rounded=0;" vertex="1" parent="1">
          <mxGeometry x="864" y="-3091" width="762" height="38" as="geometry" />
        </mxCell>
      </root>
    </mxGraphModel>
  </diagram>
</mxfile>
